<mxfile><diagram id="akL486Hf42J-UM6XSux5" name="第 1 页"><mxGraphModel dx="5448" dy="3363" grid="1" gridSize="10" guides="1" tooltips="1" connect="1" arrows="1" fold="1" page="0" pageScale="1" pageWidth="1169" pageHeight="1654" background="#0F0F0F" math="0" shadow="1"><root><mxCell id="0"/><mxCell id="1" parent="0"/><mxCell id="2" value="" style="rounded=0;whiteSpace=wrap;html=1;" parent="1" vertex="1"><mxGeometry x="-320" y="500" width="50" height="40" as="geometry"/></mxCell><mxCell id="3" value="" style="rounded=0;whiteSpace=wrap;html=1;fillColor=#1ba1e2;fontColor=#ffffff;strokeColor=#006EAF;" parent="1" vertex="1"><mxGeometry x="-270" y="500" width="50" height="40" as="geometry"/></mxCell><mxCell id="4" value="" style="rounded=0;whiteSpace=wrap;html=1;strokeWidth=3;fillColor=#1ba1e2;fontColor=#ffffff;strokeColor=#006EAF;" parent="1" vertex="1"><mxGeometry x="-220" y="500" width="50" height="40" as="geometry"/></mxCell><mxCell id="5" value="" style="rounded=0;whiteSpace=wrap;html=1;fillColor=#1ba1e2;fontColor=#ffffff;strokeColor=#006EAF;strokeWidth=3;" parent="1" vertex="1"><mxGeometry x="-170" y="500" width="50" height="40" as="geometry"/></mxCell><mxCell id="6" value="" style="rounded=0;whiteSpace=wrap;html=1;strokeWidth=3;fillColor=#1ba1e2;fontColor=#ffffff;strokeColor=#006EAF;" parent="1" vertex="1"><mxGeometry x="-120" y="500" width="50" height="40" as="geometry"/></mxCell><mxCell id="7" value="" style="rounded=0;whiteSpace=wrap;html=1;" parent="1" vertex="1"><mxGeometry x="-70" y="500" width="50" height="40" as="geometry"/></mxCell><mxCell id="8" value="" style="rounded=0;whiteSpace=wrap;html=1;" parent="1" vertex="1"><mxGeometry x="-20" y="500" width="50" height="40" as="geometry"/></mxCell><mxCell id="9" value="" style="rounded=0;whiteSpace=wrap;html=1;" parent="1" vertex="1"><mxGeometry x="30" y="500" width="50" height="40" as="geometry"/></mxCell><mxCell id="10" value="&lt;div style=&quot;color: rgb(204, 204, 204); background-color: rgb(31, 31, 31); font-family: Consolas, 微软雅黑, monospace, Consolas, &amp;quot;Courier New&amp;quot;, monospace; font-size: 14px; line-height: 19px;&quot;&gt;&lt;span style=&quot;color: #4ec9b0;&quot;&gt;&lt;b&gt;map_pointer&lt;/b&gt;&lt;/span&gt; &lt;span style=&quot;color: #9cdcfe;&quot;&gt;map&lt;/span&gt;&lt;/div&gt;" style="text;html=1;strokeColor=default;fillColor=none;align=center;verticalAlign=middle;whiteSpace=wrap;rounded=0;dashed=1;dashPattern=1 4;" parent="1" vertex="1"><mxGeometry x="-435" y="580" width="120" height="30" as="geometry"/></mxCell><mxCell id="11" value="" style="endArrow=classic;html=1;entryX=0;entryY=1;entryDx=0;entryDy=0;exitX=0.75;exitY=0;exitDx=0;exitDy=0;" parent="1" source="10" target="2" edge="1"><mxGeometry width="50" height="50" relative="1" as="geometry"><mxPoint x="-390" y="570" as="sourcePoint"/><mxPoint x="-340" y="520" as="targetPoint"/></mxGeometry></mxCell><mxCell id="12" value="" style="curved=1;endArrow=classic;html=1;entryX=0;entryY=1;entryDx=0;entryDy=0;strokeWidth=2;strokeColor=#FFFFFF;" parent="1" source="4" target="15" edge="1"><mxGeometry width="50" height="50" relative="1" as="geometry"><mxPoint x="-310" y="410" as="sourcePoint"/><mxPoint x="-380" y="280" as="targetPoint"/><Array as="points"><mxPoint x="-240" y="430"/><mxPoint x="-400" y="370"/></Array></mxGeometry></mxCell><mxCell id="13" value="&lt;div style=&quot;color: rgb(204, 204, 204); background-color: rgb(31, 31, 31); font-family: Consolas, 微软雅黑, monospace, Consolas, &amp;quot;Courier New&amp;quot;, monospace; font-size: 14px; line-height: 19px;&quot;&gt;&lt;span style=&quot;color: #4ec9b0;&quot;&gt;&lt;b&gt;iterator&lt;/b&gt;&lt;/span&gt; &lt;span style=&quot;color: #9cdcfe;&quot;&gt;start&lt;/span&gt;&lt;/div&gt;" style="text;html=1;strokeColor=default;fillColor=none;align=center;verticalAlign=middle;whiteSpace=wrap;rounded=0;dashed=1;dashPattern=1 4;strokeWidth=1;" parent="1" vertex="1"><mxGeometry x="-950" y="620" width="110" height="20" as="geometry"/></mxCell><mxCell id="14" value="&lt;div style=&quot;color: rgb(204, 204, 204); background-color: rgb(31, 31, 31); font-family: Consolas, 微软雅黑, monospace, Consolas, &amp;quot;Courier New&amp;quot;, monospace; font-size: 14px; line-height: 19px;&quot;&gt;&lt;span style=&quot;color: #4ec9b0;&quot;&gt;&lt;b&gt;iterator&lt;/b&gt;&lt;/span&gt; &lt;span style=&quot;color: #9cdcfe;&quot;&gt;finish&lt;/span&gt;&lt;/div&gt;" style="text;html=1;strokeColor=default;fillColor=none;align=center;verticalAlign=middle;whiteSpace=wrap;rounded=0;dashed=1;dashPattern=1 4;strokeWidth=1;" parent="1" vertex="1"><mxGeometry y="710" width="120" height="20" as="geometry"/></mxCell><mxCell id="15" value="" style="rounded=0;whiteSpace=wrap;html=1;strokeColor=default;strokeWidth=1;" parent="1" vertex="1"><mxGeometry x="-480" y="250" width="320" height="30" as="geometry"/></mxCell><mxCell id="16" value="" style="rounded=0;whiteSpace=wrap;html=1;strokeColor=#2D7600;strokeWidth=1;fillColor=#60a917;fontColor=#ffffff;" parent="1" vertex="1"><mxGeometry x="-170" y="180" width="320" height="30" as="geometry"/></mxCell><mxCell id="17" value="" style="curved=1;endArrow=classic;html=1;entryX=0;entryY=1;entryDx=0;entryDy=0;strokeWidth=2;" parent="1" target="16" edge="1"><mxGeometry width="50" height="50" relative="1" as="geometry"><mxPoint x="-150" y="500" as="sourcePoint"/><mxPoint x="-160" y="230" as="targetPoint"/><Array as="points"><mxPoint x="-170" y="480"/><mxPoint x="-180" y="440"/><mxPoint x="-40" y="340"/></Array></mxGeometry></mxCell><mxCell id="18" value="" style="curved=1;endArrow=classic;html=1;entryX=0;entryY=1;entryDx=0;entryDy=0;strokeWidth=2;" parent="1" edge="1"><mxGeometry width="50" height="50" relative="1" as="geometry"><mxPoint x="-100" y="500" as="sourcePoint"/><mxPoint x="-10" y="310" as="targetPoint"/><Array as="points"><mxPoint x="-10" y="440"/><mxPoint y="370"/></Array></mxGeometry></mxCell><mxCell id="19" value="" style="rounded=0;whiteSpace=wrap;html=1;strokeColor=#B09500;strokeWidth=1;fillColor=#e3c800;fontColor=#000000;" parent="1" vertex="1"><mxGeometry x="-480" y="250" width="40" height="30" as="geometry"/></mxCell><mxCell id="20" value="" style="rounded=0;whiteSpace=wrap;html=1;strokeColor=#2D7600;strokeWidth=1;fillColor=#60a917;fontColor=#ffffff;" parent="1" vertex="1"><mxGeometry x="-440" y="250" width="40" height="30" as="geometry"/></mxCell><mxCell id="21" value="" style="rounded=0;whiteSpace=wrap;html=1;strokeColor=#2D7600;strokeWidth=1;fillColor=#60a917;fontColor=#ffffff;" parent="1" vertex="1"><mxGeometry x="-400" y="250" width="40" height="30" as="geometry"/></mxCell><mxCell id="22" value="" style="rounded=0;whiteSpace=wrap;html=1;strokeColor=#C73500;strokeWidth=1;fillColor=#fa6800;fontColor=#000000;" parent="1" vertex="1"><mxGeometry x="-360" y="250" width="40" height="30" as="geometry"/></mxCell><mxCell id="23" value="" style="rounded=0;whiteSpace=wrap;html=1;strokeColor=#2D7600;strokeWidth=1;fillColor=#60a917;fontColor=#ffffff;" parent="1" vertex="1"><mxGeometry x="-320" y="250" width="40" height="30" as="geometry"/></mxCell><mxCell id="24" value="" style="rounded=0;whiteSpace=wrap;html=1;strokeColor=#2D7600;strokeWidth=1;fillColor=#60a917;fontColor=#ffffff;" parent="1" vertex="1"><mxGeometry x="-280" y="250" width="40" height="30" as="geometry"/></mxCell><mxCell id="25" value="" style="rounded=0;whiteSpace=wrap;html=1;strokeColor=#2D7600;strokeWidth=1;fillColor=#60a917;fontColor=#ffffff;" parent="1" vertex="1"><mxGeometry x="-240" y="250" width="40" height="30" as="geometry"/></mxCell><mxCell id="26" value="" style="rounded=0;whiteSpace=wrap;html=1;strokeColor=#2D7600;strokeWidth=1;fillColor=#60a917;fontColor=#ffffff;" parent="1" vertex="1"><mxGeometry x="-200" y="250" width="40" height="30" as="geometry"/></mxCell><mxCell id="27" value="" style="rounded=0;whiteSpace=wrap;html=1;strokeColor=#2D7600;strokeWidth=1;fillColor=#60a917;fontColor=#ffffff;" parent="1" vertex="1"><mxGeometry x="-170" y="180" width="320" height="30" as="geometry"/></mxCell><mxCell id="28" value="" style="rounded=0;whiteSpace=wrap;html=1;strokeColor=#2D7600;strokeWidth=1;fillColor=#60a917;fontColor=#ffffff;" parent="1" vertex="1"><mxGeometry x="-170" y="180" width="40" height="30" as="geometry"/></mxCell><mxCell id="29" value="" style="rounded=0;whiteSpace=wrap;html=1;strokeColor=#2D7600;strokeWidth=1;fillColor=#60a917;fontColor=#ffffff;" parent="1" vertex="1"><mxGeometry x="-130" y="180" width="40" height="30" as="geometry"/></mxCell><mxCell id="30" value="" style="rounded=0;whiteSpace=wrap;html=1;strokeColor=#2D7600;strokeWidth=1;fillColor=#60a917;fontColor=#ffffff;" parent="1" vertex="1"><mxGeometry x="-90" y="180" width="40" height="30" as="geometry"/></mxCell><mxCell id="31" value="" style="rounded=0;whiteSpace=wrap;html=1;strokeColor=#2D7600;strokeWidth=1;fillColor=#60a917;fontColor=#ffffff;" parent="1" vertex="1"><mxGeometry x="-50" y="180" width="40" height="30" as="geometry"/></mxCell><mxCell id="32" value="" style="rounded=0;whiteSpace=wrap;html=1;strokeColor=#2D7600;strokeWidth=1;fillColor=#60a917;fontColor=#ffffff;" parent="1" vertex="1"><mxGeometry x="-10" y="180" width="40" height="30" as="geometry"/></mxCell><mxCell id="33" value="" style="rounded=0;whiteSpace=wrap;html=1;strokeColor=#2D7600;strokeWidth=1;fillColor=#60a917;fontColor=#ffffff;" parent="1" vertex="1"><mxGeometry x="30" y="180" width="40" height="30" as="geometry"/></mxCell><mxCell id="34" value="" style="rounded=0;whiteSpace=wrap;html=1;strokeColor=#2D7600;strokeWidth=1;fillColor=#60a917;fontColor=#ffffff;" parent="1" vertex="1"><mxGeometry x="70" y="180" width="40" height="30" as="geometry"/></mxCell><mxCell id="35" value="" style="rounded=0;whiteSpace=wrap;html=1;strokeColor=#2D7600;strokeWidth=1;fillColor=#60a917;fontColor=#ffffff;" parent="1" vertex="1"><mxGeometry x="110" y="180" width="40" height="30" as="geometry"/></mxCell><mxCell id="36" value="&lt;div style=&quot;color: rgb(204, 204, 204); background-color: rgb(31, 31, 31); font-family: Consolas, 微软雅黑, monospace, Consolas, &amp;quot;Courier New&amp;quot;, monospace; font-size: 14px; line-height: 19px;&quot;&gt;&lt;span style=&quot;color: #4ec9b0;&quot;&gt;Type&lt;/span&gt;&lt;span style=&quot;color: #d4d4d4;&quot;&gt;*&lt;/span&gt; &lt;span style=&quot;color: #9cdcfe;&quot;&gt;first&lt;/span&gt;&lt;/div&gt;" style="rounded=0;whiteSpace=wrap;html=1;strokeColor=default;strokeWidth=1;" parent="1" vertex="1"><mxGeometry x="-950" y="580" width="110" height="30" as="geometry"/></mxCell><mxCell id="80" style="edgeStyle=none;html=1;fontSize=18;" parent="1" source="37" edge="1"><mxGeometry relative="1" as="geometry"><mxPoint x="-790" y="580" as="targetPoint"/></mxGeometry></mxCell><mxCell id="37" value="&lt;div style=&quot;color: rgb(204, 204, 204); background-color: rgb(31, 31, 31); font-family: Consolas, 微软雅黑, monospace, Consolas, &amp;quot;Courier New&amp;quot;, monospace; font-size: 14px; line-height: 19px;&quot;&gt;&lt;span style=&quot;color: #4ec9b0;&quot;&gt;Type&lt;/span&gt;&lt;span style=&quot;color: #d4d4d4;&quot;&gt;*&lt;/span&gt; &lt;span style=&quot;color: #9cdcfe;&quot;&gt;last&lt;/span&gt;&lt;/div&gt;" style="rounded=0;whiteSpace=wrap;html=1;strokeColor=default;strokeWidth=1;" parent="1" vertex="1"><mxGeometry x="-840" y="580" width="110" height="30" as="geometry"/></mxCell><mxCell id="38" value="&lt;div style=&quot;color: rgb(204, 204, 204); background-color: rgb(31, 31, 31); font-family: Consolas, 微软雅黑, monospace, Consolas, &amp;quot;Courier New&amp;quot;, monospace; font-size: 14px; line-height: 19px;&quot;&gt;&lt;span style=&quot;color: #4ec9b0;&quot;&gt;Type&lt;/span&gt;&lt;span style=&quot;color: #d4d4d4;&quot;&gt;*&lt;/span&gt; &lt;span style=&quot;color: #9cdcfe;&quot;&gt;current&lt;/span&gt;&lt;/div&gt;" style="rounded=0;whiteSpace=wrap;html=1;strokeColor=default;strokeWidth=1;" parent="1" vertex="1"><mxGeometry x="-730" y="580" width="120" height="30" as="geometry"/></mxCell><mxCell id="39" value="&lt;div style=&quot;color: rgb(204, 204, 204); background-color: rgb(31, 31, 31); font-family: Consolas, 微软雅黑, monospace, Consolas, &amp;quot;Courier New&amp;quot;, monospace; font-size: 14px; line-height: 19px;&quot;&gt;&lt;span style=&quot;color: #4ec9b0;&quot;&gt;map_pointer&lt;/span&gt; &lt;span style=&quot;color: #9cdcfe;&quot;&gt;node&lt;/span&gt;&lt;/div&gt;" style="rounded=0;whiteSpace=wrap;html=1;strokeColor=default;strokeWidth=1;" parent="1" vertex="1"><mxGeometry x="-610" y="580" width="130" height="30" as="geometry"/></mxCell><mxCell id="40" value="" style="edgeStyle=elbowEdgeStyle;elbow=vertical;endArrow=classic;html=1;curved=0;rounded=0;endSize=8;startSize=8;exitX=0.75;exitY=1;exitDx=0;exitDy=0;entryX=0.5;entryY=1;entryDx=0;entryDy=0;strokeWidth=2;" parent="1" source="39" target="3" edge="1"><mxGeometry width="50" height="50" relative="1" as="geometry"><mxPoint x="-570" y="690" as="sourcePoint"/><mxPoint x="-150" y="690" as="targetPoint"/><Array as="points"><mxPoint x="-370" y="660"/></Array></mxGeometry></mxCell><mxCell id="44" value="&lt;div style=&quot;color: rgb(204, 204, 204); background-color: rgb(31, 31, 31); font-family: Consolas, 微软雅黑, monospace, Consolas, &amp;quot;Courier New&amp;quot;, monospace; font-size: 14px; line-height: 19px;&quot;&gt;&lt;span style=&quot;color: #4ec9b0;&quot;&gt;Type&lt;/span&gt;&lt;span style=&quot;color: #d4d4d4;&quot;&gt;*&lt;/span&gt; &lt;span style=&quot;color: #9cdcfe;&quot;&gt;first&lt;/span&gt;&lt;/div&gt;" style="rounded=0;whiteSpace=wrap;html=1;strokeColor=default;strokeWidth=1;" parent="1" vertex="1"><mxGeometry y="670" width="110" height="30" as="geometry"/></mxCell><mxCell id="45" value="&lt;div style=&quot;color: rgb(204, 204, 204); background-color: rgb(31, 31, 31); font-family: Consolas, 微软雅黑, monospace, Consolas, &amp;quot;Courier New&amp;quot;, monospace; font-size: 14px; line-height: 19px;&quot;&gt;&lt;span style=&quot;color: #4ec9b0;&quot;&gt;Type&lt;/span&gt;&lt;span style=&quot;color: #d4d4d4;&quot;&gt;*&lt;/span&gt; &lt;span style=&quot;color: #9cdcfe;&quot;&gt;last&lt;/span&gt;&lt;/div&gt;" style="rounded=0;whiteSpace=wrap;html=1;strokeColor=default;strokeWidth=1;" parent="1" vertex="1"><mxGeometry x="110" y="670" width="110" height="30" as="geometry"/></mxCell><mxCell id="46" value="&lt;div style=&quot;color: rgb(204, 204, 204); background-color: rgb(31, 31, 31); font-family: Consolas, 微软雅黑, monospace, Consolas, &amp;quot;Courier New&amp;quot;, monospace; font-size: 14px; line-height: 19px;&quot;&gt;&lt;span style=&quot;color: #4ec9b0;&quot;&gt;Type&lt;/span&gt;&lt;span style=&quot;color: #d4d4d4;&quot;&gt;*&lt;/span&gt; &lt;span style=&quot;color: #9cdcfe;&quot;&gt;current&lt;/span&gt;&lt;/div&gt;" style="rounded=0;whiteSpace=wrap;html=1;strokeColor=default;strokeWidth=1;" parent="1" vertex="1"><mxGeometry x="220" y="670" width="120" height="30" as="geometry"/></mxCell><mxCell id="47" value="&lt;div style=&quot;color: rgb(204, 204, 204); background-color: rgb(31, 31, 31); font-family: Consolas, 微软雅黑, monospace, Consolas, &amp;quot;Courier New&amp;quot;, monospace; font-size: 14px; line-height: 19px;&quot;&gt;&lt;span style=&quot;color: #4ec9b0;&quot;&gt;map_pointer&lt;/span&gt; &lt;span style=&quot;color: #9cdcfe;&quot;&gt;node&lt;/span&gt;&lt;/div&gt;" style="rounded=0;whiteSpace=wrap;html=1;strokeColor=default;strokeWidth=1;" parent="1" vertex="1"><mxGeometry x="340" y="670" width="130" height="30" as="geometry"/></mxCell><mxCell id="48" value="" style="edgeStyle=elbowEdgeStyle;elbow=vertical;endArrow=classic;html=1;curved=0;rounded=0;endSize=8;startSize=8;strokeWidth=2;exitX=0.25;exitY=0;exitDx=0;exitDy=0;entryX=0.5;entryY=1;entryDx=0;entryDy=0;" parent="1" target="6" edge="1"><mxGeometry width="50" height="50" relative="1" as="geometry"><mxPoint x="372.49999999999955" y="670" as="sourcePoint"/><mxPoint x="-95" y="550" as="targetPoint"/><Array as="points"><mxPoint x="160" y="610"/></Array></mxGeometry></mxCell><mxCell id="49" value="" style="curved=1;endArrow=classic;html=1;strokeWidth=1;entryX=0.5;entryY=1;entryDx=0;entryDy=0;" parent="1" edge="1"><mxGeometry width="50" height="50" relative="1" as="geometry"><mxPoint x="50" y="670" as="sourcePoint"/><mxPoint x="10" y="310" as="targetPoint"/><Array as="points"><mxPoint x="130" y="560"/><mxPoint x="70" y="470"/><mxPoint x="90" y="390"/></Array></mxGeometry></mxCell><mxCell id="50" value="" style="curved=1;endArrow=classic;html=1;strokeWidth=1;entryX=1;entryY=1;entryDx=0;entryDy=0;" parent="1" edge="1"><mxGeometry width="50" height="50" relative="1" as="geometry"><mxPoint x="160" y="670" as="sourcePoint"/><mxPoint x="310" y="310" as="targetPoint"/><Array as="points"><mxPoint x="250" y="560"/><mxPoint x="240" y="370"/></Array></mxGeometry></mxCell><mxCell id="51" value="" style="curved=1;endArrow=classic;html=1;strokeWidth=1;entryX=0.75;entryY=1;entryDx=0;entryDy=0;" parent="1" target="57" edge="1"><mxGeometry width="50" height="50" relative="1" as="geometry"><mxPoint x="260" y="670" as="sourcePoint"/><mxPoint x="250" y="310" as="targetPoint"/><Array as="points"><mxPoint x="160" y="580"/><mxPoint x="150" y="350"/></Array></mxGeometry></mxCell><mxCell id="52" value="" style="rounded=0;whiteSpace=wrap;html=1;strokeColor=default;strokeWidth=1;" parent="1" vertex="1"><mxGeometry x="-10" y="280" width="320" height="30" as="geometry"/></mxCell><mxCell id="53" value="" style="rounded=0;whiteSpace=wrap;html=1;strokeColor=default;strokeWidth=1;" parent="1" vertex="1"><mxGeometry x="-10" y="280" width="320" height="30" as="geometry"/></mxCell><mxCell id="54" value="" style="rounded=0;whiteSpace=wrap;html=1;strokeColor=#2D7600;strokeWidth=1;fillColor=#60a917;fontColor=#ffffff;" parent="1" vertex="1"><mxGeometry x="-10" y="280" width="40" height="30" as="geometry"/></mxCell><mxCell id="55" value="" style="rounded=0;whiteSpace=wrap;html=1;strokeColor=#2D7600;strokeWidth=1;fillColor=#60a917;fontColor=#ffffff;" parent="1" vertex="1"><mxGeometry x="30" y="280" width="40" height="30" as="geometry"/></mxCell><mxCell id="56" value="" style="rounded=0;whiteSpace=wrap;html=1;strokeColor=#2D7600;strokeWidth=1;fillColor=#60a917;fontColor=#ffffff;" parent="1" vertex="1"><mxGeometry x="70" y="280" width="40" height="30" as="geometry"/></mxCell><mxCell id="57" value="" style="rounded=0;whiteSpace=wrap;html=1;strokeColor=#2D7600;strokeWidth=1;fillColor=#60a917;fontColor=#ffffff;" parent="1" vertex="1"><mxGeometry x="110" y="280" width="40" height="30" as="geometry"/></mxCell><mxCell id="58" value="" style="rounded=0;whiteSpace=wrap;html=1;strokeColor=default;strokeWidth=1;" parent="1" vertex="1"><mxGeometry x="150" y="280" width="40" height="30" as="geometry"/></mxCell><mxCell id="59" value="" style="rounded=0;whiteSpace=wrap;html=1;strokeColor=default;strokeWidth=1;" parent="1" vertex="1"><mxGeometry x="190" y="280" width="40" height="30" as="geometry"/></mxCell><mxCell id="60" value="" style="rounded=0;whiteSpace=wrap;html=1;strokeColor=default;strokeWidth=1;" parent="1" vertex="1"><mxGeometry x="230" y="280" width="40" height="30" as="geometry"/></mxCell><mxCell id="61" value="" style="rounded=0;whiteSpace=wrap;html=1;strokeColor=default;strokeWidth=1;" parent="1" vertex="1"><mxGeometry x="270" y="280" width="40" height="30" as="geometry"/></mxCell><mxCell id="62" value="" style="endArrow=classic;html=1;entryX=0.5;entryY=0;entryDx=0;entryDy=0;exitX=0.75;exitY=1;exitDx=0;exitDy=0;" parent="1" source="63" target="22" edge="1"><mxGeometry width="50" height="50" relative="1" as="geometry"><mxPoint x="-360" y="170" as="sourcePoint"/><mxPoint x="-490" y="140" as="targetPoint"/></mxGeometry></mxCell><mxCell id="63" value="&lt;div style=&quot;color: rgb(204, 204, 204); background-color: rgb(31, 31, 31); font-family: Consolas, 微软雅黑, monospace, Consolas, &amp;quot;Courier New&amp;quot;, monospace; font-size: 14px; line-height: 19px;&quot;&gt;&lt;span style=&quot;color: #4ec9b0;&quot;&gt;iterator&lt;/span&gt; &lt;span style=&quot;color: #9cdcfe;&quot;&gt;__pos&lt;/span&gt;&lt;/div&gt;" style="text;html=1;strokeColor=none;fillColor=none;align=center;verticalAlign=middle;whiteSpace=wrap;rounded=0;" parent="1" vertex="1"><mxGeometry x="-330" y="155" width="110" height="20" as="geometry"/></mxCell><mxCell id="65" value="" style="rounded=0;whiteSpace=wrap;html=1;strokeColor=default;strokeWidth=1;" parent="1" vertex="1"><mxGeometry x="-990" y="270" width="320" height="30" as="geometry"/></mxCell><mxCell id="66" value="" style="rounded=0;whiteSpace=wrap;html=1;strokeColor=default;strokeWidth=1;" parent="1" vertex="1"><mxGeometry x="-990" y="270" width="320" height="30" as="geometry"/></mxCell><mxCell id="67" value="" style="rounded=0;whiteSpace=wrap;html=1;strokeWidth=1;" parent="1" vertex="1"><mxGeometry x="-990" y="270" width="40" height="30" as="geometry"/></mxCell><mxCell id="68" value="" style="rounded=0;whiteSpace=wrap;html=1;strokeWidth=1;" parent="1" vertex="1"><mxGeometry x="-950" y="270" width="40" height="30" as="geometry"/></mxCell><mxCell id="69" value="" style="rounded=0;whiteSpace=wrap;html=1;strokeWidth=1;" parent="1" vertex="1"><mxGeometry x="-910" y="270" width="40" height="30" as="geometry"/></mxCell><mxCell id="70" value="" style="rounded=0;whiteSpace=wrap;html=1;strokeWidth=1;" parent="1" vertex="1"><mxGeometry x="-870" y="270" width="40" height="30" as="geometry"/></mxCell><mxCell id="71" value="" style="rounded=0;whiteSpace=wrap;html=1;strokeColor=default;strokeWidth=1;" parent="1" vertex="1"><mxGeometry x="-830" y="270" width="40" height="30" as="geometry"/></mxCell><mxCell id="72" value="" style="rounded=0;whiteSpace=wrap;html=1;strokeColor=default;strokeWidth=1;" parent="1" vertex="1"><mxGeometry x="-790" y="270" width="40" height="30" as="geometry"/></mxCell><mxCell id="73" value="" style="rounded=0;whiteSpace=wrap;html=1;strokeColor=default;strokeWidth=1;" parent="1" vertex="1"><mxGeometry x="-750" y="270" width="40" height="30" as="geometry"/></mxCell><mxCell id="74" value="" style="rounded=0;whiteSpace=wrap;html=1;strokeColor=#B09500;strokeWidth=1;fillColor=#e3c800;fontColor=#000000;" parent="1" vertex="1"><mxGeometry x="-710" y="270" width="40" height="30" as="geometry"/></mxCell><mxCell id="75" value="&lt;div style=&quot;text-align: left;&quot;&gt;&lt;span style=&quot;font-size: 50px; background-color: initial;&quot;&gt;&lt;font color=&quot;#ffffff&quot;&gt;辅助函数 insert_aux( ) 的操作示意&lt;/font&gt;&lt;/span&gt;&lt;/div&gt;&lt;font color=&quot;#ffffff&quot; style=&quot;font-size: 50px;&quot;&gt;&lt;div style=&quot;text-align: left;&quot;&gt;&lt;span style=&quot;background-color: initial;&quot;&gt;该函数处理 insert() 除头尾插入以外的操作。&lt;/span&gt;&lt;/div&gt;&lt;/font&gt;" style="text;html=1;strokeColor=none;fillColor=none;align=center;verticalAlign=middle;whiteSpace=wrap;rounded=0;" parent="1" vertex="1"><mxGeometry x="-1010" y="-400" width="1020" height="230" as="geometry"/></mxCell><mxCell id="76" value="&lt;div style=&quot;text-align: left;&quot;&gt;&lt;span style=&quot;font-size: 30px; background-color: initial;&quot;&gt;情况 1：&lt;/span&gt;&lt;font style=&quot;font-size: 30px; background-color: initial;&quot;&gt;&lt;span style=&quot;font-family: Consolas, 微软雅黑, monospace, Consolas, &amp;quot;Courier New&amp;quot;, monospace; color: rgb(156, 220, 254);&quot;&gt;index&lt;/span&gt;&lt;span style=&quot;background-color: rgb(31, 31, 31); color: rgb(204, 204, 204); font-family: Consolas, 微软雅黑, monospace, Consolas, &amp;quot;Courier New&amp;quot;, monospace;&quot;&gt; &lt;/span&gt;&lt;span style=&quot;font-family: Consolas, 微软雅黑, monospace, Consolas, &amp;quot;Courier New&amp;quot;, monospace; color: rgb(212, 212, 212);&quot;&gt;&amp;lt;&lt;/span&gt;&lt;span style=&quot;background-color: rgb(31, 31, 31); color: rgb(204, 204, 204); font-family: Consolas, 微软雅黑, monospace, Consolas, &amp;quot;Courier New&amp;quot;, monospace;&quot;&gt; (&lt;/span&gt;&lt;span style=&quot;font-family: Consolas, 微软雅黑, monospace, Consolas, &amp;quot;Courier New&amp;quot;, monospace; color: rgb(86, 156, 214);&quot;&gt;this&lt;/span&gt;&lt;span style=&quot;background-color: rgb(31, 31, 31); color: rgb(204, 204, 204); font-family: Consolas, 微软雅黑, monospace, Consolas, &amp;quot;Courier New&amp;quot;, monospace;&quot;&gt;-&amp;gt;&lt;/span&gt;&lt;span style=&quot;font-family: Consolas, 微软雅黑, monospace, Consolas, &amp;quot;Courier New&amp;quot;, monospace; color: rgb(220, 220, 170);&quot;&gt;size&lt;/span&gt;&lt;span style=&quot;background-color: rgb(31, 31, 31); color: rgb(204, 204, 204); font-family: Consolas, 微软雅黑, monospace, Consolas, &amp;quot;Courier New&amp;quot;, monospace;&quot;&gt;() &lt;/span&gt;&lt;span style=&quot;font-family: Consolas, 微软雅黑, monospace, Consolas, &amp;quot;Courier New&amp;quot;, monospace; color: rgb(212, 212, 212);&quot;&gt;&amp;gt;&amp;gt;&lt;/span&gt;&lt;span style=&quot;background-color: rgb(31, 31, 31); color: rgb(204, 204, 204); font-family: Consolas, 微软雅黑, monospace, Consolas, &amp;quot;Courier New&amp;quot;, monospace;&quot;&gt; &lt;/span&gt;&lt;span style=&quot;font-family: Consolas, 微软雅黑, monospace, Consolas, &amp;quot;Courier New&amp;quot;, monospace; color: rgb(181, 206, 168);&quot;&gt;1&lt;/span&gt;&lt;span style=&quot;background-color: rgb(31, 31, 31); color: rgb(204, 204, 204); font-family: Consolas, 微软雅黑, monospace, Consolas, &amp;quot;Courier New&amp;quot;, monospace;&quot;&gt;)&lt;/span&gt;&lt;/font&gt;&lt;/div&gt;&lt;font style=&quot;font-size: 30px;&quot;&gt;&lt;div style=&quot;text-align: left;&quot;&gt;&lt;span style=&quot;background-color: rgb(31, 31, 31); color: rgb(204, 204, 204); font-family: Consolas, 微软雅黑, monospace, Consolas, &amp;quot;Courier New&amp;quot;, monospace;&quot;&gt;即插入点之前元素较少的情况。&lt;/span&gt;&lt;/div&gt;&lt;/font&gt;" style="text;html=1;strokeColor=none;fillColor=none;align=center;verticalAlign=middle;whiteSpace=wrap;rounded=0;fontSize=35;" parent="1" vertex="1"><mxGeometry x="-1000" y="-60" width="580" height="80" as="geometry"/></mxCell><mxCell id="77" value="&lt;font style=&quot;font-size: 18px;&quot;&gt;&lt;div style=&quot;color: rgb(204, 204, 204); background-color: rgb(31, 31, 31); font-family: Consolas, 微软雅黑, monospace, Consolas, &amp;quot;Courier New&amp;quot;, monospace; font-size: 14px; line-height: 19px;&quot;&gt;&lt;div&gt;&lt;span style=&quot;color: #6a9955;&quot;&gt;/**&lt;/span&gt;&lt;/div&gt;&lt;div&gt;&lt;span style=&quot;color: #6a9955;&quot;&gt;&amp;nbsp; * 调用 push_front 将当前容器内第一个元素的值插入，&lt;/span&gt;&lt;/div&gt;&lt;div&gt;&lt;span style=&quot;color: #6a9955;&quot;&gt;&amp;nbsp; * 这通常会触发 push_front_aux()&amp;nbsp;&lt;/span&gt;&lt;/div&gt;&lt;div&gt;&lt;span style=&quot;color: #6a9955;&quot;&gt;&amp;nbsp; * 甚至 reserve_map_at_front() 操作，往前面增加缓冲区。&lt;/span&gt;&lt;/div&gt;&lt;div&gt;&lt;span style=&quot;color: #6a9955;&quot;&gt;*/&lt;/span&gt;&lt;/div&gt;&lt;/div&gt;&lt;span style=&quot;font-family: Consolas, 微软雅黑, monospace, Consolas, &amp;quot;Courier New&amp;quot;, monospace; color: rgb(86, 156, 214);&quot;&gt;this&lt;/span&gt;&lt;span style=&quot;background-color: rgb(31, 31, 31); color: rgb(204, 204, 204); font-family: Consolas, 微软雅黑, monospace, Consolas, &amp;quot;Courier New&amp;quot;, monospace;&quot;&gt;-&amp;gt;&lt;/span&gt;&lt;span style=&quot;font-family: Consolas, 微软雅黑, monospace, Consolas, &amp;quot;Courier New&amp;quot;, monospace; color: rgb(220, 220, 170);&quot;&gt;push_front&lt;/span&gt;&lt;span style=&quot;background-color: rgb(31, 31, 31); color: rgb(204, 204, 204); font-family: Consolas, 微软雅黑, monospace, Consolas, &amp;quot;Courier New&amp;quot;, monospace;&quot;&gt;(&lt;/span&gt;&lt;span style=&quot;font-family: Consolas, 微软雅黑, monospace, Consolas, &amp;quot;Courier New&amp;quot;, monospace; color: rgb(86, 156, 214);&quot;&gt;this&lt;/span&gt;&lt;span style=&quot;background-color: rgb(31, 31, 31); color: rgb(204, 204, 204); font-family: Consolas, 微软雅黑, monospace, Consolas, &amp;quot;Courier New&amp;quot;, monospace;&quot;&gt;-&amp;gt;&lt;/span&gt;&lt;span style=&quot;font-family: Consolas, 微软雅黑, monospace, Consolas, &amp;quot;Courier New&amp;quot;, monospace; color: rgb(220, 220, 170);&quot;&gt;front&lt;/span&gt;&lt;span style=&quot;background-color: rgb(31, 31, 31); color: rgb(204, 204, 204); font-family: Consolas, 微软雅黑, monospace, Consolas, &amp;quot;Courier New&amp;quot;, monospace;&quot;&gt;());&lt;/span&gt;&lt;/font&gt;" style="text;html=1;strokeColor=none;fillColor=none;align=left;verticalAlign=middle;whiteSpace=wrap;rounded=0;fontSize=30;" parent="1" vertex="1"><mxGeometry x="-1000" y="110" width="420" height="120" as="geometry"/></mxCell><mxCell id="78" value="" style="curved=1;endArrow=classic;html=1;fontSize=18;exitX=0.25;exitY=0;exitDx=0;exitDy=0;entryX=0.25;entryY=1;entryDx=0;entryDy=0;strokeColor=#FFFFFF;" parent="1" source="36" target="67" edge="1"><mxGeometry width="50" height="50" relative="1" as="geometry"><mxPoint x="-842.5" y="550" as="sourcePoint"/><mxPoint x="-792.5" y="500" as="targetPoint"/><Array as="points"><mxPoint x="-792.5" y="550"/><mxPoint x="-992.5" y="370"/></Array></mxGeometry></mxCell><mxCell id="79" value="" style="curved=1;endArrow=classic;html=1;fontSize=18;exitX=0.432;exitY=-0.075;exitDx=0;exitDy=0;exitPerimeter=0;" parent="1" source="37" edge="1"><mxGeometry width="50" height="50" relative="1" as="geometry"><mxPoint x="-790" y="570" as="sourcePoint"/><mxPoint x="-640" y="290" as="targetPoint"/><Array as="points"><mxPoint x="-790" y="430"/><mxPoint x="-610" y="380"/></Array></mxGeometry></mxCell><mxCell id="81" value="" style="curved=1;endArrow=classic;html=1;fontSize=18;exitX=0.75;exitY=0;exitDx=0;exitDy=0;entryX=0.25;entryY=1;entryDx=0;entryDy=0;" parent="1" source="38" target="74" edge="1"><mxGeometry width="50" height="50" relative="1" as="geometry"><mxPoint x="-700" y="530" as="sourcePoint"/><mxPoint x="-650" y="480" as="targetPoint"/><Array as="points"><mxPoint x="-560" y="520"/><mxPoint x="-720" y="380"/></Array></mxGeometry></mxCell><mxCell id="82" value="&lt;b&gt;&lt;font style=&quot;font-size: 25px;&quot;&gt;1&lt;/font&gt;&lt;/b&gt;" style="rounded=0;whiteSpace=wrap;html=1;fontSize=18;" parent="1" vertex="1"><mxGeometry x="-1000" y="60" width="40" height="40" as="geometry"/></mxCell><mxCell id="84" value="&lt;font style=&quot;font-size: 15px;&quot;&gt;copy value to&lt;/font&gt;" style="text;html=1;strokeColor=none;fillColor=none;align=center;verticalAlign=middle;whiteSpace=wrap;rounded=0;fontSize=25;rotation=-5;fontStyle=1;" parent="1" vertex="1"><mxGeometry x="-620" y="249.86" width="99.12" height="20.14" as="geometry"/></mxCell><mxCell id="85" value="" style="endArrow=classic;html=1;fontSize=15;" parent="1" source="19" target="74" edge="1"><mxGeometry width="50" height="50" relative="1" as="geometry"><mxPoint x="-600" y="290" as="sourcePoint"/><mxPoint x="-550" y="240" as="targetPoint"/></mxGeometry></mxCell><mxCell id="86" value="" style="rounded=0;whiteSpace=wrap;html=1;" parent="1" vertex="1"><mxGeometry x="-205" y="1400" width="50" height="40" as="geometry"/></mxCell><mxCell id="87" value="" style="rounded=0;whiteSpace=wrap;html=1;fillColor=#1ba1e2;fontColor=#ffffff;strokeColor=#006EAF;" parent="1" vertex="1"><mxGeometry x="-155" y="1400" width="50" height="40" as="geometry"/></mxCell><mxCell id="88" value="" style="rounded=0;whiteSpace=wrap;html=1;strokeWidth=3;fillColor=#1ba1e2;fontColor=#ffffff;strokeColor=#006EAF;" parent="1" vertex="1"><mxGeometry x="-105" y="1400" width="50" height="40" as="geometry"/></mxCell><mxCell id="89" value="" style="rounded=0;whiteSpace=wrap;html=1;fillColor=#1ba1e2;fontColor=#ffffff;strokeColor=#006EAF;strokeWidth=3;" parent="1" vertex="1"><mxGeometry x="-55" y="1400" width="50" height="40" as="geometry"/></mxCell><mxCell id="90" value="" style="rounded=0;whiteSpace=wrap;html=1;strokeWidth=3;fillColor=#1ba1e2;fontColor=#ffffff;strokeColor=#006EAF;" parent="1" vertex="1"><mxGeometry x="-5" y="1400" width="50" height="40" as="geometry"/></mxCell><mxCell id="91" value="" style="rounded=0;whiteSpace=wrap;html=1;" parent="1" vertex="1"><mxGeometry x="45" y="1400" width="50" height="40" as="geometry"/></mxCell><mxCell id="92" value="" style="rounded=0;whiteSpace=wrap;html=1;" parent="1" vertex="1"><mxGeometry x="95" y="1400" width="50" height="40" as="geometry"/></mxCell><mxCell id="93" value="" style="rounded=0;whiteSpace=wrap;html=1;" parent="1" vertex="1"><mxGeometry x="145" y="1400" width="50" height="40" as="geometry"/></mxCell><mxCell id="94" value="&lt;div style=&quot;color: rgb(204, 204, 204); background-color: rgb(31, 31, 31); font-family: Consolas, 微软雅黑, monospace, Consolas, &amp;quot;Courier New&amp;quot;, monospace; font-size: 14px; line-height: 19px;&quot;&gt;&lt;span style=&quot;color: #4ec9b0;&quot;&gt;&lt;b&gt;map_pointer&lt;/b&gt;&lt;/span&gt; &lt;span style=&quot;color: #9cdcfe;&quot;&gt;map&lt;/span&gt;&lt;/div&gt;" style="text;html=1;strokeColor=default;fillColor=none;align=center;verticalAlign=middle;whiteSpace=wrap;rounded=0;dashed=1;dashPattern=1 4;" parent="1" vertex="1"><mxGeometry x="-320" y="1480" width="120" height="30" as="geometry"/></mxCell><mxCell id="95" value="" style="endArrow=classic;html=1;entryX=0;entryY=1;entryDx=0;entryDy=0;exitX=0.75;exitY=0;exitDx=0;exitDy=0;" parent="1" source="94" target="86" edge="1"><mxGeometry width="50" height="50" relative="1" as="geometry"><mxPoint x="-275" y="1470" as="sourcePoint"/><mxPoint x="-225" y="1420" as="targetPoint"/></mxGeometry></mxCell><mxCell id="96" value="" style="curved=1;endArrow=classic;html=1;entryX=0;entryY=1;entryDx=0;entryDy=0;strokeWidth=2;" parent="1" source="88" target="99" edge="1"><mxGeometry width="50" height="50" relative="1" as="geometry"><mxPoint x="-195" y="1310" as="sourcePoint"/><mxPoint x="-265" y="1180" as="targetPoint"/><Array as="points"><mxPoint x="-125" y="1330"/><mxPoint x="-285" y="1270"/></Array></mxGeometry></mxCell><mxCell id="97" value="&lt;div style=&quot;color: rgb(204, 204, 204); background-color: rgb(31, 31, 31); font-family: Consolas, 微软雅黑, monospace, Consolas, &amp;quot;Courier New&amp;quot;, monospace; font-size: 14px; line-height: 19px;&quot;&gt;&lt;span style=&quot;color: #4ec9b0;&quot;&gt;&lt;b&gt;iterator&lt;/b&gt;&lt;/span&gt; &lt;span style=&quot;color: #9cdcfe;&quot;&gt;start&lt;/span&gt;&lt;/div&gt;" style="text;html=1;strokeColor=default;fillColor=none;align=center;verticalAlign=middle;whiteSpace=wrap;rounded=0;dashed=1;dashPattern=1 4;strokeWidth=1;" parent="1" vertex="1"><mxGeometry x="-835" y="1520" width="110" height="20" as="geometry"/></mxCell><mxCell id="98" value="&lt;div style=&quot;color: rgb(204, 204, 204); background-color: rgb(31, 31, 31); font-family: Consolas, 微软雅黑, monospace, Consolas, &amp;quot;Courier New&amp;quot;, monospace; font-size: 14px; line-height: 19px;&quot;&gt;&lt;span style=&quot;color: #4ec9b0;&quot;&gt;&lt;b&gt;iterator&lt;/b&gt;&lt;/span&gt; &lt;span style=&quot;color: #9cdcfe;&quot;&gt;finish&lt;/span&gt;&lt;/div&gt;" style="text;html=1;strokeColor=default;fillColor=none;align=center;verticalAlign=middle;whiteSpace=wrap;rounded=0;dashed=1;dashPattern=1 4;strokeWidth=1;" parent="1" vertex="1"><mxGeometry x="115" y="1610" width="120" height="20" as="geometry"/></mxCell><mxCell id="99" value="" style="rounded=0;whiteSpace=wrap;html=1;strokeColor=default;strokeWidth=1;" parent="1" vertex="1"><mxGeometry x="-365" y="1150" width="320" height="30" as="geometry"/></mxCell><mxCell id="100" value="" style="rounded=0;whiteSpace=wrap;html=1;strokeColor=#2D7600;strokeWidth=1;fillColor=#60a917;fontColor=#ffffff;" parent="1" vertex="1"><mxGeometry x="-5" y="1120" width="320" height="30" as="geometry"/></mxCell><mxCell id="101" value="" style="curved=1;endArrow=classic;html=1;entryX=0;entryY=1;entryDx=0;entryDy=0;strokeWidth=2;" parent="1" target="100" edge="1"><mxGeometry width="50" height="50" relative="1" as="geometry"><mxPoint x="-35" y="1400" as="sourcePoint"/><mxPoint x="-45" y="1130" as="targetPoint"/><Array as="points"><mxPoint x="-55" y="1380"/><mxPoint x="-65" y="1340"/><mxPoint x="75" y="1240"/></Array></mxGeometry></mxCell><mxCell id="102" value="" style="curved=1;endArrow=classic;html=1;entryX=0;entryY=1;entryDx=0;entryDy=0;strokeWidth=2;" parent="1" edge="1"><mxGeometry width="50" height="50" relative="1" as="geometry"><mxPoint x="15" y="1400" as="sourcePoint"/><mxPoint x="105" y="1210" as="targetPoint"/><Array as="points"><mxPoint x="105" y="1340"/><mxPoint x="115" y="1270"/></Array></mxGeometry></mxCell><mxCell id="103" value="" style="rounded=0;whiteSpace=wrap;html=1;strokeColor=#2D7600;strokeWidth=1;fillColor=#60a917;fontColor=#ffffff;" parent="1" vertex="1"><mxGeometry x="-365" y="1150" width="40" height="30" as="geometry"/></mxCell><mxCell id="104" value="" style="rounded=0;whiteSpace=wrap;html=1;strokeColor=#2D7600;strokeWidth=1;fillColor=#60a917;fontColor=#ffffff;" parent="1" vertex="1"><mxGeometry x="-325" y="1150" width="40" height="30" as="geometry"/></mxCell><mxCell id="105" value="" style="rounded=0;whiteSpace=wrap;html=1;strokeColor=#2D7600;strokeWidth=1;fillColor=#60a917;fontColor=#ffffff;" parent="1" vertex="1"><mxGeometry x="-285" y="1150" width="40" height="30" as="geometry"/></mxCell><mxCell id="106" value="" style="rounded=0;whiteSpace=wrap;html=1;strokeColor=#C73500;strokeWidth=1;fillColor=#fa6800;fontColor=#000000;" parent="1" vertex="1"><mxGeometry x="-245" y="1150" width="40" height="30" as="geometry"/></mxCell><mxCell id="107" value="" style="rounded=0;whiteSpace=wrap;html=1;strokeColor=#2D7600;strokeWidth=1;fillColor=#60a917;fontColor=#ffffff;" parent="1" vertex="1"><mxGeometry x="-205" y="1150" width="40" height="30" as="geometry"/></mxCell><mxCell id="108" value="" style="rounded=0;whiteSpace=wrap;html=1;strokeColor=#2D7600;strokeWidth=1;fillColor=#60a917;fontColor=#ffffff;" parent="1" vertex="1"><mxGeometry x="-165" y="1150" width="40" height="30" as="geometry"/></mxCell><mxCell id="109" value="" style="rounded=0;whiteSpace=wrap;html=1;strokeColor=#2D7600;strokeWidth=1;fillColor=#60a917;fontColor=#ffffff;" parent="1" vertex="1"><mxGeometry x="-125" y="1150" width="40" height="30" as="geometry"/></mxCell><mxCell id="110" value="" style="rounded=0;whiteSpace=wrap;html=1;strokeColor=#2D7600;strokeWidth=1;fillColor=#60a917;fontColor=#ffffff;" parent="1" vertex="1"><mxGeometry x="-85" y="1150" width="40" height="30" as="geometry"/></mxCell><mxCell id="111" value="" style="rounded=0;whiteSpace=wrap;html=1;strokeColor=#2D7600;strokeWidth=1;fillColor=#60a917;fontColor=#ffffff;" parent="1" vertex="1"><mxGeometry x="-5" y="1120" width="320" height="30" as="geometry"/></mxCell><mxCell id="112" value="" style="rounded=0;whiteSpace=wrap;html=1;strokeColor=#2D7600;strokeWidth=1;fillColor=#60a917;fontColor=#ffffff;" parent="1" vertex="1"><mxGeometry x="-5" y="1120" width="40" height="30" as="geometry"/></mxCell><mxCell id="113" value="" style="rounded=0;whiteSpace=wrap;html=1;strokeColor=#2D7600;strokeWidth=1;fillColor=#60a917;fontColor=#ffffff;" parent="1" vertex="1"><mxGeometry x="35" y="1120" width="40" height="30" as="geometry"/></mxCell><mxCell id="114" value="" style="rounded=0;whiteSpace=wrap;html=1;strokeColor=#2D7600;strokeWidth=1;fillColor=#60a917;fontColor=#ffffff;" parent="1" vertex="1"><mxGeometry x="75" y="1120" width="40" height="30" as="geometry"/></mxCell><mxCell id="115" value="" style="rounded=0;whiteSpace=wrap;html=1;strokeColor=#2D7600;strokeWidth=1;fillColor=#60a917;fontColor=#ffffff;" parent="1" vertex="1"><mxGeometry x="115" y="1120" width="40" height="30" as="geometry"/></mxCell><mxCell id="116" value="" style="rounded=0;whiteSpace=wrap;html=1;strokeColor=#2D7600;strokeWidth=1;fillColor=#60a917;fontColor=#ffffff;" parent="1" vertex="1"><mxGeometry x="155" y="1120" width="40" height="30" as="geometry"/></mxCell><mxCell id="117" value="" style="rounded=0;whiteSpace=wrap;html=1;strokeColor=#2D7600;strokeWidth=1;fillColor=#60a917;fontColor=#ffffff;" parent="1" vertex="1"><mxGeometry x="195" y="1120" width="40" height="30" as="geometry"/></mxCell><mxCell id="118" value="" style="rounded=0;whiteSpace=wrap;html=1;strokeColor=#2D7600;strokeWidth=1;fillColor=#60a917;fontColor=#ffffff;" parent="1" vertex="1"><mxGeometry x="235" y="1120" width="40" height="30" as="geometry"/></mxCell><mxCell id="119" value="" style="rounded=0;whiteSpace=wrap;html=1;strokeColor=#2D7600;strokeWidth=1;fillColor=#60a917;fontColor=#ffffff;" parent="1" vertex="1"><mxGeometry x="275" y="1120" width="40" height="30" as="geometry"/></mxCell><mxCell id="120" value="&lt;div style=&quot;color: rgb(204, 204, 204); background-color: rgb(31, 31, 31); font-family: Consolas, 微软雅黑, monospace, Consolas, &amp;quot;Courier New&amp;quot;, monospace; font-size: 14px; line-height: 19px;&quot;&gt;&lt;span style=&quot;color: #4ec9b0;&quot;&gt;Type&lt;/span&gt;&lt;span style=&quot;color: #d4d4d4;&quot;&gt;*&lt;/span&gt; &lt;span style=&quot;color: #9cdcfe;&quot;&gt;first&lt;/span&gt;&lt;/div&gt;" style="rounded=0;whiteSpace=wrap;html=1;strokeColor=default;strokeWidth=1;" parent="1" vertex="1"><mxGeometry x="-835" y="1480" width="110" height="30" as="geometry"/></mxCell><mxCell id="121" style="edgeStyle=none;html=1;fontSize=18;" parent="1" source="122" edge="1"><mxGeometry relative="1" as="geometry"><mxPoint x="-675" y="1480" as="targetPoint"/></mxGeometry></mxCell><mxCell id="122" value="&lt;div style=&quot;color: rgb(204, 204, 204); background-color: rgb(31, 31, 31); font-family: Consolas, 微软雅黑, monospace, Consolas, &amp;quot;Courier New&amp;quot;, monospace; font-size: 14px; line-height: 19px;&quot;&gt;&lt;span style=&quot;color: #4ec9b0;&quot;&gt;Type&lt;/span&gt;&lt;span style=&quot;color: #d4d4d4;&quot;&gt;*&lt;/span&gt; &lt;span style=&quot;color: #9cdcfe;&quot;&gt;last&lt;/span&gt;&lt;/div&gt;" style="rounded=0;whiteSpace=wrap;html=1;strokeColor=default;strokeWidth=1;" parent="1" vertex="1"><mxGeometry x="-725" y="1480" width="110" height="30" as="geometry"/></mxCell><mxCell id="123" value="&lt;div style=&quot;color: rgb(204, 204, 204); background-color: rgb(31, 31, 31); font-family: Consolas, 微软雅黑, monospace, Consolas, &amp;quot;Courier New&amp;quot;, monospace; font-size: 14px; line-height: 19px;&quot;&gt;&lt;span style=&quot;color: #4ec9b0;&quot;&gt;Type&lt;/span&gt;&lt;span style=&quot;color: #d4d4d4;&quot;&gt;*&lt;/span&gt; &lt;span style=&quot;color: #9cdcfe;&quot;&gt;current&lt;/span&gt;&lt;/div&gt;" style="rounded=0;whiteSpace=wrap;html=1;strokeColor=default;strokeWidth=1;" parent="1" vertex="1"><mxGeometry x="-615" y="1480" width="120" height="30" as="geometry"/></mxCell><mxCell id="124" value="&lt;div style=&quot;color: rgb(204, 204, 204); background-color: rgb(31, 31, 31); font-family: Consolas, 微软雅黑, monospace, Consolas, &amp;quot;Courier New&amp;quot;, monospace; font-size: 14px; line-height: 19px;&quot;&gt;&lt;span style=&quot;color: #4ec9b0;&quot;&gt;map_pointer&lt;/span&gt; &lt;span style=&quot;color: #9cdcfe;&quot;&gt;node&lt;/span&gt;&lt;/div&gt;" style="rounded=0;whiteSpace=wrap;html=1;strokeColor=default;strokeWidth=1;" parent="1" vertex="1"><mxGeometry x="-495" y="1480" width="130" height="30" as="geometry"/></mxCell><mxCell id="125" value="" style="edgeStyle=elbowEdgeStyle;elbow=vertical;endArrow=classic;html=1;curved=0;rounded=0;endSize=8;startSize=8;exitX=0.75;exitY=1;exitDx=0;exitDy=0;entryX=0.5;entryY=1;entryDx=0;entryDy=0;strokeWidth=2;" parent="1" source="124" target="87" edge="1"><mxGeometry width="50" height="50" relative="1" as="geometry"><mxPoint x="-455" y="1590" as="sourcePoint"/><mxPoint x="-35" y="1590" as="targetPoint"/><Array as="points"><mxPoint x="-255" y="1560"/></Array></mxGeometry></mxCell><mxCell id="126" value="&lt;div style=&quot;color: rgb(204, 204, 204); background-color: rgb(31, 31, 31); font-family: Consolas, 微软雅黑, monospace, Consolas, &amp;quot;Courier New&amp;quot;, monospace; font-size: 14px; line-height: 19px;&quot;&gt;&lt;span style=&quot;color: #4ec9b0;&quot;&gt;Type&lt;/span&gt;&lt;span style=&quot;color: #d4d4d4;&quot;&gt;*&lt;/span&gt; &lt;span style=&quot;color: #9cdcfe;&quot;&gt;first&lt;/span&gt;&lt;/div&gt;" style="rounded=0;whiteSpace=wrap;html=1;strokeColor=default;strokeWidth=1;" parent="1" vertex="1"><mxGeometry x="115" y="1570" width="110" height="30" as="geometry"/></mxCell><mxCell id="127" value="&lt;div style=&quot;color: rgb(204, 204, 204); background-color: rgb(31, 31, 31); font-family: Consolas, 微软雅黑, monospace, Consolas, &amp;quot;Courier New&amp;quot;, monospace; font-size: 14px; line-height: 19px;&quot;&gt;&lt;span style=&quot;color: #4ec9b0;&quot;&gt;Type&lt;/span&gt;&lt;span style=&quot;color: #d4d4d4;&quot;&gt;*&lt;/span&gt; &lt;span style=&quot;color: #9cdcfe;&quot;&gt;last&lt;/span&gt;&lt;/div&gt;" style="rounded=0;whiteSpace=wrap;html=1;strokeColor=default;strokeWidth=1;" parent="1" vertex="1"><mxGeometry x="225" y="1570" width="110" height="30" as="geometry"/></mxCell><mxCell id="128" value="&lt;div style=&quot;color: rgb(204, 204, 204); background-color: rgb(31, 31, 31); font-family: Consolas, 微软雅黑, monospace, Consolas, &amp;quot;Courier New&amp;quot;, monospace; font-size: 14px; line-height: 19px;&quot;&gt;&lt;span style=&quot;color: #4ec9b0;&quot;&gt;Type&lt;/span&gt;&lt;span style=&quot;color: #d4d4d4;&quot;&gt;*&lt;/span&gt; &lt;span style=&quot;color: #9cdcfe;&quot;&gt;current&lt;/span&gt;&lt;/div&gt;" style="rounded=0;whiteSpace=wrap;html=1;strokeColor=default;strokeWidth=1;" parent="1" vertex="1"><mxGeometry x="335" y="1570" width="120" height="30" as="geometry"/></mxCell><mxCell id="129" value="&lt;div style=&quot;color: rgb(204, 204, 204); background-color: rgb(31, 31, 31); font-family: Consolas, 微软雅黑, monospace, Consolas, &amp;quot;Courier New&amp;quot;, monospace; font-size: 14px; line-height: 19px;&quot;&gt;&lt;span style=&quot;color: #4ec9b0;&quot;&gt;map_pointer&lt;/span&gt; &lt;span style=&quot;color: #9cdcfe;&quot;&gt;node&lt;/span&gt;&lt;/div&gt;" style="rounded=0;whiteSpace=wrap;html=1;strokeColor=default;strokeWidth=1;" parent="1" vertex="1"><mxGeometry x="455" y="1570" width="130" height="30" as="geometry"/></mxCell><mxCell id="130" value="" style="edgeStyle=elbowEdgeStyle;elbow=vertical;endArrow=classic;html=1;curved=0;rounded=0;endSize=8;startSize=8;strokeWidth=2;exitX=0.25;exitY=0;exitDx=0;exitDy=0;entryX=0.5;entryY=1;entryDx=0;entryDy=0;" parent="1" target="90" edge="1"><mxGeometry width="50" height="50" relative="1" as="geometry"><mxPoint x="487.49999999999955" y="1570" as="sourcePoint"/><mxPoint x="20" y="1450" as="targetPoint"/><Array as="points"><mxPoint x="275" y="1510"/></Array></mxGeometry></mxCell><mxCell id="131" value="" style="curved=1;endArrow=classic;html=1;strokeWidth=1;entryX=0.5;entryY=1;entryDx=0;entryDy=0;" parent="1" edge="1"><mxGeometry width="50" height="50" relative="1" as="geometry"><mxPoint x="165" y="1570" as="sourcePoint"/><mxPoint x="125" y="1210" as="targetPoint"/><Array as="points"><mxPoint x="245" y="1460"/><mxPoint x="185" y="1370"/><mxPoint x="205" y="1290"/></Array></mxGeometry></mxCell><mxCell id="132" value="" style="curved=1;endArrow=classic;html=1;strokeWidth=1;entryX=1;entryY=1;entryDx=0;entryDy=0;" parent="1" edge="1"><mxGeometry width="50" height="50" relative="1" as="geometry"><mxPoint x="275" y="1570" as="sourcePoint"/><mxPoint x="425" y="1210" as="targetPoint"/><Array as="points"><mxPoint x="365" y="1460"/><mxPoint x="355" y="1270"/></Array></mxGeometry></mxCell><mxCell id="133" value="" style="curved=1;endArrow=classic;html=1;strokeWidth=1;entryX=0.75;entryY=1;entryDx=0;entryDy=0;" parent="1" target="139" edge="1"><mxGeometry width="50" height="50" relative="1" as="geometry"><mxPoint x="375" y="1570" as="sourcePoint"/><mxPoint x="365" y="1210" as="targetPoint"/><Array as="points"><mxPoint x="275" y="1480"/><mxPoint x="265" y="1250"/></Array></mxGeometry></mxCell><mxCell id="134" value="" style="rounded=0;whiteSpace=wrap;html=1;strokeColor=default;strokeWidth=1;" parent="1" vertex="1"><mxGeometry x="105" y="1180" width="320" height="30" as="geometry"/></mxCell><mxCell id="135" value="" style="rounded=0;whiteSpace=wrap;html=1;strokeColor=default;strokeWidth=1;" parent="1" vertex="1"><mxGeometry x="105" y="1180" width="320" height="30" as="geometry"/></mxCell><mxCell id="136" value="" style="rounded=0;whiteSpace=wrap;html=1;strokeColor=#2D7600;strokeWidth=1;fillColor=#60a917;fontColor=#ffffff;" parent="1" vertex="1"><mxGeometry x="105" y="1180" width="40" height="30" as="geometry"/></mxCell><mxCell id="137" value="" style="rounded=0;whiteSpace=wrap;html=1;strokeColor=#2D7600;strokeWidth=1;fillColor=#60a917;fontColor=#ffffff;" parent="1" vertex="1"><mxGeometry x="145" y="1180" width="40" height="30" as="geometry"/></mxCell><mxCell id="138" value="" style="rounded=0;whiteSpace=wrap;html=1;strokeColor=#2D7600;strokeWidth=1;fillColor=#60a917;fontColor=#ffffff;" parent="1" vertex="1"><mxGeometry x="185" y="1180" width="40" height="30" as="geometry"/></mxCell><mxCell id="139" value="" style="rounded=0;whiteSpace=wrap;html=1;strokeColor=#2D7600;strokeWidth=1;fillColor=#60a917;fontColor=#ffffff;" parent="1" vertex="1"><mxGeometry x="225" y="1180" width="40" height="30" as="geometry"/></mxCell><mxCell id="140" value="" style="rounded=0;whiteSpace=wrap;html=1;strokeColor=default;strokeWidth=1;" parent="1" vertex="1"><mxGeometry x="265" y="1180" width="40" height="30" as="geometry"/></mxCell><mxCell id="141" value="" style="rounded=0;whiteSpace=wrap;html=1;strokeColor=default;strokeWidth=1;" parent="1" vertex="1"><mxGeometry x="305" y="1180" width="40" height="30" as="geometry"/></mxCell><mxCell id="142" value="" style="rounded=0;whiteSpace=wrap;html=1;strokeColor=default;strokeWidth=1;" parent="1" vertex="1"><mxGeometry x="345" y="1180" width="40" height="30" as="geometry"/></mxCell><mxCell id="143" value="" style="rounded=0;whiteSpace=wrap;html=1;strokeColor=default;strokeWidth=1;" parent="1" vertex="1"><mxGeometry x="385" y="1180" width="40" height="30" as="geometry"/></mxCell><mxCell id="144" value="" style="endArrow=classic;html=1;entryX=0.5;entryY=0;entryDx=0;entryDy=0;exitX=0.5;exitY=1;exitDx=0;exitDy=0;" parent="1" source="145" target="106" edge="1"><mxGeometry width="50" height="50" relative="1" as="geometry"><mxPoint x="-130" y="1080" as="sourcePoint"/><mxPoint x="-375" y="1040" as="targetPoint"/></mxGeometry></mxCell><mxCell id="145" value="&lt;div style=&quot;color: rgb(204, 204, 204); background-color: rgb(31, 31, 31); font-family: Consolas, 微软雅黑, monospace, Consolas, &amp;quot;Courier New&amp;quot;, monospace; font-size: 14px; line-height: 19px;&quot;&gt;&lt;div style=&quot;line-height: 19px;&quot;&gt;&lt;div style=&quot;line-height: 19px;&quot;&gt;&lt;div style=&quot;line-height: 19px;&quot;&gt;&lt;div&gt;&lt;span style=&quot;color: rgb(106, 153, 85);&quot;&gt;// 重新定位插入点。&lt;/span&gt;&lt;/div&gt;&lt;/div&gt;&lt;/div&gt;&lt;div style=&quot;line-height: 19px;&quot;&gt;&lt;span style=&quot;color: #9cdcfe;&quot;&gt;__pos&lt;/span&gt; &lt;span style=&quot;color: #d4d4d4;&quot;&gt;=&lt;/span&gt; &lt;span style=&quot;color: #569cd6;&quot;&gt;this&lt;/span&gt;-&amp;gt;&lt;span style=&quot;color: #9cdcfe;&quot;&gt;start&lt;/span&gt; &lt;span style=&quot;color: #d4d4d4;&quot;&gt;+&lt;/span&gt; &lt;span style=&quot;color: #9cdcfe;&quot;&gt;index&lt;/span&gt;;&lt;/div&gt;&lt;/div&gt;&lt;div style=&quot;line-height: 19px;&quot;&gt;&lt;span style=&quot;color: #4ec9b0;&quot;&gt;iterator&lt;/span&gt; &lt;span style=&quot;color: #9cdcfe;&quot;&gt;pos_1&lt;/span&gt; &lt;span style=&quot;color: #d4d4d4;&quot;&gt;=&lt;/span&gt; &lt;span style=&quot;color: #9cdcfe;&quot;&gt;__pos;&amp;nbsp;&lt;/span&gt;&lt;span style=&quot;color: rgb(212, 212, 212);&quot;&gt;++&lt;/span&gt;&lt;span style=&quot;color: rgb(156, 220, 254);&quot;&gt;pos_1&lt;/span&gt;&lt;span style=&quot;&quot;&gt;;&lt;/span&gt;&lt;/div&gt;&lt;/div&gt;" style="text;html=1;strokeColor=none;fillColor=none;align=left;verticalAlign=middle;whiteSpace=wrap;rounded=0;" parent="1" vertex="1"><mxGeometry x="-235" y="1050" width="255" height="60" as="geometry"/></mxCell><mxCell id="146" value="" style="rounded=0;whiteSpace=wrap;html=1;strokeColor=default;strokeWidth=1;" parent="1" vertex="1"><mxGeometry x="-875" y="1170" width="320" height="30" as="geometry"/></mxCell><mxCell id="147" value="" style="rounded=0;whiteSpace=wrap;html=1;strokeColor=default;strokeWidth=1;" parent="1" vertex="1"><mxGeometry x="-875" y="1170" width="320" height="30" as="geometry"/></mxCell><mxCell id="148" value="" style="rounded=0;whiteSpace=wrap;html=1;strokeWidth=1;" parent="1" vertex="1"><mxGeometry x="-875" y="1170" width="40" height="30" as="geometry"/></mxCell><mxCell id="149" value="" style="rounded=0;whiteSpace=wrap;html=1;strokeWidth=1;" parent="1" vertex="1"><mxGeometry x="-835" y="1170" width="40" height="30" as="geometry"/></mxCell><mxCell id="150" value="" style="rounded=0;whiteSpace=wrap;html=1;strokeWidth=1;" parent="1" vertex="1"><mxGeometry x="-795" y="1170" width="40" height="30" as="geometry"/></mxCell><mxCell id="151" value="" style="rounded=0;whiteSpace=wrap;html=1;strokeWidth=1;" parent="1" vertex="1"><mxGeometry x="-755" y="1170" width="40" height="30" as="geometry"/></mxCell><mxCell id="152" value="" style="rounded=0;whiteSpace=wrap;html=1;strokeColor=default;strokeWidth=1;" parent="1" vertex="1"><mxGeometry x="-715" y="1170" width="40" height="30" as="geometry"/></mxCell><mxCell id="153" value="" style="rounded=0;whiteSpace=wrap;html=1;strokeColor=default;strokeWidth=1;" parent="1" vertex="1"><mxGeometry x="-675" y="1170" width="40" height="30" as="geometry"/></mxCell><mxCell id="154" value="" style="rounded=0;whiteSpace=wrap;html=1;strokeColor=default;strokeWidth=1;" parent="1" vertex="1"><mxGeometry x="-635" y="1170" width="40" height="30" as="geometry"/></mxCell><mxCell id="155" value="" style="rounded=0;whiteSpace=wrap;html=1;strokeColor=#2D7600;strokeWidth=1;fillColor=#60a917;fontColor=#ffffff;" parent="1" vertex="1"><mxGeometry x="-595" y="1170" width="40" height="30" as="geometry"/></mxCell><mxCell id="157" value="" style="curved=1;endArrow=classic;html=1;fontSize=18;exitX=0.25;exitY=0;exitDx=0;exitDy=0;entryX=0.25;entryY=1;entryDx=0;entryDy=0;" parent="1" source="120" target="148" edge="1"><mxGeometry width="50" height="50" relative="1" as="geometry"><mxPoint x="-805" y="1450" as="sourcePoint"/><mxPoint x="-755" y="1400" as="targetPoint"/><Array as="points"><mxPoint x="-755" y="1450"/><mxPoint x="-955" y="1270"/></Array></mxGeometry></mxCell><mxCell id="158" value="" style="curved=1;endArrow=classic;html=1;fontSize=18;exitX=0.432;exitY=-0.075;exitDx=0;exitDy=0;exitPerimeter=0;" parent="1" source="122" edge="1"><mxGeometry width="50" height="50" relative="1" as="geometry"><mxPoint x="-675" y="1470" as="sourcePoint"/><mxPoint x="-525" y="1190" as="targetPoint"/><Array as="points"><mxPoint x="-675" y="1330"/><mxPoint x="-495" y="1280"/></Array></mxGeometry></mxCell><mxCell id="159" value="" style="curved=1;endArrow=classic;html=1;fontSize=18;exitX=0.75;exitY=0;exitDx=0;exitDy=0;entryX=0.25;entryY=1;entryDx=0;entryDy=0;" parent="1" source="123" target="155" edge="1"><mxGeometry width="50" height="50" relative="1" as="geometry"><mxPoint x="-585" y="1430" as="sourcePoint"/><mxPoint x="-535" y="1380" as="targetPoint"/><Array as="points"><mxPoint x="-445" y="1420"/><mxPoint x="-605" y="1280"/></Array></mxGeometry></mxCell><mxCell id="163" value="" style="curved=1;endArrow=classic;html=1;entryX=0.25;entryY=0;entryDx=0;entryDy=0;strokeWidth=2;exitX=0.75;exitY=1;exitDx=0;exitDy=0;" parent="1" source="171" target="87" edge="1"><mxGeometry width="50" height="50" relative="1" as="geometry"><mxPoint x="-700" y="970" as="sourcePoint"/><mxPoint x="-355" y="1189.9999999999995" as="targetPoint"/><Array as="points"><mxPoint x="-430" y="980"/><mxPoint x="-490" y="1180"/><mxPoint x="-380" y="1300"/><mxPoint x="-280" y="1320"/></Array></mxGeometry></mxCell><mxCell id="165" value="" style="curved=1;endArrow=classic;html=1;entryX=0.25;entryY=0;entryDx=0;entryDy=0;strokeWidth=2;exitX=0.75;exitY=0;exitDx=0;exitDy=0;" parent="1" source="177" edge="1"><mxGeometry width="50" height="50" relative="1" as="geometry"><mxPoint x="-710" y="1070" as="sourcePoint"/><mxPoint x="-132.5" y="1404" as="targetPoint"/><Array as="points"><mxPoint x="-420" y="984"/><mxPoint x="-490" y="1200"/><mxPoint x="-370" y="1304"/><mxPoint x="-270" y="1324"/></Array></mxGeometry></mxCell><mxCell id="166" value="&lt;div style=&quot;background-color: rgb(31, 31, 31); font-family: Consolas, 微软雅黑, monospace, Consolas, &amp;quot;Courier New&amp;quot;, monospace; font-size: 14px; line-height: 19px;&quot;&gt;&lt;span style=&quot;color: rgb(204, 204, 204);&quot;&gt;&lt;span style=&quot;color: #4ec9b0;&quot;&gt;&lt;b&gt;iterator&lt;/b&gt;&lt;/span&gt;&amp;nbsp;&lt;/span&gt;&lt;font color=&quot;#9cdcfe&quot;&gt;front_1&lt;/font&gt;&lt;/div&gt;" style="text;html=1;strokeColor=default;fillColor=none;align=center;verticalAlign=middle;whiteSpace=wrap;rounded=0;dashed=1;dashPattern=1 4;strokeWidth=1;" parent="1" vertex="1"><mxGeometry x="-970" y="980" width="130" height="20" as="geometry"/></mxCell><mxCell id="167" value="&lt;div style=&quot;color: rgb(204, 204, 204); background-color: rgb(31, 31, 31); font-family: Consolas, 微软雅黑, monospace, Consolas, &amp;quot;Courier New&amp;quot;, monospace; font-size: 14px; line-height: 19px;&quot;&gt;&lt;span style=&quot;color: #4ec9b0;&quot;&gt;Type&lt;/span&gt;&lt;span style=&quot;color: #d4d4d4;&quot;&gt;*&lt;/span&gt; &lt;span style=&quot;color: #9cdcfe;&quot;&gt;first&lt;/span&gt;&lt;/div&gt;" style="rounded=0;whiteSpace=wrap;html=1;strokeColor=default;strokeWidth=1;" parent="1" vertex="1"><mxGeometry x="-970" y="1020" width="110" height="30" as="geometry"/></mxCell><mxCell id="169" value="&lt;div style=&quot;color: rgb(204, 204, 204); background-color: rgb(31, 31, 31); font-family: Consolas, 微软雅黑, monospace, Consolas, &amp;quot;Courier New&amp;quot;, monospace; font-size: 14px; line-height: 19px;&quot;&gt;&lt;span style=&quot;color: #4ec9b0;&quot;&gt;Type&lt;/span&gt;&lt;span style=&quot;color: #d4d4d4;&quot;&gt;*&lt;/span&gt; &lt;span style=&quot;color: #9cdcfe;&quot;&gt;last&lt;/span&gt;&lt;/div&gt;" style="rounded=0;whiteSpace=wrap;html=1;strokeColor=default;strokeWidth=1;" parent="1" vertex="1"><mxGeometry x="-860" y="1020" width="110" height="30" as="geometry"/></mxCell><mxCell id="170" value="&lt;div style=&quot;color: rgb(204, 204, 204); background-color: rgb(31, 31, 31); font-family: Consolas, 微软雅黑, monospace, Consolas, &amp;quot;Courier New&amp;quot;, monospace; font-size: 14px; line-height: 19px;&quot;&gt;&lt;span style=&quot;color: #4ec9b0;&quot;&gt;Type&lt;/span&gt;&lt;span style=&quot;color: #d4d4d4;&quot;&gt;*&lt;/span&gt; &lt;span style=&quot;color: #9cdcfe;&quot;&gt;current&lt;/span&gt;&lt;/div&gt;" style="rounded=0;whiteSpace=wrap;html=1;strokeColor=default;strokeWidth=1;" parent="1" vertex="1"><mxGeometry x="-750" y="1020" width="120" height="30" as="geometry"/></mxCell><mxCell id="171" value="&lt;div style=&quot;color: rgb(204, 204, 204); background-color: rgb(31, 31, 31); font-family: Consolas, 微软雅黑, monospace, Consolas, &amp;quot;Courier New&amp;quot;, monospace; font-size: 14px; line-height: 19px;&quot;&gt;&lt;span style=&quot;color: #4ec9b0;&quot;&gt;map_pointer&lt;/span&gt; &lt;span style=&quot;color: #9cdcfe;&quot;&gt;node&lt;/span&gt;&lt;/div&gt;" style="rounded=0;whiteSpace=wrap;html=1;strokeColor=default;strokeWidth=1;" parent="1" vertex="1"><mxGeometry x="-630" y="1020" width="130" height="30" as="geometry"/></mxCell><mxCell id="172" value="&lt;div style=&quot;background-color: rgb(31, 31, 31); font-family: Consolas, 微软雅黑, monospace, Consolas, &amp;quot;Courier New&amp;quot;, monospace; font-size: 14px; line-height: 19px;&quot;&gt;&lt;span style=&quot;color: rgb(204, 204, 204);&quot;&gt;&lt;span style=&quot;color: #4ec9b0;&quot;&gt;&lt;b&gt;iterator&lt;/b&gt;&lt;/span&gt;&amp;nbsp;&lt;/span&gt;&lt;font color=&quot;#9cdcfe&quot;&gt;front_2&lt;/font&gt;&lt;/div&gt;" style="text;html=1;strokeColor=default;fillColor=none;align=center;verticalAlign=middle;whiteSpace=wrap;rounded=0;dashed=1;dashPattern=1 4;strokeWidth=1;" parent="1" vertex="1"><mxGeometry x="-445" y="900" width="130" height="20" as="geometry"/></mxCell><mxCell id="173" value="&lt;div style=&quot;color: rgb(204, 204, 204); background-color: rgb(31, 31, 31); font-family: Consolas, 微软雅黑, monospace, Consolas, &amp;quot;Courier New&amp;quot;, monospace; font-size: 14px; line-height: 19px;&quot;&gt;&lt;span style=&quot;color: #4ec9b0;&quot;&gt;Type&lt;/span&gt;&lt;span style=&quot;color: #d4d4d4;&quot;&gt;*&lt;/span&gt; &lt;span style=&quot;color: #9cdcfe;&quot;&gt;first&lt;/span&gt;&lt;/div&gt;" style="rounded=0;whiteSpace=wrap;html=1;strokeColor=default;strokeWidth=1;" parent="1" vertex="1"><mxGeometry x="-445" y="940" width="110" height="30" as="geometry"/></mxCell><mxCell id="174" style="edgeStyle=none;html=1;fontSize=18;" parent="1" source="175" edge="1"><mxGeometry relative="1" as="geometry"><mxPoint x="-285.0000000000002" y="940" as="targetPoint"/></mxGeometry></mxCell><mxCell id="175" value="&lt;div style=&quot;color: rgb(204, 204, 204); background-color: rgb(31, 31, 31); font-family: Consolas, 微软雅黑, monospace, Consolas, &amp;quot;Courier New&amp;quot;, monospace; font-size: 14px; line-height: 19px;&quot;&gt;&lt;span style=&quot;color: #4ec9b0;&quot;&gt;Type&lt;/span&gt;&lt;span style=&quot;color: #d4d4d4;&quot;&gt;*&lt;/span&gt; &lt;span style=&quot;color: #9cdcfe;&quot;&gt;last&lt;/span&gt;&lt;/div&gt;" style="rounded=0;whiteSpace=wrap;html=1;strokeColor=default;strokeWidth=1;" parent="1" vertex="1"><mxGeometry x="-335" y="940" width="110" height="30" as="geometry"/></mxCell><mxCell id="176" value="&lt;div style=&quot;color: rgb(204, 204, 204); background-color: rgb(31, 31, 31); font-family: Consolas, 微软雅黑, monospace, Consolas, &amp;quot;Courier New&amp;quot;, monospace; font-size: 14px; line-height: 19px;&quot;&gt;&lt;span style=&quot;color: #4ec9b0;&quot;&gt;Type&lt;/span&gt;&lt;span style=&quot;color: #d4d4d4;&quot;&gt;*&lt;/span&gt; &lt;span style=&quot;color: #9cdcfe;&quot;&gt;current&lt;/span&gt;&lt;/div&gt;" style="rounded=0;whiteSpace=wrap;html=1;strokeColor=default;strokeWidth=1;" parent="1" vertex="1"><mxGeometry x="-225" y="940" width="120" height="30" as="geometry"/></mxCell><mxCell id="177" value="&lt;div style=&quot;color: rgb(204, 204, 204); background-color: rgb(31, 31, 31); font-family: Consolas, 微软雅黑, monospace, Consolas, &amp;quot;Courier New&amp;quot;, monospace; font-size: 14px; line-height: 19px;&quot;&gt;&lt;span style=&quot;color: #4ec9b0;&quot;&gt;map_pointer&lt;/span&gt; &lt;span style=&quot;color: #9cdcfe;&quot;&gt;node&lt;/span&gt;&lt;/div&gt;" style="rounded=0;whiteSpace=wrap;html=1;strokeColor=default;strokeWidth=1;" parent="1" vertex="1"><mxGeometry x="-105" y="940" width="130" height="30" as="geometry"/></mxCell><mxCell id="179" value="" style="curved=1;endArrow=classic;html=1;strokeWidth=1;fontSize=15;exitX=0.5;exitY=1;exitDx=0;exitDy=0;entryX=0.25;entryY=0;entryDx=0;entryDy=0;" parent="1" source="170" target="103" edge="1"><mxGeometry width="50" height="50" relative="1" as="geometry"><mxPoint x="-580" y="1130" as="sourcePoint"/><mxPoint x="-530" y="1080" as="targetPoint"/><Array as="points"><mxPoint x="-550" y="1080"/><mxPoint x="-530" y="1140"/><mxPoint x="-350" y="1070"/></Array></mxGeometry></mxCell><mxCell id="180" value="" style="curved=1;endArrow=classic;html=1;strokeWidth=1;fontSize=15;exitX=0.75;exitY=1;exitDx=0;exitDy=0;entryX=0.75;entryY=0;entryDx=0;entryDy=0;endSize=6;" parent="1" source="176" target="104" edge="1"><mxGeometry width="50" height="50" relative="1" as="geometry"><mxPoint x="-300" y="1080" as="sourcePoint"/><mxPoint x="-320" y="1110" as="targetPoint"/><Array as="points"><mxPoint x="-170" y="1020"/><mxPoint x="-280" y="1000"/><mxPoint x="-300" y="1090"/></Array></mxGeometry></mxCell><mxCell id="181" value="&lt;b&gt;&lt;font style=&quot;font-size: 25px;&quot;&gt;2&lt;/font&gt;&lt;/b&gt;" style="rounded=0;whiteSpace=wrap;html=1;fontSize=18;" parent="1" vertex="1"><mxGeometry x="-1010" y="860" width="40" height="40" as="geometry"/></mxCell><mxCell id="182" value="&lt;div style=&quot;color: rgb(204, 204, 204); background-color: rgb(31, 31, 31); font-family: Consolas, 微软雅黑, monospace, Consolas, &amp;quot;Courier New&amp;quot;, monospace; font-size: 14px; line-height: 19px;&quot;&gt;&lt;div&gt;&lt;span style=&quot;color: #6a9955;&quot;&gt;/**&lt;/span&gt;&lt;/div&gt;&lt;div&gt;&lt;span style=&quot;color: #6a9955;&quot;&gt;&amp;nbsp; * 创建两个迭代器 front_1 和 front_2，用于标记。&lt;/span&gt;&lt;/div&gt;&lt;div&gt;&lt;span style=&quot;color: #6a9955;&quot;&gt;*/&lt;/span&gt;&lt;/div&gt;&lt;div&gt;&lt;span style=&quot;color: #4ec9b0;&quot;&gt;iterator&lt;/span&gt; &lt;span style=&quot;color: #9cdcfe;&quot;&gt;front_1&lt;/span&gt; &lt;span style=&quot;color: #d4d4d4;&quot;&gt;=&lt;/span&gt; &lt;span style=&quot;color: #569cd6;&quot;&gt;this&lt;/span&gt;-&amp;gt;&lt;span style=&quot;color: #9cdcfe;&quot;&gt;start&lt;/span&gt;;&amp;nbsp;&lt;span style=&quot;color: rgb(212, 212, 212);&quot;&gt;++&lt;/span&gt;&lt;span style=&quot;color: rgb(156, 220, 254);&quot;&gt;front_1&lt;/span&gt;;&lt;/div&gt;&lt;div&gt;&lt;span style=&quot;color: #4ec9b0;&quot;&gt;iterator&lt;/span&gt; &lt;span style=&quot;color: #9cdcfe;&quot;&gt;front_2&lt;/span&gt; &lt;span style=&quot;color: #d4d4d4;&quot;&gt;=&lt;/span&gt; &lt;span style=&quot;color: #9cdcfe;&quot;&gt;front_1&lt;/span&gt;;&amp;nbsp;&lt;span style=&quot;color: rgb(212, 212, 212);&quot;&gt;++&lt;/span&gt;&lt;span style=&quot;color: rgb(156, 220, 254);&quot;&gt;front_2&lt;/span&gt;;&lt;/div&gt;&lt;/div&gt;" style="text;html=1;strokeColor=none;fillColor=none;align=left;verticalAlign=middle;whiteSpace=wrap;rounded=0;fontSize=15;" parent="1" vertex="1"><mxGeometry x="-970" y="850" width="365" height="120" as="geometry"/></mxCell><mxCell id="183" value="&lt;div style=&quot;color: rgb(204, 204, 204); background-color: rgb(31, 31, 31); font-family: Consolas, 微软雅黑, monospace, Consolas, &amp;quot;Courier New&amp;quot;, monospace; font-size: 14px; line-height: 19px;&quot;&gt;&lt;span style=&quot;color: rgb(106, 153, 85);&quot;&gt;// 计算插入点 __pos 之前的元素数。&lt;/span&gt;&lt;span style=&quot;color: #4ec9b0;&quot;&gt;&lt;br&gt;&lt;/span&gt;&lt;/div&gt;&lt;div style=&quot;color: rgb(204, 204, 204); background-color: rgb(31, 31, 31); font-family: Consolas, 微软雅黑, monospace, Consolas, &amp;quot;Courier New&amp;quot;, monospace; font-size: 14px; line-height: 19px;&quot;&gt;&lt;span style=&quot;color: #4ec9b0;&quot;&gt;difference_type&lt;/span&gt; &lt;span style=&quot;color: #9cdcfe;&quot;&gt;index&lt;/span&gt; &lt;span style=&quot;color: #d4d4d4;&quot;&gt;=&lt;/span&gt; &lt;span style=&quot;color: #9cdcfe;&quot;&gt;__pos&lt;/span&gt; &lt;span style=&quot;color: #d4d4d4;&quot;&gt;-&lt;/span&gt; &lt;span style=&quot;color: #569cd6;&quot;&gt;this&lt;/span&gt;-&amp;gt;&lt;span style=&quot;color: #9cdcfe;&quot;&gt;start&lt;/span&gt;;&lt;/div&gt;" style="text;html=1;strokeColor=none;fillColor=none;align=left;verticalAlign=middle;whiteSpace=wrap;rounded=0;fontSize=15;" parent="1" vertex="1"><mxGeometry x="-560" y="90" width="345" height="45" as="geometry"/></mxCell><mxCell id="185" style="edgeStyle=none;html=1;exitX=0;exitY=0.5;exitDx=0;exitDy=0;exitPerimeter=0;strokeWidth=1;fontSize=15;endSize=6;" parent="1" source="184" target="183" edge="1"><mxGeometry relative="1" as="geometry"/></mxCell><mxCell id="184" value="" style="strokeWidth=2;html=1;shape=mxgraph.flowchart.annotation_2;align=left;labelPosition=right;pointerEvents=1;fontSize=15;rotation=90;" parent="1" vertex="1"><mxGeometry x="-444" y="170" width="50" height="120" as="geometry"/></mxCell><mxCell id="186" value="&lt;b&gt;&lt;font style=&quot;font-size: 25px;&quot;&gt;3&lt;/font&gt;&lt;/b&gt;" style="rounded=0;whiteSpace=wrap;html=1;fontSize=18;" parent="1" vertex="1"><mxGeometry x="-20" y="1030" width="40" height="40" as="geometry"/></mxCell><mxCell id="187" value="" style="rounded=0;whiteSpace=wrap;html=1;" parent="1" vertex="1"><mxGeometry x="-172.5" y="2300" width="50" height="40" as="geometry"/></mxCell><mxCell id="188" value="" style="rounded=0;whiteSpace=wrap;html=1;fillColor=#1ba1e2;fontColor=#ffffff;strokeColor=#006EAF;" parent="1" vertex="1"><mxGeometry x="-122.5" y="2300" width="50" height="40" as="geometry"/></mxCell><mxCell id="189" value="" style="rounded=0;whiteSpace=wrap;html=1;strokeWidth=3;fillColor=#1ba1e2;fontColor=#ffffff;strokeColor=#006EAF;" parent="1" vertex="1"><mxGeometry x="-72.5" y="2300" width="50" height="40" as="geometry"/></mxCell><mxCell id="190" value="" style="rounded=0;whiteSpace=wrap;html=1;fillColor=#1ba1e2;fontColor=#ffffff;strokeColor=#006EAF;strokeWidth=3;" parent="1" vertex="1"><mxGeometry x="-22.5" y="2300" width="50" height="40" as="geometry"/></mxCell><mxCell id="191" value="" style="rounded=0;whiteSpace=wrap;html=1;strokeWidth=3;fillColor=#1ba1e2;fontColor=#ffffff;strokeColor=#006EAF;" parent="1" vertex="1"><mxGeometry x="27.5" y="2300" width="50" height="40" as="geometry"/></mxCell><mxCell id="192" value="" style="rounded=0;whiteSpace=wrap;html=1;" parent="1" vertex="1"><mxGeometry x="77.5" y="2300" width="50" height="40" as="geometry"/></mxCell><mxCell id="193" value="" style="rounded=0;whiteSpace=wrap;html=1;" parent="1" vertex="1"><mxGeometry x="127.5" y="2300" width="50" height="40" as="geometry"/></mxCell><mxCell id="194" value="" style="rounded=0;whiteSpace=wrap;html=1;" parent="1" vertex="1"><mxGeometry x="177.5" y="2300" width="50" height="40" as="geometry"/></mxCell><mxCell id="195" value="&lt;div style=&quot;color: rgb(204, 204, 204); background-color: rgb(31, 31, 31); font-family: Consolas, 微软雅黑, monospace, Consolas, &amp;quot;Courier New&amp;quot;, monospace; font-size: 14px; line-height: 19px;&quot;&gt;&lt;span style=&quot;color: #4ec9b0;&quot;&gt;&lt;b&gt;map_pointer&lt;/b&gt;&lt;/span&gt; &lt;span style=&quot;color: #9cdcfe;&quot;&gt;map&lt;/span&gt;&lt;/div&gt;" style="text;html=1;strokeColor=default;fillColor=none;align=center;verticalAlign=middle;whiteSpace=wrap;rounded=0;dashed=1;dashPattern=1 4;" parent="1" vertex="1"><mxGeometry x="-287.5" y="2380" width="120" height="30" as="geometry"/></mxCell><mxCell id="196" value="" style="endArrow=classic;html=1;entryX=0;entryY=1;entryDx=0;entryDy=0;exitX=0.75;exitY=0;exitDx=0;exitDy=0;" parent="1" source="195" target="187" edge="1"><mxGeometry width="50" height="50" relative="1" as="geometry"><mxPoint x="-242.5" y="2370" as="sourcePoint"/><mxPoint x="-192.5" y="2320" as="targetPoint"/></mxGeometry></mxCell><mxCell id="197" value="" style="curved=1;endArrow=classic;html=1;strokeWidth=2;entryX=0;entryY=1;entryDx=0;entryDy=0;exitX=0.25;exitY=0;exitDx=0;exitDy=0;" parent="1" source="189" target="287" edge="1"><mxGeometry width="50" height="50" relative="1" as="geometry"><mxPoint x="-162.5" y="2210" as="sourcePoint"/><mxPoint x="-260" y="2160" as="targetPoint"/><Array as="points"><mxPoint x="-120" y="2250"/><mxPoint x="-280" y="2200"/></Array></mxGeometry></mxCell><mxCell id="198" value="&lt;div style=&quot;color: rgb(204, 204, 204); background-color: rgb(31, 31, 31); font-family: Consolas, 微软雅黑, monospace, Consolas, &amp;quot;Courier New&amp;quot;, monospace; font-size: 14px; line-height: 19px;&quot;&gt;&lt;span style=&quot;color: #4ec9b0;&quot;&gt;&lt;b&gt;iterator&lt;/b&gt;&lt;/span&gt; &lt;span style=&quot;color: #9cdcfe;&quot;&gt;start&lt;/span&gt;&lt;/div&gt;" style="text;html=1;strokeColor=default;fillColor=none;align=center;verticalAlign=middle;whiteSpace=wrap;rounded=0;dashed=1;dashPattern=1 4;strokeWidth=1;" parent="1" vertex="1"><mxGeometry x="-802.5" y="2420" width="110" height="20" as="geometry"/></mxCell><mxCell id="199" value="&lt;div style=&quot;color: rgb(204, 204, 204); background-color: rgb(31, 31, 31); font-family: Consolas, 微软雅黑, monospace, Consolas, &amp;quot;Courier New&amp;quot;, monospace; font-size: 14px; line-height: 19px;&quot;&gt;&lt;span style=&quot;color: #4ec9b0;&quot;&gt;&lt;b&gt;iterator&lt;/b&gt;&lt;/span&gt; &lt;span style=&quot;color: #9cdcfe;&quot;&gt;finish&lt;/span&gt;&lt;/div&gt;" style="text;html=1;strokeColor=default;fillColor=none;align=center;verticalAlign=middle;whiteSpace=wrap;rounded=0;dashed=1;dashPattern=1 4;strokeWidth=1;" parent="1" vertex="1"><mxGeometry x="147.5" y="2510" width="120" height="20" as="geometry"/></mxCell><mxCell id="200" value="" style="rounded=0;whiteSpace=wrap;html=1;strokeColor=default;strokeWidth=1;" parent="1" vertex="1"><mxGeometry x="-332.5" y="2050" width="320" height="30" as="geometry"/></mxCell><mxCell id="201" value="" style="rounded=0;whiteSpace=wrap;html=1;strokeColor=#2D7600;strokeWidth=1;fillColor=#60a917;fontColor=#ffffff;" parent="1" vertex="1"><mxGeometry x="27.5" y="2020" width="320" height="30" as="geometry"/></mxCell><mxCell id="202" value="" style="curved=1;endArrow=classic;html=1;entryX=0;entryY=1;entryDx=0;entryDy=0;strokeWidth=2;" parent="1" target="201" edge="1"><mxGeometry width="50" height="50" relative="1" as="geometry"><mxPoint x="-2.5" y="2300" as="sourcePoint"/><mxPoint x="-12.5" y="2030" as="targetPoint"/><Array as="points"><mxPoint x="-22.5" y="2280"/><mxPoint x="10" y="2240"/><mxPoint x="150" y="2140"/></Array></mxGeometry></mxCell><mxCell id="203" value="" style="curved=1;endArrow=classic;html=1;entryX=0;entryY=1;entryDx=0;entryDy=0;strokeWidth=2;" parent="1" edge="1"><mxGeometry width="50" height="50" relative="1" as="geometry"><mxPoint x="47.5" y="2300" as="sourcePoint"/><mxPoint x="137.5" y="2110" as="targetPoint"/><Array as="points"><mxPoint x="137.5" y="2240"/><mxPoint x="147.5" y="2170"/></Array></mxGeometry></mxCell><mxCell id="204" value="" style="rounded=0;whiteSpace=wrap;html=1;strokeColor=#2D7600;strokeWidth=1;fillColor=#60a917;fontColor=#ffffff;" parent="1" vertex="1"><mxGeometry x="-332.5" y="2050" width="40" height="30" as="geometry"/></mxCell><mxCell id="205" value="" style="rounded=0;whiteSpace=wrap;html=1;strokeColor=#2D7600;strokeWidth=1;fillColor=#60a917;fontColor=#ffffff;" parent="1" vertex="1"><mxGeometry x="-292.5" y="2050" width="40" height="30" as="geometry"/></mxCell><mxCell id="206" value="&lt;span style=&quot;font-size: 18px;&quot;&gt;3&lt;/span&gt;" style="rounded=0;whiteSpace=wrap;html=1;strokeColor=#C73500;strokeWidth=1;fillColor=#fa6800;fontColor=#000000;" parent="1" vertex="1"><mxGeometry x="-252.5" y="2050" width="40" height="30" as="geometry"/></mxCell><mxCell id="207" value="&lt;font color=&quot;#000000&quot;&gt;&lt;span style=&quot;font-size: 18px;&quot;&gt;4&lt;/span&gt;&lt;/font&gt;" style="rounded=0;whiteSpace=wrap;html=1;strokeColor=#B20000;strokeWidth=1;fillColor=#e51400;fontColor=#ffffff;" parent="1" vertex="1"><mxGeometry x="-212.5" y="2050" width="40" height="30" as="geometry"/></mxCell><mxCell id="208" value="&lt;font color=&quot;#000000&quot;&gt;&lt;span style=&quot;font-size: 18px;&quot;&gt;5&lt;/span&gt;&lt;/font&gt;" style="rounded=0;whiteSpace=wrap;html=1;strokeColor=#2D7600;strokeWidth=1;fillColor=#60a917;fontColor=#ffffff;" parent="1" vertex="1"><mxGeometry x="-172.5" y="2050" width="40" height="30" as="geometry"/></mxCell><mxCell id="209" value="&lt;font color=&quot;#000000&quot;&gt;&lt;span style=&quot;font-size: 18px;&quot;&gt;6&lt;/span&gt;&lt;/font&gt;" style="rounded=0;whiteSpace=wrap;html=1;strokeColor=#2D7600;strokeWidth=1;fillColor=#60a917;fontColor=#ffffff;" parent="1" vertex="1"><mxGeometry x="-132.5" y="2050" width="40" height="30" as="geometry"/></mxCell><mxCell id="210" value="&lt;font color=&quot;#000000&quot;&gt;&lt;span style=&quot;font-size: 18px;&quot;&gt;7&lt;/span&gt;&lt;/font&gt;" style="rounded=0;whiteSpace=wrap;html=1;strokeColor=#2D7600;strokeWidth=1;fillColor=#60a917;fontColor=#ffffff;" parent="1" vertex="1"><mxGeometry x="-92.5" y="2050" width="40" height="30" as="geometry"/></mxCell><mxCell id="211" value="&lt;font color=&quot;#000000&quot;&gt;&lt;span style=&quot;font-size: 18px;&quot;&gt;8&lt;/span&gt;&lt;/font&gt;" style="rounded=0;whiteSpace=wrap;html=1;strokeColor=#2D7600;strokeWidth=1;fillColor=#60a917;fontColor=#ffffff;" parent="1" vertex="1"><mxGeometry x="-52.5" y="2050" width="40" height="30" as="geometry"/></mxCell><mxCell id="212" value="" style="rounded=0;whiteSpace=wrap;html=1;strokeColor=#2D7600;strokeWidth=1;fillColor=#60a917;fontColor=#ffffff;" parent="1" vertex="1"><mxGeometry x="27.5" y="2020" width="320" height="30" as="geometry"/></mxCell><mxCell id="213" value="" style="rounded=0;whiteSpace=wrap;html=1;strokeColor=#2D7600;strokeWidth=1;fillColor=#60a917;fontColor=#ffffff;" parent="1" vertex="1"><mxGeometry x="27.5" y="2020" width="40" height="30" as="geometry"/></mxCell><mxCell id="214" value="" style="rounded=0;whiteSpace=wrap;html=1;strokeColor=#2D7600;strokeWidth=1;fillColor=#60a917;fontColor=#ffffff;" parent="1" vertex="1"><mxGeometry x="67.5" y="2020" width="40" height="30" as="geometry"/></mxCell><mxCell id="215" value="" style="rounded=0;whiteSpace=wrap;html=1;strokeColor=#2D7600;strokeWidth=1;fillColor=#60a917;fontColor=#ffffff;" parent="1" vertex="1"><mxGeometry x="107.5" y="2020" width="40" height="30" as="geometry"/></mxCell><mxCell id="216" value="" style="rounded=0;whiteSpace=wrap;html=1;strokeColor=#2D7600;strokeWidth=1;fillColor=#60a917;fontColor=#ffffff;" parent="1" vertex="1"><mxGeometry x="147.5" y="2020" width="40" height="30" as="geometry"/></mxCell><mxCell id="217" value="" style="rounded=0;whiteSpace=wrap;html=1;strokeColor=#2D7600;strokeWidth=1;fillColor=#60a917;fontColor=#ffffff;" parent="1" vertex="1"><mxGeometry x="187.5" y="2020" width="40" height="30" as="geometry"/></mxCell><mxCell id="218" value="" style="rounded=0;whiteSpace=wrap;html=1;strokeColor=#2D7600;strokeWidth=1;fillColor=#60a917;fontColor=#ffffff;" parent="1" vertex="1"><mxGeometry x="227.5" y="2020" width="40" height="30" as="geometry"/></mxCell><mxCell id="219" value="" style="rounded=0;whiteSpace=wrap;html=1;strokeColor=#2D7600;strokeWidth=1;fillColor=#60a917;fontColor=#ffffff;" parent="1" vertex="1"><mxGeometry x="267.5" y="2020" width="40" height="30" as="geometry"/></mxCell><mxCell id="220" value="" style="rounded=0;whiteSpace=wrap;html=1;strokeColor=#2D7600;strokeWidth=1;fillColor=#60a917;fontColor=#ffffff;" parent="1" vertex="1"><mxGeometry x="307.5" y="2020" width="40" height="30" as="geometry"/></mxCell><mxCell id="221" value="&lt;div style=&quot;color: rgb(204, 204, 204); background-color: rgb(31, 31, 31); font-family: Consolas, 微软雅黑, monospace, Consolas, &amp;quot;Courier New&amp;quot;, monospace; font-size: 14px; line-height: 19px;&quot;&gt;&lt;span style=&quot;color: #4ec9b0;&quot;&gt;Type&lt;/span&gt;&lt;span style=&quot;color: #d4d4d4;&quot;&gt;*&lt;/span&gt; &lt;span style=&quot;color: #9cdcfe;&quot;&gt;first&lt;/span&gt;&lt;/div&gt;" style="rounded=0;whiteSpace=wrap;html=1;strokeColor=default;strokeWidth=1;" parent="1" vertex="1"><mxGeometry x="-802.5" y="2380" width="110" height="30" as="geometry"/></mxCell><mxCell id="222" style="edgeStyle=none;html=1;fontSize=18;" parent="1" source="223" edge="1"><mxGeometry relative="1" as="geometry"><mxPoint x="-642.5" y="2380" as="targetPoint"/></mxGeometry></mxCell><mxCell id="223" value="&lt;div style=&quot;color: rgb(204, 204, 204); background-color: rgb(31, 31, 31); font-family: Consolas, 微软雅黑, monospace, Consolas, &amp;quot;Courier New&amp;quot;, monospace; font-size: 14px; line-height: 19px;&quot;&gt;&lt;span style=&quot;color: #4ec9b0;&quot;&gt;Type&lt;/span&gt;&lt;span style=&quot;color: #d4d4d4;&quot;&gt;*&lt;/span&gt; &lt;span style=&quot;color: #9cdcfe;&quot;&gt;last&lt;/span&gt;&lt;/div&gt;" style="rounded=0;whiteSpace=wrap;html=1;strokeColor=default;strokeWidth=1;" parent="1" vertex="1"><mxGeometry x="-692.5" y="2380" width="110" height="30" as="geometry"/></mxCell><mxCell id="224" value="&lt;div style=&quot;color: rgb(204, 204, 204); background-color: rgb(31, 31, 31); font-family: Consolas, 微软雅黑, monospace, Consolas, &amp;quot;Courier New&amp;quot;, monospace; font-size: 14px; line-height: 19px;&quot;&gt;&lt;span style=&quot;color: #4ec9b0;&quot;&gt;Type&lt;/span&gt;&lt;span style=&quot;color: #d4d4d4;&quot;&gt;*&lt;/span&gt; &lt;span style=&quot;color: #9cdcfe;&quot;&gt;current&lt;/span&gt;&lt;/div&gt;" style="rounded=0;whiteSpace=wrap;html=1;strokeColor=default;strokeWidth=1;" parent="1" vertex="1"><mxGeometry x="-582.5" y="2380" width="120" height="30" as="geometry"/></mxCell><mxCell id="225" value="&lt;div style=&quot;color: rgb(204, 204, 204); background-color: rgb(31, 31, 31); font-family: Consolas, 微软雅黑, monospace, Consolas, &amp;quot;Courier New&amp;quot;, monospace; font-size: 14px; line-height: 19px;&quot;&gt;&lt;span style=&quot;color: #4ec9b0;&quot;&gt;map_pointer&lt;/span&gt; &lt;span style=&quot;color: #9cdcfe;&quot;&gt;node&lt;/span&gt;&lt;/div&gt;" style="rounded=0;whiteSpace=wrap;html=1;strokeColor=default;strokeWidth=1;" parent="1" vertex="1"><mxGeometry x="-462.5" y="2380" width="130" height="30" as="geometry"/></mxCell><mxCell id="226" value="" style="edgeStyle=elbowEdgeStyle;elbow=vertical;endArrow=classic;html=1;curved=0;rounded=0;endSize=8;startSize=8;exitX=0.75;exitY=1;exitDx=0;exitDy=0;entryX=0.5;entryY=1;entryDx=0;entryDy=0;strokeWidth=2;" parent="1" source="225" target="188" edge="1"><mxGeometry width="50" height="50" relative="1" as="geometry"><mxPoint x="-422.5" y="2490" as="sourcePoint"/><mxPoint x="-2.5" y="2490" as="targetPoint"/><Array as="points"><mxPoint x="-222.5" y="2460"/></Array></mxGeometry></mxCell><mxCell id="227" value="&lt;div style=&quot;color: rgb(204, 204, 204); background-color: rgb(31, 31, 31); font-family: Consolas, 微软雅黑, monospace, Consolas, &amp;quot;Courier New&amp;quot;, monospace; font-size: 14px; line-height: 19px;&quot;&gt;&lt;span style=&quot;color: #4ec9b0;&quot;&gt;Type&lt;/span&gt;&lt;span style=&quot;color: #d4d4d4;&quot;&gt;*&lt;/span&gt; &lt;span style=&quot;color: #9cdcfe;&quot;&gt;first&lt;/span&gt;&lt;/div&gt;" style="rounded=0;whiteSpace=wrap;html=1;strokeColor=default;strokeWidth=1;" parent="1" vertex="1"><mxGeometry x="147.5" y="2470" width="110" height="30" as="geometry"/></mxCell><mxCell id="228" value="&lt;div style=&quot;color: rgb(204, 204, 204); background-color: rgb(31, 31, 31); font-family: Consolas, 微软雅黑, monospace, Consolas, &amp;quot;Courier New&amp;quot;, monospace; font-size: 14px; line-height: 19px;&quot;&gt;&lt;span style=&quot;color: #4ec9b0;&quot;&gt;Type&lt;/span&gt;&lt;span style=&quot;color: #d4d4d4;&quot;&gt;*&lt;/span&gt; &lt;span style=&quot;color: #9cdcfe;&quot;&gt;last&lt;/span&gt;&lt;/div&gt;" style="rounded=0;whiteSpace=wrap;html=1;strokeColor=default;strokeWidth=1;" parent="1" vertex="1"><mxGeometry x="257.5" y="2470" width="110" height="30" as="geometry"/></mxCell><mxCell id="229" value="&lt;div style=&quot;color: rgb(204, 204, 204); background-color: rgb(31, 31, 31); font-family: Consolas, 微软雅黑, monospace, Consolas, &amp;quot;Courier New&amp;quot;, monospace; font-size: 14px; line-height: 19px;&quot;&gt;&lt;span style=&quot;color: #4ec9b0;&quot;&gt;Type&lt;/span&gt;&lt;span style=&quot;color: #d4d4d4;&quot;&gt;*&lt;/span&gt; &lt;span style=&quot;color: #9cdcfe;&quot;&gt;current&lt;/span&gt;&lt;/div&gt;" style="rounded=0;whiteSpace=wrap;html=1;strokeColor=default;strokeWidth=1;" parent="1" vertex="1"><mxGeometry x="367.5" y="2470" width="120" height="30" as="geometry"/></mxCell><mxCell id="230" value="&lt;div style=&quot;color: rgb(204, 204, 204); background-color: rgb(31, 31, 31); font-family: Consolas, 微软雅黑, monospace, Consolas, &amp;quot;Courier New&amp;quot;, monospace; font-size: 14px; line-height: 19px;&quot;&gt;&lt;span style=&quot;color: #4ec9b0;&quot;&gt;map_pointer&lt;/span&gt; &lt;span style=&quot;color: #9cdcfe;&quot;&gt;node&lt;/span&gt;&lt;/div&gt;" style="rounded=0;whiteSpace=wrap;html=1;strokeColor=default;strokeWidth=1;" parent="1" vertex="1"><mxGeometry x="487.5" y="2470" width="130" height="30" as="geometry"/></mxCell><mxCell id="231" value="" style="edgeStyle=elbowEdgeStyle;elbow=vertical;endArrow=classic;html=1;curved=0;rounded=0;endSize=8;startSize=8;strokeWidth=2;exitX=0.25;exitY=0;exitDx=0;exitDy=0;entryX=0.5;entryY=1;entryDx=0;entryDy=0;" parent="1" target="191" edge="1"><mxGeometry width="50" height="50" relative="1" as="geometry"><mxPoint x="519.9999999999995" y="2470" as="sourcePoint"/><mxPoint x="52.5" y="2350" as="targetPoint"/><Array as="points"><mxPoint x="307.5" y="2410"/></Array></mxGeometry></mxCell><mxCell id="232" value="" style="curved=1;endArrow=classic;html=1;strokeWidth=1;entryX=0.5;entryY=1;entryDx=0;entryDy=0;" parent="1" edge="1"><mxGeometry width="50" height="50" relative="1" as="geometry"><mxPoint x="197.5" y="2470" as="sourcePoint"/><mxPoint x="157.5" y="2110" as="targetPoint"/><Array as="points"><mxPoint x="277.5" y="2360"/><mxPoint x="217.5" y="2270"/><mxPoint x="237.5" y="2190"/></Array></mxGeometry></mxCell><mxCell id="233" value="" style="curved=1;endArrow=classic;html=1;strokeWidth=1;entryX=1;entryY=1;entryDx=0;entryDy=0;" parent="1" edge="1"><mxGeometry width="50" height="50" relative="1" as="geometry"><mxPoint x="307.5" y="2470" as="sourcePoint"/><mxPoint x="457.49999999999955" y="2110" as="targetPoint"/><Array as="points"><mxPoint x="397.5" y="2360"/><mxPoint x="387.5" y="2170"/></Array></mxGeometry></mxCell><mxCell id="234" value="" style="curved=1;endArrow=classic;html=1;strokeWidth=1;entryX=0.75;entryY=1;entryDx=0;entryDy=0;" parent="1" target="240" edge="1"><mxGeometry width="50" height="50" relative="1" as="geometry"><mxPoint x="407.5" y="2470" as="sourcePoint"/><mxPoint x="397.5" y="2110" as="targetPoint"/><Array as="points"><mxPoint x="307.5" y="2380"/><mxPoint x="297.5" y="2150"/></Array></mxGeometry></mxCell><mxCell id="235" value="" style="rounded=0;whiteSpace=wrap;html=1;strokeColor=default;strokeWidth=1;" parent="1" vertex="1"><mxGeometry x="137.5" y="2080" width="320" height="30" as="geometry"/></mxCell><mxCell id="236" value="" style="rounded=0;whiteSpace=wrap;html=1;strokeColor=default;strokeWidth=1;" parent="1" vertex="1"><mxGeometry x="137.5" y="2080" width="320" height="30" as="geometry"/></mxCell><mxCell id="237" value="" style="rounded=0;whiteSpace=wrap;html=1;strokeColor=#2D7600;strokeWidth=1;fillColor=#60a917;fontColor=#ffffff;" parent="1" vertex="1"><mxGeometry x="137.5" y="2080" width="40" height="30" as="geometry"/></mxCell><mxCell id="238" value="" style="rounded=0;whiteSpace=wrap;html=1;strokeColor=#2D7600;strokeWidth=1;fillColor=#60a917;fontColor=#ffffff;" parent="1" vertex="1"><mxGeometry x="177.5" y="2080" width="40" height="30" as="geometry"/></mxCell><mxCell id="239" value="" style="rounded=0;whiteSpace=wrap;html=1;strokeColor=#2D7600;strokeWidth=1;fillColor=#60a917;fontColor=#ffffff;" parent="1" vertex="1"><mxGeometry x="217.5" y="2080" width="40" height="30" as="geometry"/></mxCell><mxCell id="240" value="" style="rounded=0;whiteSpace=wrap;html=1;strokeColor=#2D7600;strokeWidth=1;fillColor=#60a917;fontColor=#ffffff;" parent="1" vertex="1"><mxGeometry x="257.5" y="2080" width="40" height="30" as="geometry"/></mxCell><mxCell id="241" value="" style="rounded=0;whiteSpace=wrap;html=1;strokeColor=default;strokeWidth=1;" parent="1" vertex="1"><mxGeometry x="297.5" y="2080" width="40" height="30" as="geometry"/></mxCell><mxCell id="242" value="" style="rounded=0;whiteSpace=wrap;html=1;strokeColor=default;strokeWidth=1;" parent="1" vertex="1"><mxGeometry x="337.5" y="2080" width="40" height="30" as="geometry"/></mxCell><mxCell id="243" value="" style="rounded=0;whiteSpace=wrap;html=1;strokeColor=default;strokeWidth=1;" parent="1" vertex="1"><mxGeometry x="377.5" y="2080" width="40" height="30" as="geometry"/></mxCell><mxCell id="244" value="" style="rounded=0;whiteSpace=wrap;html=1;strokeColor=default;strokeWidth=1;" parent="1" vertex="1"><mxGeometry x="417.5" y="2080" width="40" height="30" as="geometry"/></mxCell><mxCell id="245" value="" style="endArrow=classic;html=1;entryX=0.5;entryY=0;entryDx=0;entryDy=0;exitX=0.25;exitY=1;exitDx=0;exitDy=0;" parent="1" source="278" target="207" edge="1"><mxGeometry width="50" height="50" relative="1" as="geometry"><mxPoint x="-75" y="2010" as="sourcePoint"/><mxPoint x="-342.5" y="1940" as="targetPoint"/></mxGeometry></mxCell><mxCell id="247" value="" style="rounded=0;whiteSpace=wrap;html=1;strokeColor=default;strokeWidth=1;" parent="1" vertex="1"><mxGeometry x="-842.5" y="2070" width="320" height="30" as="geometry"/></mxCell><mxCell id="248" value="" style="rounded=0;whiteSpace=wrap;html=1;strokeColor=default;strokeWidth=1;" parent="1" vertex="1"><mxGeometry x="-842.5" y="2070" width="320" height="30" as="geometry"/></mxCell><mxCell id="249" value="" style="rounded=0;whiteSpace=wrap;html=1;strokeWidth=1;" parent="1" vertex="1"><mxGeometry x="-842.5" y="2070" width="40" height="30" as="geometry"/></mxCell><mxCell id="250" value="" style="rounded=0;whiteSpace=wrap;html=1;strokeWidth=1;" parent="1" vertex="1"><mxGeometry x="-802.5" y="2070" width="40" height="30" as="geometry"/></mxCell><mxCell id="251" value="" style="rounded=0;whiteSpace=wrap;html=1;strokeWidth=1;" parent="1" vertex="1"><mxGeometry x="-762.5" y="2070" width="40" height="30" as="geometry"/></mxCell><mxCell id="252" value="" style="rounded=0;whiteSpace=wrap;html=1;strokeWidth=1;" parent="1" vertex="1"><mxGeometry x="-722.5" y="2070" width="40" height="30" as="geometry"/></mxCell><mxCell id="253" value="" style="rounded=0;whiteSpace=wrap;html=1;strokeColor=default;strokeWidth=1;" parent="1" vertex="1"><mxGeometry x="-682.5" y="2070" width="40" height="30" as="geometry"/></mxCell><mxCell id="254" value="" style="rounded=0;whiteSpace=wrap;html=1;strokeColor=default;strokeWidth=1;" parent="1" vertex="1"><mxGeometry x="-642.5" y="2070" width="40" height="30" as="geometry"/></mxCell><mxCell id="255" value="" style="rounded=0;whiteSpace=wrap;html=1;strokeColor=default;strokeWidth=1;" parent="1" vertex="1"><mxGeometry x="-602.5" y="2070" width="40" height="30" as="geometry"/></mxCell><mxCell id="256" value="&lt;span style=&quot;color: rgb(0, 0, 0); font-size: 18px;&quot;&gt;1&lt;/span&gt;" style="rounded=0;whiteSpace=wrap;html=1;strokeColor=#2D7600;strokeWidth=1;fillColor=#60a917;fontColor=#ffffff;" parent="1" vertex="1"><mxGeometry x="-562.5" y="2070" width="40" height="30" as="geometry"/></mxCell><mxCell id="257" value="" style="curved=1;endArrow=classic;html=1;fontSize=18;exitX=0.25;exitY=0;exitDx=0;exitDy=0;entryX=0.25;entryY=1;entryDx=0;entryDy=0;" parent="1" source="221" target="249" edge="1"><mxGeometry width="50" height="50" relative="1" as="geometry"><mxPoint x="-772.5" y="2350" as="sourcePoint"/><mxPoint x="-722.5" y="2300" as="targetPoint"/><Array as="points"><mxPoint x="-722.5" y="2350"/><mxPoint x="-922.5" y="2170"/></Array></mxGeometry></mxCell><mxCell id="258" value="" style="curved=1;endArrow=classic;html=1;fontSize=18;exitX=0.432;exitY=-0.075;exitDx=0;exitDy=0;exitPerimeter=0;" parent="1" source="223" edge="1"><mxGeometry width="50" height="50" relative="1" as="geometry"><mxPoint x="-642.5" y="2370" as="sourcePoint"/><mxPoint x="-492.5" y="2090" as="targetPoint"/><Array as="points"><mxPoint x="-642.5" y="2230"/><mxPoint x="-462.5" y="2180"/></Array></mxGeometry></mxCell><mxCell id="259" value="" style="curved=1;endArrow=classic;html=1;fontSize=18;exitX=0.75;exitY=0;exitDx=0;exitDy=0;entryX=0.25;entryY=1;entryDx=0;entryDy=0;" parent="1" source="224" target="256" edge="1"><mxGeometry width="50" height="50" relative="1" as="geometry"><mxPoint x="-552.5" y="2330" as="sourcePoint"/><mxPoint x="-502.5" y="2280" as="targetPoint"/><Array as="points"><mxPoint x="-412.5" y="2320"/><mxPoint x="-572.5" y="2180"/></Array></mxGeometry></mxCell><mxCell id="260" value="" style="curved=1;endArrow=classic;html=1;entryX=0.25;entryY=0;entryDx=0;entryDy=0;strokeWidth=2;exitX=0.75;exitY=1;exitDx=0;exitDy=0;" parent="1" source="266" target="188" edge="1"><mxGeometry width="50" height="50" relative="1" as="geometry"><mxPoint x="-667.5" y="1870" as="sourcePoint"/><mxPoint x="-322.5" y="2089.9999999999995" as="targetPoint"/><Array as="points"><mxPoint x="-397.5" y="1880"/><mxPoint x="-457.5" y="2080"/><mxPoint x="-347.5" y="2200"/><mxPoint x="-247.5" y="2220"/></Array></mxGeometry></mxCell><mxCell id="261" value="" style="curved=1;endArrow=classic;html=1;entryX=0.25;entryY=0;entryDx=0;entryDy=0;strokeWidth=2;exitX=0.75;exitY=0;exitDx=0;exitDy=0;" parent="1" source="272" edge="1"><mxGeometry width="50" height="50" relative="1" as="geometry"><mxPoint x="-677.5" y="1970" as="sourcePoint"/><mxPoint x="-100" y="2304" as="targetPoint"/><Array as="points"><mxPoint x="-387.5" y="1884"/><mxPoint x="-457.5" y="2100"/><mxPoint x="-337.5" y="2204"/><mxPoint x="-237.5" y="2224"/></Array></mxGeometry></mxCell><mxCell id="262" value="&lt;div style=&quot;background-color: rgb(31, 31, 31); font-family: Consolas, 微软雅黑, monospace, Consolas, &amp;quot;Courier New&amp;quot;, monospace; font-size: 14px; line-height: 19px;&quot;&gt;&lt;span style=&quot;color: rgb(204, 204, 204);&quot;&gt;&lt;span style=&quot;color: #4ec9b0;&quot;&gt;&lt;b&gt;iterator&lt;/b&gt;&lt;/span&gt;&amp;nbsp;&lt;/span&gt;&lt;font color=&quot;#9cdcfe&quot;&gt;front_1&lt;/font&gt;&lt;/div&gt;" style="text;html=1;strokeColor=default;fillColor=none;align=center;verticalAlign=middle;whiteSpace=wrap;rounded=0;dashed=1;dashPattern=1 4;strokeWidth=1;" parent="1" vertex="1"><mxGeometry x="-937.5" y="1880" width="130" height="20" as="geometry"/></mxCell><mxCell id="263" value="&lt;div style=&quot;color: rgb(204, 204, 204); background-color: rgb(31, 31, 31); font-family: Consolas, 微软雅黑, monospace, Consolas, &amp;quot;Courier New&amp;quot;, monospace; font-size: 14px; line-height: 19px;&quot;&gt;&lt;span style=&quot;color: #4ec9b0;&quot;&gt;Type&lt;/span&gt;&lt;span style=&quot;color: #d4d4d4;&quot;&gt;*&lt;/span&gt; &lt;span style=&quot;color: #9cdcfe;&quot;&gt;first&lt;/span&gt;&lt;/div&gt;" style="rounded=0;whiteSpace=wrap;html=1;strokeColor=default;strokeWidth=1;" parent="1" vertex="1"><mxGeometry x="-937.5" y="1920" width="110" height="30" as="geometry"/></mxCell><mxCell id="264" value="&lt;div style=&quot;color: rgb(204, 204, 204); background-color: rgb(31, 31, 31); font-family: Consolas, 微软雅黑, monospace, Consolas, &amp;quot;Courier New&amp;quot;, monospace; font-size: 14px; line-height: 19px;&quot;&gt;&lt;span style=&quot;color: #4ec9b0;&quot;&gt;Type&lt;/span&gt;&lt;span style=&quot;color: #d4d4d4;&quot;&gt;*&lt;/span&gt; &lt;span style=&quot;color: #9cdcfe;&quot;&gt;last&lt;/span&gt;&lt;/div&gt;" style="rounded=0;whiteSpace=wrap;html=1;strokeColor=default;strokeWidth=1;" parent="1" vertex="1"><mxGeometry x="-827.5" y="1920" width="110" height="30" as="geometry"/></mxCell><mxCell id="265" value="&lt;div style=&quot;color: rgb(204, 204, 204); background-color: rgb(31, 31, 31); font-family: Consolas, 微软雅黑, monospace, Consolas, &amp;quot;Courier New&amp;quot;, monospace; font-size: 14px; line-height: 19px;&quot;&gt;&lt;span style=&quot;color: #4ec9b0;&quot;&gt;Type&lt;/span&gt;&lt;span style=&quot;color: #d4d4d4;&quot;&gt;*&lt;/span&gt; &lt;span style=&quot;color: #9cdcfe;&quot;&gt;current&lt;/span&gt;&lt;/div&gt;" style="rounded=0;whiteSpace=wrap;html=1;strokeColor=default;strokeWidth=1;" parent="1" vertex="1"><mxGeometry x="-717.5" y="1920" width="120" height="30" as="geometry"/></mxCell><mxCell id="266" value="&lt;div style=&quot;color: rgb(204, 204, 204); background-color: rgb(31, 31, 31); font-family: Consolas, 微软雅黑, monospace, Consolas, &amp;quot;Courier New&amp;quot;, monospace; font-size: 14px; line-height: 19px;&quot;&gt;&lt;span style=&quot;color: #4ec9b0;&quot;&gt;map_pointer&lt;/span&gt; &lt;span style=&quot;color: #9cdcfe;&quot;&gt;node&lt;/span&gt;&lt;/div&gt;" style="rounded=0;whiteSpace=wrap;html=1;strokeColor=default;strokeWidth=1;" parent="1" vertex="1"><mxGeometry x="-597.5" y="1920" width="130" height="30" as="geometry"/></mxCell><mxCell id="267" value="&lt;div style=&quot;background-color: rgb(31, 31, 31); font-family: Consolas, 微软雅黑, monospace, Consolas, &amp;quot;Courier New&amp;quot;, monospace; font-size: 14px; line-height: 19px;&quot;&gt;&lt;span style=&quot;color: rgb(204, 204, 204);&quot;&gt;&lt;span style=&quot;color: #4ec9b0;&quot;&gt;&lt;b&gt;iterator&lt;/b&gt;&lt;/span&gt;&amp;nbsp;&lt;/span&gt;&lt;font color=&quot;#9cdcfe&quot;&gt;front_2&lt;/font&gt;&lt;/div&gt;" style="text;html=1;strokeColor=default;fillColor=none;align=center;verticalAlign=middle;whiteSpace=wrap;rounded=0;dashed=1;dashPattern=1 4;strokeWidth=1;" parent="1" vertex="1"><mxGeometry x="-470" y="1700" width="130" height="20" as="geometry"/></mxCell><mxCell id="268" value="&lt;div style=&quot;color: rgb(204, 204, 204); background-color: rgb(31, 31, 31); font-family: Consolas, 微软雅黑, monospace, Consolas, &amp;quot;Courier New&amp;quot;, monospace; font-size: 14px; line-height: 19px;&quot;&gt;&lt;span style=&quot;color: #4ec9b0;&quot;&gt;Type&lt;/span&gt;&lt;span style=&quot;color: #d4d4d4;&quot;&gt;*&lt;/span&gt; &lt;span style=&quot;color: #9cdcfe;&quot;&gt;first&lt;/span&gt;&lt;/div&gt;" style="rounded=0;whiteSpace=wrap;html=1;strokeColor=default;strokeWidth=1;" parent="1" vertex="1"><mxGeometry x="-470" y="1740" width="110" height="30" as="geometry"/></mxCell><mxCell id="269" style="edgeStyle=none;html=1;fontSize=18;" parent="1" source="270" edge="1"><mxGeometry relative="1" as="geometry"><mxPoint x="-310" y="1740" as="targetPoint"/></mxGeometry></mxCell><mxCell id="270" value="&lt;div style=&quot;color: rgb(204, 204, 204); background-color: rgb(31, 31, 31); font-family: Consolas, 微软雅黑, monospace, Consolas, &amp;quot;Courier New&amp;quot;, monospace; font-size: 14px; line-height: 19px;&quot;&gt;&lt;span style=&quot;color: #4ec9b0;&quot;&gt;Type&lt;/span&gt;&lt;span style=&quot;color: #d4d4d4;&quot;&gt;*&lt;/span&gt; &lt;span style=&quot;color: #9cdcfe;&quot;&gt;last&lt;/span&gt;&lt;/div&gt;" style="rounded=0;whiteSpace=wrap;html=1;strokeColor=default;strokeWidth=1;" parent="1" vertex="1"><mxGeometry x="-360" y="1740" width="110" height="30" as="geometry"/></mxCell><mxCell id="271" value="&lt;div style=&quot;color: rgb(204, 204, 204); background-color: rgb(31, 31, 31); font-family: Consolas, 微软雅黑, monospace, Consolas, &amp;quot;Courier New&amp;quot;, monospace; font-size: 14px; line-height: 19px;&quot;&gt;&lt;span style=&quot;color: #4ec9b0;&quot;&gt;Type&lt;/span&gt;&lt;span style=&quot;color: #d4d4d4;&quot;&gt;*&lt;/span&gt; &lt;span style=&quot;color: #9cdcfe;&quot;&gt;current&lt;/span&gt;&lt;/div&gt;" style="rounded=0;whiteSpace=wrap;html=1;strokeColor=default;strokeWidth=1;" parent="1" vertex="1"><mxGeometry x="-250" y="1740" width="120" height="30" as="geometry"/></mxCell><mxCell id="272" value="&lt;div style=&quot;color: rgb(204, 204, 204); background-color: rgb(31, 31, 31); font-family: Consolas, 微软雅黑, monospace, Consolas, &amp;quot;Courier New&amp;quot;, monospace; font-size: 14px; line-height: 19px;&quot;&gt;&lt;span style=&quot;color: #4ec9b0;&quot;&gt;map_pointer&lt;/span&gt; &lt;span style=&quot;color: #9cdcfe;&quot;&gt;node&lt;/span&gt;&lt;/div&gt;" style="rounded=0;whiteSpace=wrap;html=1;strokeColor=default;strokeWidth=1;" parent="1" vertex="1"><mxGeometry x="-130" y="1740" width="130" height="30" as="geometry"/></mxCell><mxCell id="273" value="" style="curved=1;endArrow=classic;html=1;strokeWidth=1;fontSize=15;exitX=0.5;exitY=1;exitDx=0;exitDy=0;entryX=0.25;entryY=0;entryDx=0;entryDy=0;" parent="1" source="265" target="204" edge="1"><mxGeometry width="50" height="50" relative="1" as="geometry"><mxPoint x="-547.5" y="2030" as="sourcePoint"/><mxPoint x="-497.5" y="1980" as="targetPoint"/><Array as="points"><mxPoint x="-517.5" y="1980"/><mxPoint x="-497.5" y="2040"/><mxPoint x="-317.5" y="1970"/></Array></mxGeometry></mxCell><mxCell id="274" value="" style="curved=1;endArrow=classic;html=1;strokeWidth=1;fontSize=15;exitX=0.75;exitY=1;exitDx=0;exitDy=0;entryX=0.75;entryY=0;entryDx=0;entryDy=0;endSize=6;" parent="1" source="271" target="205" edge="1"><mxGeometry width="50" height="50" relative="1" as="geometry"><mxPoint x="-267.5" y="1980" as="sourcePoint"/><mxPoint x="-287.5" y="2010" as="targetPoint"/><Array as="points"><mxPoint x="-137.5" y="1920"/><mxPoint x="-247.5" y="1900"/><mxPoint x="-267.5" y="1990"/></Array></mxGeometry></mxCell><mxCell id="275" value="&lt;b&gt;&lt;font style=&quot;font-size: 25px;&quot;&gt;2&lt;/font&gt;&lt;/b&gt;" style="rounded=0;whiteSpace=wrap;html=1;fontSize=18;" parent="1" vertex="1"><mxGeometry x="-977.5" y="1760" width="40" height="40" as="geometry"/></mxCell><mxCell id="276" value="&lt;div style=&quot;color: rgb(204, 204, 204); background-color: rgb(31, 31, 31); font-family: Consolas, 微软雅黑, monospace, Consolas, &amp;quot;Courier New&amp;quot;, monospace; font-size: 14px; line-height: 19px;&quot;&gt;&lt;div&gt;&lt;span style=&quot;color: #6a9955;&quot;&gt;/**&lt;/span&gt;&lt;/div&gt;&lt;div&gt;&lt;span style=&quot;color: #6a9955;&quot;&gt;&amp;nbsp; * 创建两个迭代器 front_1 和 front_2，用于标记。&lt;/span&gt;&lt;/div&gt;&lt;div&gt;&lt;span style=&quot;color: #6a9955;&quot;&gt;*/&lt;/span&gt;&lt;/div&gt;&lt;div&gt;&lt;span style=&quot;color: #4ec9b0;&quot;&gt;iterator&lt;/span&gt; &lt;span style=&quot;color: #9cdcfe;&quot;&gt;front_1&lt;/span&gt; &lt;span style=&quot;color: #d4d4d4;&quot;&gt;=&lt;/span&gt; &lt;span style=&quot;color: #569cd6;&quot;&gt;this&lt;/span&gt;-&amp;gt;&lt;span style=&quot;color: #9cdcfe;&quot;&gt;start&lt;/span&gt;;&amp;nbsp;&lt;span style=&quot;color: rgb(212, 212, 212);&quot;&gt;++&lt;/span&gt;&lt;span style=&quot;color: rgb(156, 220, 254);&quot;&gt;front_1&lt;/span&gt;;&lt;/div&gt;&lt;div&gt;&lt;span style=&quot;color: #4ec9b0;&quot;&gt;iterator&lt;/span&gt; &lt;span style=&quot;color: #9cdcfe;&quot;&gt;front_2&lt;/span&gt; &lt;span style=&quot;color: #d4d4d4;&quot;&gt;=&lt;/span&gt; &lt;span style=&quot;color: #9cdcfe;&quot;&gt;front_1&lt;/span&gt;;&amp;nbsp;&lt;span style=&quot;color: rgb(212, 212, 212);&quot;&gt;++&lt;/span&gt;&lt;span style=&quot;color: rgb(156, 220, 254);&quot;&gt;front_2&lt;/span&gt;;&lt;/div&gt;&lt;/div&gt;" style="text;html=1;strokeColor=none;fillColor=none;align=left;verticalAlign=middle;whiteSpace=wrap;rounded=0;fontSize=15;" parent="1" vertex="1"><mxGeometry x="-937.5" y="1750" width="365" height="120" as="geometry"/></mxCell><mxCell id="277" value="&lt;b&gt;&lt;font style=&quot;font-size: 25px;&quot;&gt;4&lt;/font&gt;&lt;/b&gt;" style="rounded=0;whiteSpace=wrap;html=1;fontSize=18;" parent="1" vertex="1"><mxGeometry x="-380" y="2090" width="40" height="40" as="geometry"/></mxCell><mxCell id="278" value="&lt;span style=&quot;font-family: Consolas, 微软雅黑, monospace, Consolas, &amp;quot;Courier New&amp;quot;, monospace; font-size: 14px; text-align: left; background-color: rgb(31, 31, 31); color: rgb(78, 201, 176);&quot;&gt;iterator&lt;/span&gt;&lt;span style=&quot;color: rgb(204, 204, 204); font-family: Consolas, 微软雅黑, monospace, Consolas, &amp;quot;Courier New&amp;quot;, monospace; font-size: 14px; text-align: left; background-color: rgb(31, 31, 31);&quot;&gt;&amp;nbsp;&lt;/span&gt;&lt;span style=&quot;font-family: Consolas, 微软雅黑, monospace, Consolas, &amp;quot;Courier New&amp;quot;, monospace; font-size: 14px; text-align: left; background-color: rgb(31, 31, 31); color: rgb(156, 220, 254);&quot;&gt;pos_1&lt;/span&gt;" style="text;html=1;strokeColor=none;fillColor=none;align=center;verticalAlign=middle;whiteSpace=wrap;rounded=0;fontSize=15;" parent="1" vertex="1"><mxGeometry x="-167.5" y="1970" width="122" height="20" as="geometry"/></mxCell><mxCell id="280" value="&lt;font style=&quot;font-size: 18px;&quot; color=&quot;#000000&quot;&gt;1&lt;/font&gt;" style="rounded=0;whiteSpace=wrap;html=1;strokeColor=#2D7600;strokeWidth=1;fillColor=#60a917;fontColor=#ffffff;" parent="1" vertex="1"><mxGeometry x="-332.5" y="2050" width="40" height="30" as="geometry"/></mxCell><mxCell id="281" value="&lt;span style=&quot;font-size: 18px;&quot;&gt;2&lt;/span&gt;" style="rounded=0;whiteSpace=wrap;html=1;strokeColor=#C73500;strokeWidth=1;fillColor=#fa6800;fontColor=#000000;" parent="1" vertex="1"><mxGeometry x="-292.5" y="2050" width="40" height="30" as="geometry"/></mxCell><mxCell id="282" value="&lt;font color=&quot;#000000&quot;&gt;&lt;span style=&quot;font-size: 18px;&quot;&gt;4&lt;/span&gt;&lt;/font&gt;" style="rounded=0;whiteSpace=wrap;html=1;strokeColor=#B20000;strokeWidth=1;fillColor=#e51400;fontColor=#ffffff;" parent="1" vertex="1"><mxGeometry x="-212.5" y="2140" width="40" height="30" as="geometry"/></mxCell><mxCell id="287" value="&lt;span style=&quot;font-size: 18px;&quot;&gt;2&lt;/span&gt;" style="rounded=0;whiteSpace=wrap;html=1;strokeColor=#C73500;strokeWidth=1;fillColor=#fa6800;fontColor=#000000;" parent="1" vertex="1"><mxGeometry x="-332.5" y="2140" width="40" height="30" as="geometry"/></mxCell><mxCell id="288" value="&lt;font color=&quot;#000000&quot;&gt;&lt;span style=&quot;font-size: 18px;&quot;&gt;3&lt;/span&gt;&lt;/font&gt;" style="rounded=0;whiteSpace=wrap;html=1;strokeColor=#C73500;strokeWidth=1;fillColor=#fa6800;fontColor=#000000;" parent="1" vertex="1"><mxGeometry x="-292.5" y="2140" width="40" height="30" as="geometry"/></mxCell><mxCell id="289" value="&lt;font color=&quot;#000000&quot;&gt;&lt;span style=&quot;font-size: 18px;&quot;&gt;123&lt;/span&gt;&lt;/font&gt;" style="rounded=0;whiteSpace=wrap;html=1;strokeColor=#B09500;strokeWidth=1;fillColor=#e3c800;fontColor=#000000;" parent="1" vertex="1"><mxGeometry x="-252.5" y="2140" width="40" height="30" as="geometry"/></mxCell><mxCell id="290" value="&lt;div style=&quot;color: rgb(204, 204, 204); background-color: rgb(31, 31, 31); font-family: Consolas, 微软雅黑, monospace, Consolas, &amp;quot;Courier New&amp;quot;, monospace; font-size: 14px; line-height: 19px;&quot;&gt;&lt;span style=&quot;color: #4ec9b0;&quot;&gt;std&lt;/span&gt;::&lt;span style=&quot;color: #dcdcaa;&quot;&gt;copy&lt;/span&gt;(&lt;span style=&quot;color: #9cdcfe;&quot;&gt;front_2&lt;/span&gt;, &lt;span style=&quot;color: #9cdcfe;&quot;&gt;pos_1&lt;/span&gt;, &lt;span style=&quot;color: #9cdcfe;&quot;&gt;front_1&lt;/span&gt;);&lt;/div&gt;" style="text;html=1;strokeColor=none;fillColor=none;align=center;verticalAlign=middle;whiteSpace=wrap;rounded=0;fontSize=15;" parent="1" vertex="1"><mxGeometry x="-340" y="2095" width="280" height="30" as="geometry"/></mxCell><mxCell id="291" value="&lt;font color=&quot;#000000&quot;&gt;&lt;span style=&quot;font-size: 18px;&quot;&gt;5&lt;/span&gt;&lt;/font&gt;" style="rounded=0;whiteSpace=wrap;html=1;strokeColor=#2D7600;strokeWidth=1;fillColor=#60a917;fontColor=#ffffff;" parent="1" vertex="1"><mxGeometry x="-175" y="2140" width="40" height="30" as="geometry"/></mxCell><mxCell id="292" value="&lt;font color=&quot;#000000&quot;&gt;&lt;span style=&quot;font-size: 18px;&quot;&gt;6&lt;/span&gt;&lt;/font&gt;" style="rounded=0;whiteSpace=wrap;html=1;strokeColor=#2D7600;strokeWidth=1;fillColor=#60a917;fontColor=#ffffff;" parent="1" vertex="1"><mxGeometry x="-135" y="2140" width="40" height="30" as="geometry"/></mxCell><mxCell id="293" value="&lt;font color=&quot;#000000&quot;&gt;&lt;span style=&quot;font-size: 18px;&quot;&gt;7&lt;/span&gt;&lt;/font&gt;" style="rounded=0;whiteSpace=wrap;html=1;strokeColor=#2D7600;strokeWidth=1;fillColor=#60a917;fontColor=#ffffff;" parent="1" vertex="1"><mxGeometry x="-95" y="2140" width="40" height="30" as="geometry"/></mxCell><mxCell id="294" value="&lt;font color=&quot;#000000&quot;&gt;&lt;span style=&quot;font-size: 18px;&quot;&gt;8&lt;/span&gt;&lt;/font&gt;" style="rounded=0;whiteSpace=wrap;html=1;strokeColor=#2D7600;strokeWidth=1;fillColor=#60a917;fontColor=#ffffff;" parent="1" vertex="1"><mxGeometry x="-55" y="2140" width="40" height="30" as="geometry"/></mxCell><mxCell id="295" value="&lt;span style=&quot;font-family: Consolas, 微软雅黑, monospace, Consolas, &amp;quot;Courier New&amp;quot;, monospace; font-size: 14px; text-align: left; background-color: rgb(31, 31, 31); color: rgb(78, 201, 176);&quot;&gt;iterator&lt;/span&gt;&lt;span style=&quot;color: rgb(204, 204, 204); font-family: Consolas, 微软雅黑, monospace, Consolas, &amp;quot;Courier New&amp;quot;, monospace; font-size: 14px; text-align: left; background-color: rgb(31, 31, 31);&quot;&gt;&amp;nbsp;__&lt;/span&gt;&lt;span style=&quot;font-family: Consolas, 微软雅黑, monospace, Consolas, &amp;quot;Courier New&amp;quot;, monospace; font-size: 14px; text-align: left; background-color: rgb(31, 31, 31); color: rgb(156, 220, 254);&quot;&gt;pos&lt;/span&gt;" style="text;html=1;strokeColor=none;fillColor=none;align=center;verticalAlign=middle;whiteSpace=wrap;rounded=0;fontSize=15;" parent="1" vertex="1"><mxGeometry x="-233.5" y="1950" width="122" height="20" as="geometry"/></mxCell><mxCell id="296" value="" style="endArrow=classic;html=1;strokeWidth=1;fontSize=18;fontColor=#000000;endSize=6;exitX=0.25;exitY=1;exitDx=0;exitDy=0;" parent="1" source="295" target="206" edge="1"><mxGeometry width="50" height="50" relative="1" as="geometry"><mxPoint x="-240" y="2060" as="sourcePoint"/><mxPoint x="-190" y="2010" as="targetPoint"/></mxGeometry></mxCell><mxCell id="297" value="&lt;span style=&quot;color: rgb(204, 204, 204); font-family: Consolas, 微软雅黑, monospace, Consolas, &amp;quot;Courier New&amp;quot;, monospace; font-size: 14px; text-align: left; background-color: rgb(31, 31, 31);&quot;&gt;&amp;nbsp;*__&lt;/span&gt;&lt;span style=&quot;font-family: Consolas, 微软雅黑, monospace, Consolas, &amp;quot;Courier New&amp;quot;, monospace; font-size: 14px; text-align: left; background-color: rgb(31, 31, 31); color: rgb(156, 220, 254);&quot;&gt;pos = valueCopy;&lt;/span&gt;" style="text;html=1;strokeColor=none;fillColor=none;align=center;verticalAlign=middle;whiteSpace=wrap;rounded=0;fontSize=15;" parent="1" vertex="1"><mxGeometry x="-200" y="2210" width="165" height="20" as="geometry"/></mxCell><mxCell id="298" value="" style="endArrow=classic;html=1;strokeWidth=1;fontSize=18;fontColor=#000000;endSize=6;entryX=0.75;entryY=1;entryDx=0;entryDy=0;exitX=0.325;exitY=-0.117;exitDx=0;exitDy=0;exitPerimeter=0;" parent="1" source="297" target="289" edge="1"><mxGeometry width="50" height="50" relative="1" as="geometry"><mxPoint x="-190" y="2240" as="sourcePoint"/><mxPoint x="-140" y="2190" as="targetPoint"/></mxGeometry></mxCell><mxCell id="299" value="&lt;span style=&quot;font-family: Consolas, 微软雅黑, monospace, Consolas, &amp;quot;Courier New&amp;quot;, monospace; font-size: 14px; text-align: left; background-color: rgb(31, 31, 31); color: rgb(78, 201, 176);&quot;&gt;iterator&lt;/span&gt;&lt;span style=&quot;color: rgb(204, 204, 204); font-family: Consolas, 微软雅黑, monospace, Consolas, &amp;quot;Courier New&amp;quot;, monospace; font-size: 14px; text-align: left; background-color: rgb(31, 31, 31);&quot;&gt;&amp;nbsp;__&lt;/span&gt;&lt;span style=&quot;font-family: Consolas, 微软雅黑, monospace, Consolas, &amp;quot;Courier New&amp;quot;, monospace; font-size: 14px; text-align: left; background-color: rgb(31, 31, 31); color: rgb(156, 220, 254);&quot;&gt;pos&lt;/span&gt;" style="text;html=1;strokeColor=none;fillColor=none;align=center;verticalAlign=middle;whiteSpace=wrap;rounded=0;fontSize=15;" parent="1" vertex="1"><mxGeometry x="-266" y="1220" width="122" height="20" as="geometry"/></mxCell><mxCell id="300" value="" style="endArrow=classic;html=1;strokeWidth=1;fontSize=18;fontColor=#000000;endSize=6;entryX=0.5;entryY=1;entryDx=0;entryDy=0;exitX=0.25;exitY=0;exitDx=0;exitDy=0;" parent="1" source="299" target="105" edge="1"><mxGeometry width="50" height="50" relative="1" as="geometry"><mxPoint x="-250" y="1220" as="sourcePoint"/><mxPoint x="-200" y="1170" as="targetPoint"/></mxGeometry></mxCell><mxCell id="301" value="&lt;b&gt;&lt;font style=&quot;font-size: 25px;&quot;&gt;3&lt;/font&gt;&lt;/b&gt;" style="rounded=0;whiteSpace=wrap;html=1;fontSize=18;" parent="1" vertex="1"><mxGeometry x="-90" y="1920" width="40" height="40" as="geometry"/></mxCell><mxCell id="302" value="&lt;b&gt;&lt;font style=&quot;font-size: 25px;&quot;&gt;5&lt;/font&gt;&lt;/b&gt;" style="rounded=0;whiteSpace=wrap;html=1;fontSize=18;" parent="1" vertex="1"><mxGeometry x="-70" y="2170" width="40" height="40" as="geometry"/></mxCell><mxCell id="380" style="edgeStyle=none;html=1;exitX=0.75;exitY=1;exitDx=0;exitDy=0;entryX=0;entryY=0.25;entryDx=0;entryDy=0;strokeWidth=1;fontSize=50;fontColor=#000000;endSize=6;" parent="1" source="303" target="379" edge="1"><mxGeometry relative="1" as="geometry"/></mxCell><mxCell id="303" value="&lt;div style=&quot;text-align: left;&quot;&gt;&lt;span style=&quot;font-size: 30px; background-color: initial;&quot;&gt;情况 2：&lt;/span&gt;&lt;font style=&quot;font-size: 30px;&quot;&gt;&lt;span style=&quot;background-color: initial; font-family: Consolas, 微软雅黑, monospace, Consolas, &amp;quot;Courier New&amp;quot;, monospace; color: rgb(156, 220, 254);&quot;&gt;index&lt;/span&gt;&lt;span style=&quot;background-color: rgb(31, 31, 31); color: rgb(204, 204, 204); font-family: Consolas, 微软雅黑, monospace, Consolas, &amp;quot;Courier New&amp;quot;, monospace;&quot;&gt;&amp;nbsp;&lt;/span&gt;&lt;span style=&quot;font-family: Consolas, 微软雅黑, monospace, Consolas, &amp;quot;Courier New&amp;quot;, monospace; background-color: rgb(24, 20, 29);&quot;&gt;&lt;font color=&quot;#d4d4d4&quot;&gt;&amp;gt;&lt;/font&gt;&lt;/span&gt;&lt;span style=&quot;background-color: rgb(31, 31, 31); color: rgb(204, 204, 204); font-family: Consolas, 微软雅黑, monospace, Consolas, &amp;quot;Courier New&amp;quot;, monospace;&quot;&gt;&amp;nbsp;(&lt;/span&gt;&lt;span style=&quot;background-color: initial; font-family: Consolas, 微软雅黑, monospace, Consolas, &amp;quot;Courier New&amp;quot;, monospace; color: rgb(86, 156, 214);&quot;&gt;this&lt;/span&gt;&lt;span style=&quot;background-color: rgb(31, 31, 31); color: rgb(204, 204, 204); font-family: Consolas, 微软雅黑, monospace, Consolas, &amp;quot;Courier New&amp;quot;, monospace;&quot;&gt;-&amp;gt;&lt;/span&gt;&lt;span style=&quot;background-color: initial; font-family: Consolas, 微软雅黑, monospace, Consolas, &amp;quot;Courier New&amp;quot;, monospace; color: rgb(220, 220, 170);&quot;&gt;size&lt;/span&gt;&lt;span style=&quot;background-color: rgb(31, 31, 31); color: rgb(204, 204, 204); font-family: Consolas, 微软雅黑, monospace, Consolas, &amp;quot;Courier New&amp;quot;, monospace;&quot;&gt;() &lt;/span&gt;&lt;span style=&quot;background-color: initial; font-family: Consolas, 微软雅黑, monospace, Consolas, &amp;quot;Courier New&amp;quot;, monospace; color: rgb(212, 212, 212);&quot;&gt;&amp;gt;&amp;gt;&lt;/span&gt;&lt;span style=&quot;background-color: rgb(31, 31, 31); color: rgb(204, 204, 204); font-family: Consolas, 微软雅黑, monospace, Consolas, &amp;quot;Courier New&amp;quot;, monospace;&quot;&gt; &lt;/span&gt;&lt;span style=&quot;background-color: initial; font-family: Consolas, 微软雅黑, monospace, Consolas, &amp;quot;Courier New&amp;quot;, monospace; color: rgb(181, 206, 168);&quot;&gt;1&lt;/span&gt;&lt;span style=&quot;background-color: rgb(31, 31, 31); color: rgb(204, 204, 204); font-family: Consolas, 微软雅黑, monospace, Consolas, &amp;quot;Courier New&amp;quot;, monospace;&quot;&gt;)&lt;/span&gt;&lt;/font&gt;&lt;/div&gt;&lt;font style=&quot;font-size: 30px;&quot;&gt;&lt;div style=&quot;text-align: left;&quot;&gt;&lt;span style=&quot;background-color: rgb(31, 31, 31); color: rgb(204, 204, 204); font-family: Consolas, 微软雅黑, monospace, Consolas, &amp;quot;Courier New&amp;quot;, monospace;&quot;&gt;即插入点之后元素较少的情况。&lt;/span&gt;&lt;/div&gt;&lt;/font&gt;" style="text;html=1;strokeColor=none;fillColor=none;align=center;verticalAlign=middle;whiteSpace=wrap;rounded=0;fontSize=35;" parent="1" vertex="1"><mxGeometry x="680" width="580" height="90" as="geometry"/></mxCell><mxCell id="304" value="" style="rounded=0;whiteSpace=wrap;html=1;" parent="1" vertex="1"><mxGeometry x="1400" y="725" width="50" height="40" as="geometry"/></mxCell><mxCell id="305" value="" style="rounded=0;whiteSpace=wrap;html=1;" parent="1" vertex="1"><mxGeometry x="1450" y="725" width="50" height="40" as="geometry"/></mxCell><mxCell id="306" value="" style="rounded=0;whiteSpace=wrap;html=1;strokeWidth=3;fillColor=#1ba1e2;fontColor=#ffffff;strokeColor=#006EAF;" parent="1" vertex="1"><mxGeometry x="1500" y="725" width="50" height="40" as="geometry"/></mxCell><mxCell id="307" value="" style="rounded=0;whiteSpace=wrap;html=1;fillColor=#1ba1e2;fontColor=#ffffff;strokeColor=#006EAF;strokeWidth=3;" parent="1" vertex="1"><mxGeometry x="1550" y="725" width="50" height="40" as="geometry"/></mxCell><mxCell id="308" value="" style="rounded=0;whiteSpace=wrap;html=1;strokeWidth=3;fillColor=#1ba1e2;fontColor=#ffffff;strokeColor=#006EAF;" parent="1" vertex="1"><mxGeometry x="1600" y="725" width="50" height="40" as="geometry"/></mxCell><mxCell id="309" value="" style="rounded=0;whiteSpace=wrap;html=1;" parent="1" vertex="1"><mxGeometry x="1650" y="725" width="50" height="40" as="geometry"/></mxCell><mxCell id="310" value="" style="rounded=0;whiteSpace=wrap;html=1;" parent="1" vertex="1"><mxGeometry x="1700" y="725" width="50" height="40" as="geometry"/></mxCell><mxCell id="311" value="" style="rounded=0;whiteSpace=wrap;html=1;" parent="1" vertex="1"><mxGeometry x="1750" y="725" width="50" height="40" as="geometry"/></mxCell><mxCell id="312" value="&lt;div style=&quot;color: rgb(204, 204, 204); background-color: rgb(31, 31, 31); font-family: Consolas, 微软雅黑, monospace, Consolas, &amp;quot;Courier New&amp;quot;, monospace; font-size: 14px; line-height: 19px;&quot;&gt;&lt;span style=&quot;color: #4ec9b0;&quot;&gt;&lt;b&gt;map_pointer&lt;/b&gt;&lt;/span&gt; &lt;span style=&quot;color: #9cdcfe;&quot;&gt;map&lt;/span&gt;&lt;/div&gt;" style="text;html=1;strokeColor=default;fillColor=none;align=center;verticalAlign=middle;whiteSpace=wrap;rounded=0;dashed=1;dashPattern=1 4;" parent="1" vertex="1"><mxGeometry x="1285" y="805" width="120" height="30" as="geometry"/></mxCell><mxCell id="313" value="" style="endArrow=classic;html=1;entryX=0;entryY=1;entryDx=0;entryDy=0;exitX=0.75;exitY=0;exitDx=0;exitDy=0;" parent="1" source="312" target="304" edge="1"><mxGeometry width="50" height="50" relative="1" as="geometry"><mxPoint x="1330" y="795" as="sourcePoint"/><mxPoint x="1380" y="745" as="targetPoint"/></mxGeometry></mxCell><mxCell id="314" value="" style="curved=1;endArrow=classic;html=1;entryX=0;entryY=1;entryDx=0;entryDy=0;strokeWidth=2;" parent="1" source="306" target="317" edge="1"><mxGeometry width="50" height="50" relative="1" as="geometry"><mxPoint x="1410" y="635" as="sourcePoint"/><mxPoint x="1340" y="505" as="targetPoint"/><Array as="points"><mxPoint x="1480" y="655"/><mxPoint x="1320" y="595"/></Array></mxGeometry></mxCell><mxCell id="315" value="&lt;div style=&quot;color: rgb(204, 204, 204); background-color: rgb(31, 31, 31); font-family: Consolas, 微软雅黑, monospace, Consolas, &amp;quot;Courier New&amp;quot;, monospace; font-size: 14px; line-height: 19px;&quot;&gt;&lt;span style=&quot;color: #4ec9b0;&quot;&gt;&lt;b&gt;iterator&lt;/b&gt;&lt;/span&gt; &lt;span style=&quot;color: #9cdcfe;&quot;&gt;start&lt;/span&gt;&lt;/div&gt;" style="text;html=1;strokeColor=default;fillColor=none;align=center;verticalAlign=middle;whiteSpace=wrap;rounded=0;dashed=1;dashPattern=1 4;strokeWidth=1;" parent="1" vertex="1"><mxGeometry x="770" y="845" width="110" height="20" as="geometry"/></mxCell><mxCell id="316" value="&lt;div style=&quot;color: rgb(204, 204, 204); background-color: rgb(31, 31, 31); font-family: Consolas, 微软雅黑, monospace, Consolas, &amp;quot;Courier New&amp;quot;, monospace; font-size: 14px; line-height: 19px;&quot;&gt;&lt;span style=&quot;color: #4ec9b0;&quot;&gt;&lt;b&gt;iterator&lt;/b&gt;&lt;/span&gt; &lt;span style=&quot;color: #9cdcfe;&quot;&gt;finish&lt;/span&gt;&lt;/div&gt;" style="text;html=1;strokeColor=default;fillColor=none;align=center;verticalAlign=middle;whiteSpace=wrap;rounded=0;dashed=1;dashPattern=1 4;strokeWidth=1;" parent="1" vertex="1"><mxGeometry x="1720" y="935" width="120" height="20" as="geometry"/></mxCell><mxCell id="317" value="" style="rounded=0;whiteSpace=wrap;html=1;strokeColor=default;strokeWidth=1;" parent="1" vertex="1"><mxGeometry x="1240" y="475" width="320" height="30" as="geometry"/></mxCell><mxCell id="318" value="" style="rounded=0;whiteSpace=wrap;html=1;strokeColor=#2D7600;strokeWidth=1;fillColor=#60a917;fontColor=#ffffff;" parent="1" vertex="1"><mxGeometry x="1465" y="370" width="320" height="30" as="geometry"/></mxCell><mxCell id="319" value="" style="curved=1;endArrow=classic;html=1;entryX=0;entryY=1;entryDx=0;entryDy=0;strokeWidth=2;" parent="1" target="318" edge="1"><mxGeometry width="50" height="50" relative="1" as="geometry"><mxPoint x="1570" y="725" as="sourcePoint"/><mxPoint x="1560" y="455" as="targetPoint"/><Array as="points"><mxPoint x="1550" y="705"/><mxPoint x="1540" y="665"/><mxPoint x="1700" y="475"/></Array></mxGeometry></mxCell><mxCell id="320" value="" style="curved=1;endArrow=classic;html=1;entryX=0;entryY=0.75;entryDx=0;entryDy=0;strokeWidth=2;" parent="1" target="356" edge="1"><mxGeometry width="50" height="50" relative="1" as="geometry"><mxPoint x="1620" y="725" as="sourcePoint"/><mxPoint x="1710" y="535" as="targetPoint"/><Array as="points"><mxPoint x="1760" y="695"/><mxPoint x="1800" y="625"/><mxPoint x="1830" y="555"/></Array></mxGeometry></mxCell><mxCell id="321" value="" style="rounded=0;whiteSpace=wrap;html=1;strokeColor=#2D7600;strokeWidth=1;fillColor=#60a917;fontColor=#ffffff;" parent="1" vertex="1"><mxGeometry x="1240" y="475" width="40" height="30" as="geometry"/></mxCell><mxCell id="322" value="" style="rounded=0;whiteSpace=wrap;html=1;strokeColor=#2D7600;strokeWidth=1;fillColor=#60a917;fontColor=#ffffff;" parent="1" vertex="1"><mxGeometry x="1280" y="475" width="40" height="30" as="geometry"/></mxCell><mxCell id="323" value="" style="rounded=0;whiteSpace=wrap;html=1;strokeColor=#2D7600;strokeWidth=1;fillColor=#60a917;fontColor=#ffffff;" parent="1" vertex="1"><mxGeometry x="1320" y="475" width="40" height="30" as="geometry"/></mxCell><mxCell id="324" value="" style="rounded=0;whiteSpace=wrap;html=1;strokeColor=#2D7600;strokeWidth=1;fillColor=#60a917;fontColor=#ffffff;" parent="1" vertex="1"><mxGeometry x="1360" y="475" width="40" height="30" as="geometry"/></mxCell><mxCell id="325" value="" style="rounded=0;whiteSpace=wrap;html=1;strokeColor=#2D7600;strokeWidth=1;fillColor=#60a917;fontColor=#ffffff;" parent="1" vertex="1"><mxGeometry x="1400" y="475" width="40" height="30" as="geometry"/></mxCell><mxCell id="326" value="" style="rounded=0;whiteSpace=wrap;html=1;strokeColor=#2D7600;strokeWidth=1;fillColor=#60a917;fontColor=#ffffff;" parent="1" vertex="1"><mxGeometry x="1440" y="475" width="40" height="30" as="geometry"/></mxCell><mxCell id="327" value="" style="rounded=0;whiteSpace=wrap;html=1;strokeColor=#2D7600;strokeWidth=1;fillColor=#60a917;fontColor=#ffffff;" parent="1" vertex="1"><mxGeometry x="1480" y="475" width="40" height="30" as="geometry"/></mxCell><mxCell id="328" value="" style="rounded=0;whiteSpace=wrap;html=1;strokeColor=#2D7600;strokeWidth=1;fillColor=#60a917;fontColor=#ffffff;" parent="1" vertex="1"><mxGeometry x="1520" y="475" width="40" height="30" as="geometry"/></mxCell><mxCell id="329" value="" style="rounded=0;whiteSpace=wrap;html=1;strokeColor=#2D7600;strokeWidth=1;fillColor=#60a917;fontColor=#ffffff;" parent="1" vertex="1"><mxGeometry x="1465" y="370" width="320" height="30" as="geometry"/></mxCell><mxCell id="330" value="" style="rounded=0;whiteSpace=wrap;html=1;strokeColor=#2D7600;strokeWidth=1;fillColor=#60a917;fontColor=#ffffff;" parent="1" vertex="1"><mxGeometry x="1465" y="370" width="40" height="30" as="geometry"/></mxCell><mxCell id="331" value="" style="rounded=0;whiteSpace=wrap;html=1;strokeColor=#2D7600;strokeWidth=1;fillColor=#60a917;fontColor=#ffffff;" parent="1" vertex="1"><mxGeometry x="1505" y="370" width="40" height="30" as="geometry"/></mxCell><mxCell id="332" value="" style="rounded=0;whiteSpace=wrap;html=1;strokeColor=#2D7600;strokeWidth=1;fillColor=#60a917;fontColor=#ffffff;" parent="1" vertex="1"><mxGeometry x="1545" y="370" width="40" height="30" as="geometry"/></mxCell><mxCell id="333" value="" style="rounded=0;whiteSpace=wrap;html=1;strokeColor=#2D7600;strokeWidth=1;fillColor=#60a917;fontColor=#ffffff;" parent="1" vertex="1"><mxGeometry x="1585" y="370" width="40" height="30" as="geometry"/></mxCell><mxCell id="334" value="" style="rounded=0;whiteSpace=wrap;html=1;strokeColor=#2D7600;strokeWidth=1;fillColor=#60a917;fontColor=#ffffff;" parent="1" vertex="1"><mxGeometry x="1625" y="370" width="40" height="30" as="geometry"/></mxCell><mxCell id="335" value="" style="rounded=0;whiteSpace=wrap;html=1;strokeColor=#2D7600;strokeWidth=1;fillColor=#60a917;fontColor=#ffffff;" parent="1" vertex="1"><mxGeometry x="1665" y="370" width="40" height="30" as="geometry"/></mxCell><mxCell id="336" value="" style="rounded=0;whiteSpace=wrap;html=1;strokeColor=#C73500;strokeWidth=1;fillColor=#fa6800;fontColor=#000000;" parent="1" vertex="1"><mxGeometry x="1705" y="370" width="40" height="30" as="geometry"/></mxCell><mxCell id="337" value="" style="rounded=0;whiteSpace=wrap;html=1;strokeColor=#2D7600;strokeWidth=1;fillColor=#60a917;fontColor=#ffffff;" parent="1" vertex="1"><mxGeometry x="1745" y="370" width="40" height="30" as="geometry"/></mxCell><mxCell id="338" value="&lt;div style=&quot;color: rgb(204, 204, 204); background-color: rgb(31, 31, 31); font-family: Consolas, 微软雅黑, monospace, Consolas, &amp;quot;Courier New&amp;quot;, monospace; font-size: 14px; line-height: 19px;&quot;&gt;&lt;span style=&quot;color: #4ec9b0;&quot;&gt;Type&lt;/span&gt;&lt;span style=&quot;color: #d4d4d4;&quot;&gt;*&lt;/span&gt; &lt;span style=&quot;color: #9cdcfe;&quot;&gt;first&lt;/span&gt;&lt;/div&gt;" style="rounded=0;whiteSpace=wrap;html=1;strokeColor=default;strokeWidth=1;" parent="1" vertex="1"><mxGeometry x="770" y="805" width="110" height="30" as="geometry"/></mxCell><mxCell id="339" value="&lt;div style=&quot;color: rgb(204, 204, 204); background-color: rgb(31, 31, 31); font-family: Consolas, 微软雅黑, monospace, Consolas, &amp;quot;Courier New&amp;quot;, monospace; font-size: 14px; line-height: 19px;&quot;&gt;&lt;span style=&quot;color: #4ec9b0;&quot;&gt;Type&lt;/span&gt;&lt;span style=&quot;color: #d4d4d4;&quot;&gt;*&lt;/span&gt; &lt;span style=&quot;color: #9cdcfe;&quot;&gt;last&lt;/span&gt;&lt;/div&gt;" style="rounded=0;whiteSpace=wrap;html=1;strokeColor=default;strokeWidth=1;" parent="1" vertex="1"><mxGeometry x="880" y="805" width="110" height="30" as="geometry"/></mxCell><mxCell id="340" value="&lt;div style=&quot;color: rgb(204, 204, 204); background-color: rgb(31, 31, 31); font-family: Consolas, 微软雅黑, monospace, Consolas, &amp;quot;Courier New&amp;quot;, monospace; font-size: 14px; line-height: 19px;&quot;&gt;&lt;span style=&quot;color: #4ec9b0;&quot;&gt;Type&lt;/span&gt;&lt;span style=&quot;color: #d4d4d4;&quot;&gt;*&lt;/span&gt; &lt;span style=&quot;color: #9cdcfe;&quot;&gt;current&lt;/span&gt;&lt;/div&gt;" style="rounded=0;whiteSpace=wrap;html=1;strokeColor=default;strokeWidth=1;" parent="1" vertex="1"><mxGeometry x="990" y="805" width="120" height="30" as="geometry"/></mxCell><mxCell id="341" value="&lt;div style=&quot;color: rgb(204, 204, 204); background-color: rgb(31, 31, 31); font-family: Consolas, 微软雅黑, monospace, Consolas, &amp;quot;Courier New&amp;quot;, monospace; font-size: 14px; line-height: 19px;&quot;&gt;&lt;span style=&quot;color: #4ec9b0;&quot;&gt;map_pointer&lt;/span&gt; &lt;span style=&quot;color: #9cdcfe;&quot;&gt;node&lt;/span&gt;&lt;/div&gt;" style="rounded=0;whiteSpace=wrap;html=1;strokeColor=default;strokeWidth=1;" parent="1" vertex="1"><mxGeometry x="1110" y="805" width="130" height="30" as="geometry"/></mxCell><mxCell id="342" value="" style="edgeStyle=elbowEdgeStyle;elbow=vertical;endArrow=classic;html=1;curved=0;rounded=0;endSize=8;startSize=8;exitX=0.75;exitY=1;exitDx=0;exitDy=0;entryX=0.5;entryY=1;entryDx=0;entryDy=0;strokeWidth=2;" parent="1" source="341" target="306" edge="1"><mxGeometry width="50" height="50" relative="1" as="geometry"><mxPoint x="1150" y="915" as="sourcePoint"/><mxPoint x="1570" y="915" as="targetPoint"/><Array as="points"><mxPoint x="1350" y="885"/></Array></mxGeometry></mxCell><mxCell id="343" value="" style="curved=1;endArrow=classic;html=1;exitX=0.4;exitY=0.033;exitDx=0;exitDy=0;exitPerimeter=0;entryX=0.5;entryY=0;entryDx=0;entryDy=0;" parent="1" source="338" target="321" edge="1"><mxGeometry width="50" height="50" relative="1" as="geometry"><mxPoint x="930" y="785" as="sourcePoint"/><mxPoint x="1250" y="435" as="targetPoint"/><Array as="points"><mxPoint x="1030" y="715"/><mxPoint x="900" y="525"/><mxPoint x="1120" y="385"/></Array></mxGeometry></mxCell><mxCell id="344" value="" style="curved=1;endArrow=classic;html=1;entryX=1;entryY=1;entryDx=0;entryDy=0;exitX=0.25;exitY=0;exitDx=0;exitDy=0;" parent="1" source="339" target="328" edge="1"><mxGeometry width="50" height="50" relative="1" as="geometry"><mxPoint x="950" y="805" as="sourcePoint"/><mxPoint x="1000" y="755" as="targetPoint"/><Array as="points"><mxPoint x="1060" y="605"/><mxPoint x="1250" y="595"/></Array></mxGeometry></mxCell><mxCell id="345" value="" style="curved=1;endArrow=classic;html=1;exitX=0.592;exitY=0.033;exitDx=0;exitDy=0;exitPerimeter=0;entryX=0;entryY=1;entryDx=0;entryDy=0;" parent="1" source="340" target="321" edge="1"><mxGeometry width="50" height="50" relative="1" as="geometry"><mxPoint x="1070" y="795" as="sourcePoint"/><mxPoint x="1120" y="745" as="targetPoint"/><Array as="points"><mxPoint x="1100" y="655"/><mxPoint x="1220" y="685"/></Array></mxGeometry></mxCell><mxCell id="346" value="&lt;div style=&quot;color: rgb(204, 204, 204); background-color: rgb(31, 31, 31); font-family: Consolas, 微软雅黑, monospace, Consolas, &amp;quot;Courier New&amp;quot;, monospace; font-size: 14px; line-height: 19px;&quot;&gt;&lt;span style=&quot;color: #4ec9b0;&quot;&gt;Type&lt;/span&gt;&lt;span style=&quot;color: #d4d4d4;&quot;&gt;*&lt;/span&gt; &lt;span style=&quot;color: #9cdcfe;&quot;&gt;first&lt;/span&gt;&lt;/div&gt;" style="rounded=0;whiteSpace=wrap;html=1;strokeColor=default;strokeWidth=1;" parent="1" vertex="1"><mxGeometry x="1720" y="895" width="110" height="30" as="geometry"/></mxCell><mxCell id="347" value="&lt;div style=&quot;color: rgb(204, 204, 204); background-color: rgb(31, 31, 31); font-family: Consolas, 微软雅黑, monospace, Consolas, &amp;quot;Courier New&amp;quot;, monospace; font-size: 14px; line-height: 19px;&quot;&gt;&lt;span style=&quot;color: #4ec9b0;&quot;&gt;Type&lt;/span&gt;&lt;span style=&quot;color: #d4d4d4;&quot;&gt;*&lt;/span&gt; &lt;span style=&quot;color: #9cdcfe;&quot;&gt;last&lt;/span&gt;&lt;/div&gt;" style="rounded=0;whiteSpace=wrap;html=1;strokeColor=default;strokeWidth=1;" parent="1" vertex="1"><mxGeometry x="1830" y="895" width="110" height="30" as="geometry"/></mxCell><mxCell id="348" value="&lt;div style=&quot;color: rgb(204, 204, 204); background-color: rgb(31, 31, 31); font-family: Consolas, 微软雅黑, monospace, Consolas, &amp;quot;Courier New&amp;quot;, monospace; font-size: 14px; line-height: 19px;&quot;&gt;&lt;span style=&quot;color: #4ec9b0;&quot;&gt;Type&lt;/span&gt;&lt;span style=&quot;color: #d4d4d4;&quot;&gt;*&lt;/span&gt; &lt;span style=&quot;color: #9cdcfe;&quot;&gt;current&lt;/span&gt;&lt;/div&gt;" style="rounded=0;whiteSpace=wrap;html=1;strokeColor=default;strokeWidth=1;" parent="1" vertex="1"><mxGeometry x="1940" y="895" width="120" height="30" as="geometry"/></mxCell><mxCell id="349" value="&lt;div style=&quot;color: rgb(204, 204, 204); background-color: rgb(31, 31, 31); font-family: Consolas, 微软雅黑, monospace, Consolas, &amp;quot;Courier New&amp;quot;, monospace; font-size: 14px; line-height: 19px;&quot;&gt;&lt;span style=&quot;color: #4ec9b0;&quot;&gt;map_pointer&lt;/span&gt; &lt;span style=&quot;color: #9cdcfe;&quot;&gt;node&lt;/span&gt;&lt;/div&gt;" style="rounded=0;whiteSpace=wrap;html=1;strokeColor=default;strokeWidth=1;" parent="1" vertex="1"><mxGeometry x="2060" y="895" width="130" height="30" as="geometry"/></mxCell><mxCell id="350" value="" style="edgeStyle=elbowEdgeStyle;elbow=vertical;endArrow=classic;html=1;curved=0;rounded=0;endSize=8;startSize=8;strokeWidth=2;exitX=0.25;exitY=0;exitDx=0;exitDy=0;entryX=0.5;entryY=1;entryDx=0;entryDy=0;" parent="1" target="308" edge="1"><mxGeometry width="50" height="50" relative="1" as="geometry"><mxPoint x="2092.4999999999995" y="895" as="sourcePoint"/><mxPoint x="1625" y="775" as="targetPoint"/><Array as="points"><mxPoint x="1880" y="835"/></Array></mxGeometry></mxCell><mxCell id="351" value="" style="curved=1;endArrow=classic;html=1;strokeWidth=1;entryX=0.75;entryY=1;entryDx=0;entryDy=0;" parent="1" target="356" edge="1"><mxGeometry width="50" height="50" relative="1" as="geometry"><mxPoint x="1770" y="895" as="sourcePoint"/><mxPoint x="1730" y="535" as="targetPoint"/><Array as="points"><mxPoint x="1850" y="785"/><mxPoint x="1870" y="685"/><mxPoint x="1810" y="615"/></Array></mxGeometry></mxCell><mxCell id="352" value="" style="curved=1;endArrow=classic;html=1;strokeWidth=1;" parent="1" edge="1"><mxGeometry width="50" height="50" relative="1" as="geometry"><mxPoint x="1880" y="895" as="sourcePoint"/><mxPoint x="2200" y="565" as="targetPoint"/><Array as="points"><mxPoint x="1900" y="735"/><mxPoint x="2040" y="655"/><mxPoint x="2140" y="665"/></Array></mxGeometry></mxCell><mxCell id="353" value="" style="curved=1;endArrow=classic;html=1;strokeWidth=1;entryX=0.75;entryY=1;entryDx=0;entryDy=0;" parent="1" target="360" edge="1"><mxGeometry width="50" height="50" relative="1" as="geometry"><mxPoint x="1980" y="895" as="sourcePoint"/><mxPoint x="1970" y="535" as="targetPoint"/><Array as="points"><mxPoint x="2020" y="725"/><mxPoint x="1980" y="635"/></Array></mxGeometry></mxCell><mxCell id="354" value="" style="rounded=0;whiteSpace=wrap;html=1;strokeColor=default;strokeWidth=1;" parent="1" vertex="1"><mxGeometry x="1860" y="535" width="320" height="30" as="geometry"/></mxCell><mxCell id="355" value="" style="rounded=0;whiteSpace=wrap;html=1;strokeColor=default;strokeWidth=1;" parent="1" vertex="1"><mxGeometry x="1860" y="535" width="320" height="30" as="geometry"/></mxCell><mxCell id="356" value="" style="rounded=0;whiteSpace=wrap;html=1;strokeColor=#2D7600;strokeWidth=1;fillColor=#60a917;fontColor=#ffffff;" parent="1" vertex="1"><mxGeometry x="1860" y="535" width="40" height="30" as="geometry"/></mxCell><mxCell id="357" value="" style="rounded=0;whiteSpace=wrap;html=1;strokeColor=#2D7600;strokeWidth=1;fillColor=#60a917;fontColor=#ffffff;" parent="1" vertex="1"><mxGeometry x="1900" y="535" width="40" height="30" as="geometry"/></mxCell><mxCell id="358" value="" style="rounded=0;whiteSpace=wrap;html=1;strokeColor=#2D7600;strokeWidth=1;fillColor=#60a917;fontColor=#ffffff;" parent="1" vertex="1"><mxGeometry x="1940" y="535" width="40" height="30" as="geometry"/></mxCell><mxCell id="359" value="" style="rounded=0;whiteSpace=wrap;html=1;strokeColor=#B09500;strokeWidth=1;fillColor=#e3c800;fontColor=#000000;" parent="1" vertex="1"><mxGeometry x="1980" y="535" width="40" height="30" as="geometry"/></mxCell><mxCell id="360" value="" style="rounded=0;whiteSpace=wrap;html=1;strokeColor=#B09500;strokeWidth=1;fillColor=#e3c800;fontColor=#000000;" parent="1" vertex="1"><mxGeometry x="2020" y="535" width="40" height="30" as="geometry"/></mxCell><mxCell id="361" value="" style="rounded=0;whiteSpace=wrap;html=1;strokeColor=default;strokeWidth=1;" parent="1" vertex="1"><mxGeometry x="2060" y="535" width="40" height="30" as="geometry"/></mxCell><mxCell id="362" value="" style="rounded=0;whiteSpace=wrap;html=1;strokeColor=default;strokeWidth=1;" parent="1" vertex="1"><mxGeometry x="2100" y="535" width="40" height="30" as="geometry"/></mxCell><mxCell id="363" value="" style="rounded=0;whiteSpace=wrap;html=1;strokeColor=default;strokeWidth=1;" parent="1" vertex="1"><mxGeometry x="2140" y="535" width="40" height="30" as="geometry"/></mxCell><mxCell id="364" value="&lt;div style=&quot;color: rgb(204, 204, 204); background-color: rgb(31, 31, 31); font-family: Consolas, 微软雅黑, monospace, Consolas, &amp;quot;Courier New&amp;quot;, monospace; font-size: 14px; line-height: 19px;&quot;&gt;&lt;div&gt;&lt;span style=&quot;color: #6a9955;&quot;&gt;/**&lt;/span&gt;&lt;/div&gt;&lt;div&gt;&lt;span style=&quot;color: #6a9955;&quot;&gt;&amp;nbsp;* 调用 push_back 将当前容器内第一个元素的值插入，&lt;/span&gt;&lt;/div&gt;&lt;div&gt;&lt;span style=&quot;color: #6a9955;&quot;&gt;&amp;nbsp;* 这通常会触发 push_back_aux() &lt;/span&gt;&lt;/div&gt;&lt;div&gt;&lt;span style=&quot;color: #6a9955;&quot;&gt;&amp;nbsp;* 甚至 reserve_map_at_back() 操作，往后面增加缓冲区。&lt;/span&gt;&lt;/div&gt;&lt;div&gt;&lt;span style=&quot;color: #6a9955;&quot;&gt;*/&lt;/span&gt;&lt;/div&gt;&lt;div&gt;&lt;span style=&quot;color: rgb(86, 156, 214);&quot;&gt;this&lt;/span&gt;-&amp;gt;&lt;span style=&quot;color: rgb(220, 220, 170);&quot;&gt;push_back&lt;/span&gt;(&lt;span style=&quot;color: rgb(86, 156, 214);&quot;&gt;this&lt;/span&gt;-&amp;gt;&lt;span style=&quot;color: rgb(220, 220, 170);&quot;&gt;back&lt;/span&gt;());&lt;/div&gt;&lt;/div&gt;" style="text;html=1;strokeColor=none;fillColor=none;align=left;verticalAlign=middle;whiteSpace=wrap;rounded=0;labelBackgroundColor=#000000;fontSize=50;fontColor=#000000;" parent="1" vertex="1"><mxGeometry x="2080" y="410" width="400" height="120" as="geometry"/></mxCell><mxCell id="365" value="&lt;b&gt;&lt;font style=&quot;font-size: 25px;&quot;&gt;1&lt;/font&gt;&lt;/b&gt;" style="rounded=0;whiteSpace=wrap;html=1;fontSize=18;" parent="1" vertex="1"><mxGeometry x="2080.44" y="370" width="40" height="40" as="geometry"/></mxCell><mxCell id="367" value="" style="curved=1;endArrow=classic;html=1;strokeWidth=1;fontSize=50;fontColor=#000000;endSize=6;entryX=0.75;entryY=0;entryDx=0;entryDy=0;exitX=0.25;exitY=0;exitDx=0;exitDy=0;" parent="1" source="359" target="360" edge="1"><mxGeometry width="50" height="50" relative="1" as="geometry"><mxPoint x="2000" y="535" as="sourcePoint"/><mxPoint x="2050" y="495" as="targetPoint"/><Array as="points"><mxPoint x="1980" y="495"/><mxPoint x="2050" y="465"/></Array></mxGeometry></mxCell><mxCell id="368" value="&lt;font style=&quot;font-size: 15px;&quot;&gt;&lt;b&gt;copy value to&lt;/b&gt;&lt;/font&gt;" style="text;html=1;strokeColor=none;fillColor=none;align=center;verticalAlign=middle;whiteSpace=wrap;rounded=0;fontSize=25;rotation=0;" parent="1" vertex="1"><mxGeometry x="1970.44" y="454.72" width="99.12" height="20.14" as="geometry"/></mxCell><mxCell id="369" value="&lt;div style=&quot;color: rgb(204, 204, 204); background-color: rgb(31, 31, 31); font-family: Consolas, 微软雅黑, monospace, Consolas, &amp;quot;Courier New&amp;quot;, monospace; font-size: 14px; line-height: 19px;&quot;&gt;&lt;span style=&quot;color: #4ec9b0;&quot;&gt;iterator&lt;/span&gt; &lt;span style=&quot;color: #9cdcfe;&quot;&gt;__pos&lt;/span&gt;&lt;/div&gt;" style="text;html=1;strokeColor=none;fillColor=none;align=center;verticalAlign=middle;whiteSpace=wrap;rounded=0;" parent="1" vertex="1"><mxGeometry x="1650" y="275" width="110" height="20" as="geometry"/></mxCell><mxCell id="370" value="" style="endArrow=classic;html=1;strokeWidth=1;fontSize=50;fontColor=#000000;endSize=6;exitX=0.847;exitY=1.174;exitDx=0;exitDy=0;exitPerimeter=0;" parent="1" source="369" target="336" edge="1"><mxGeometry width="50" height="50" relative="1" as="geometry"><mxPoint x="1770" y="325" as="sourcePoint"/><mxPoint x="1820" y="275" as="targetPoint"/></mxGeometry></mxCell><mxCell id="376" style="edgeStyle=none;html=1;exitX=0;exitY=0.5;exitDx=0;exitDy=0;exitPerimeter=0;strokeWidth=1;fontSize=50;fontColor=#000000;endSize=6;" parent="1" source="375" edge="1"><mxGeometry relative="1" as="geometry"><mxPoint x="1290" y="275" as="targetPoint"/></mxGeometry></mxCell><mxCell id="375" value="" style="strokeWidth=2;html=1;shape=mxgraph.flowchart.annotation_2;align=left;labelPosition=right;pointerEvents=1;labelBackgroundColor=none;fontSize=50;fontColor=#000000;rotation=90;" parent="1" vertex="1"><mxGeometry x="1387.37" y="299.62" width="27" height="321.75" as="geometry"/></mxCell><mxCell id="378" style="edgeStyle=none;html=1;exitX=0;exitY=0.5;exitDx=0;exitDy=0;exitPerimeter=0;strokeWidth=1;fontSize=50;fontColor=#000000;endSize=6;" parent="1" source="377" edge="1"><mxGeometry relative="1" as="geometry"><mxPoint x="1290" y="275.0000000000002" as="targetPoint"/></mxGeometry></mxCell><mxCell id="377" value="" style="strokeWidth=2;html=1;shape=mxgraph.flowchart.annotation_2;align=left;labelPosition=right;pointerEvents=1;labelBackgroundColor=none;fontSize=50;fontColor=#000000;rotation=90;" parent="1" vertex="1"><mxGeometry x="1565" y="230" width="40" height="240" as="geometry"/></mxCell><mxCell id="379" value="&lt;div style=&quot;color: rgb(204, 204, 204); background-color: rgb(31, 31, 31); font-family: Consolas, 微软雅黑, monospace, Consolas, &amp;quot;Courier New&amp;quot;, monospace; font-size: 14px; line-height: 19px;&quot;&gt;&lt;span style=&quot;color: rgb(106, 153, 85);&quot;&gt;// 计算插入点 __pos 之前的元素数。&lt;/span&gt;&lt;span style=&quot;color: #4ec9b0;&quot;&gt;&lt;br&gt;&lt;/span&gt;&lt;/div&gt;&lt;div style=&quot;color: rgb(204, 204, 204); background-color: rgb(31, 31, 31); font-family: Consolas, 微软雅黑, monospace, Consolas, &amp;quot;Courier New&amp;quot;, monospace; font-size: 14px; line-height: 19px;&quot;&gt;&lt;span style=&quot;color: #4ec9b0;&quot;&gt;difference_type&lt;/span&gt; &lt;span style=&quot;color: #9cdcfe;&quot;&gt;index&lt;/span&gt; &lt;span style=&quot;color: #d4d4d4;&quot;&gt;=&lt;/span&gt; &lt;span style=&quot;color: #9cdcfe;&quot;&gt;__pos&lt;/span&gt; &lt;span style=&quot;color: #d4d4d4;&quot;&gt;-&lt;/span&gt; &lt;span style=&quot;color: #569cd6;&quot;&gt;this&lt;/span&gt;-&amp;gt;&lt;span style=&quot;color: #9cdcfe;&quot;&gt;start&lt;/span&gt;;&lt;/div&gt;" style="text;html=1;strokeColor=none;fillColor=none;align=left;verticalAlign=middle;whiteSpace=wrap;rounded=0;fontSize=15;" parent="1" vertex="1"><mxGeometry x="1155" y="215" width="345" height="45" as="geometry"/></mxCell><mxCell id="385" value="&lt;div style=&quot;color: rgb(204, 204, 204); background-color: rgb(31, 31, 31); font-family: Consolas, 微软雅黑, monospace, Consolas, &amp;quot;Courier New&amp;quot;, monospace; font-size: 14px; line-height: 19px;&quot;&gt;&lt;span style=&quot;color: #4ec9b0;&quot;&gt;Type&lt;/span&gt;&lt;span style=&quot;color: #d4d4d4;&quot;&gt;*&lt;/span&gt; &lt;span style=&quot;color: #9cdcfe;&quot;&gt;first&lt;/span&gt;&lt;/div&gt;" style="rounded=0;whiteSpace=wrap;html=1;strokeColor=default;strokeWidth=1;" parent="1" vertex="1"><mxGeometry x="1588" y="222.5" width="90" height="30" as="geometry"/></mxCell><mxCell id="386" value="&lt;div style=&quot;color: rgb(204, 204, 204); background-color: rgb(31, 31, 31); font-family: Consolas, 微软雅黑, monospace, Consolas, &amp;quot;Courier New&amp;quot;, monospace; font-size: 14px; line-height: 19px;&quot;&gt;&lt;span style=&quot;color: #4ec9b0;&quot;&gt;Type&lt;/span&gt;&lt;span style=&quot;color: #d4d4d4;&quot;&gt;*&lt;/span&gt; &lt;span style=&quot;color: #9cdcfe;&quot;&gt;last&lt;/span&gt;&lt;/div&gt;" style="rounded=0;whiteSpace=wrap;html=1;strokeColor=default;strokeWidth=1;" parent="1" vertex="1"><mxGeometry x="1679" y="222.5" width="80" height="30" as="geometry"/></mxCell><mxCell id="387" value="&lt;div style=&quot;color: rgb(204, 204, 204); background-color: rgb(31, 31, 31); font-family: Consolas, 微软雅黑, monospace, Consolas, &amp;quot;Courier New&amp;quot;, monospace; font-size: 14px; line-height: 19px;&quot;&gt;&lt;span style=&quot;color: #4ec9b0;&quot;&gt;Type&lt;/span&gt;&lt;span style=&quot;color: #d4d4d4;&quot;&gt;*&lt;/span&gt; &lt;span style=&quot;color: #9cdcfe;&quot;&gt;current&lt;/span&gt;&lt;/div&gt;" style="rounded=0;whiteSpace=wrap;html=1;strokeColor=default;strokeWidth=1;" parent="1" vertex="1"><mxGeometry x="1760" y="222.5" width="110" height="30" as="geometry"/></mxCell><mxCell id="388" value="&lt;div style=&quot;color: rgb(204, 204, 204); background-color: rgb(31, 31, 31); font-family: Consolas, 微软雅黑, monospace, Consolas, &amp;quot;Courier New&amp;quot;, monospace; font-size: 14px; line-height: 19px;&quot;&gt;&lt;span style=&quot;color: #4ec9b0;&quot;&gt;map_pointer&lt;/span&gt; &lt;span style=&quot;color: #9cdcfe;&quot;&gt;node&lt;/span&gt;&lt;/div&gt;" style="rounded=0;whiteSpace=wrap;html=1;strokeColor=default;strokeWidth=1;" parent="1" vertex="1"><mxGeometry x="1870" y="222.5" width="130" height="30" as="geometry"/></mxCell><mxCell id="389" value="&lt;div style=&quot;color: rgb(204, 204, 204); background-color: rgb(31, 31, 31); font-family: Consolas, 微软雅黑, monospace, Consolas, &amp;quot;Courier New&amp;quot;, monospace; font-size: 14px; line-height: 19px;&quot;&gt;&lt;span style=&quot;color: #4ec9b0;&quot;&gt;Type&lt;/span&gt;&lt;span style=&quot;color: #d4d4d4;&quot;&gt;*&lt;/span&gt; &lt;span style=&quot;color: #9cdcfe;&quot;&gt;first&lt;/span&gt;&lt;/div&gt;" style="rounded=0;whiteSpace=wrap;html=1;strokeColor=default;strokeWidth=1;" parent="1" vertex="1"><mxGeometry x="1830" y="190" width="90" height="30" as="geometry"/></mxCell><mxCell id="390" value="&lt;div style=&quot;color: rgb(204, 204, 204); background-color: rgb(31, 31, 31); font-family: Consolas, 微软雅黑, monospace, Consolas, &amp;quot;Courier New&amp;quot;, monospace; font-size: 14px; line-height: 19px;&quot;&gt;&lt;span style=&quot;color: #4ec9b0;&quot;&gt;Type&lt;/span&gt;&lt;span style=&quot;color: #d4d4d4;&quot;&gt;*&lt;/span&gt; &lt;span style=&quot;color: #9cdcfe;&quot;&gt;last&lt;/span&gt;&lt;/div&gt;" style="rounded=0;whiteSpace=wrap;html=1;strokeColor=default;strokeWidth=1;" parent="1" vertex="1"><mxGeometry x="1921" y="190" width="80" height="30" as="geometry"/></mxCell><mxCell id="391" value="&lt;div style=&quot;color: rgb(204, 204, 204); background-color: rgb(31, 31, 31); font-family: Consolas, 微软雅黑, monospace, Consolas, &amp;quot;Courier New&amp;quot;, monospace; font-size: 14px; line-height: 19px;&quot;&gt;&lt;span style=&quot;color: #4ec9b0;&quot;&gt;Type&lt;/span&gt;&lt;span style=&quot;color: #d4d4d4;&quot;&gt;*&lt;/span&gt; &lt;span style=&quot;color: #9cdcfe;&quot;&gt;current&lt;/span&gt;&lt;/div&gt;" style="rounded=0;whiteSpace=wrap;html=1;strokeColor=default;strokeWidth=1;" parent="1" vertex="1"><mxGeometry x="2002" y="190" width="110" height="30" as="geometry"/></mxCell><mxCell id="392" value="&lt;div style=&quot;color: rgb(204, 204, 204); background-color: rgb(31, 31, 31); font-family: Consolas, 微软雅黑, monospace, Consolas, &amp;quot;Courier New&amp;quot;, monospace; font-size: 14px; line-height: 19px;&quot;&gt;&lt;span style=&quot;color: #4ec9b0;&quot;&gt;map_pointer&lt;/span&gt; &lt;span style=&quot;color: #9cdcfe;&quot;&gt;node&lt;/span&gt;&lt;/div&gt;" style="rounded=0;whiteSpace=wrap;html=1;strokeColor=default;strokeWidth=1;" parent="1" vertex="1"><mxGeometry x="2112" y="190" width="130" height="30" as="geometry"/></mxCell><mxCell id="393" value="&lt;div style=&quot;background-color: rgb(31, 31, 31); font-family: Consolas, 微软雅黑, monospace, Consolas, &amp;quot;Courier New&amp;quot;, monospace; font-size: 14px; line-height: 19px;&quot;&gt;&lt;span style=&quot;color: rgb(204, 204, 204);&quot;&gt;&lt;span style=&quot;color: #4ec9b0;&quot;&gt;&lt;b&gt;iterator&lt;/b&gt;&lt;/span&gt;&amp;nbsp;&lt;/span&gt;&lt;font color=&quot;#9cdcfe&quot;&gt;back_2&lt;/font&gt;&lt;/div&gt;" style="text;html=1;strokeColor=default;fillColor=none;align=center;verticalAlign=middle;whiteSpace=wrap;rounded=0;dashed=1;dashPattern=1 4;strokeWidth=1;" parent="1" vertex="1"><mxGeometry x="1588" y="190" width="120" height="20" as="geometry"/></mxCell><mxCell id="394" value="&lt;div style=&quot;background-color: rgb(31, 31, 31); font-family: Consolas, 微软雅黑, monospace, Consolas, &amp;quot;Courier New&amp;quot;, monospace; font-size: 14px; line-height: 19px;&quot;&gt;&lt;span style=&quot;color: rgb(204, 204, 204);&quot;&gt;&lt;span style=&quot;color: #4ec9b0;&quot;&gt;&lt;b&gt;iterator&lt;/b&gt;&lt;/span&gt;&amp;nbsp;&lt;/span&gt;&lt;font color=&quot;#9cdcfe&quot;&gt;back_1&lt;/font&gt;&lt;/div&gt;" style="text;html=1;strokeColor=default;fillColor=none;align=center;verticalAlign=middle;whiteSpace=wrap;rounded=0;dashed=1;dashPattern=1 4;strokeWidth=1;" parent="1" vertex="1"><mxGeometry x="1830" y="156" width="120" height="20" as="geometry"/></mxCell><mxCell id="395" value="" style="curved=1;endArrow=classic;html=1;strokeWidth=1;fontSize=50;fontColor=#000000;endSize=6;exitX=0.5;exitY=1;exitDx=0;exitDy=0;entryX=0.5;entryY=0;entryDx=0;entryDy=0;" parent="1" source="387" target="358" edge="1"><mxGeometry width="50" height="50" relative="1" as="geometry"><mxPoint x="1840" y="365" as="sourcePoint"/><mxPoint x="1880" y="465" as="targetPoint"/><Array as="points"><mxPoint x="1880" y="315"/><mxPoint x="1800" y="375"/></Array></mxGeometry></mxCell><mxCell id="396" value="" style="curved=1;endArrow=classic;html=1;strokeWidth=1;fontSize=50;fontColor=#000000;endSize=6;entryX=0.5;entryY=0;entryDx=0;entryDy=0;exitX=0.75;exitY=1;exitDx=0;exitDy=0;" parent="1" source="391" target="359" edge="1"><mxGeometry width="50" height="50" relative="1" as="geometry"><mxPoint x="2010" y="365" as="sourcePoint"/><mxPoint x="2060" y="315" as="targetPoint"/><Array as="points"><mxPoint x="2060" y="365"/><mxPoint x="1990" y="345"/></Array></mxGeometry></mxCell><mxCell id="397" value="" style="curved=1;endArrow=classic;html=1;entryX=0;entryY=0.75;entryDx=0;entryDy=0;strokeWidth=2;" parent="1" edge="1"><mxGeometry width="50" height="50" relative="1" as="geometry"><mxPoint x="1620" y="725" as="sourcePoint"/><mxPoint x="1860" y="557.5" as="targetPoint"/><Array as="points"><mxPoint x="1760" y="695"/><mxPoint x="1800" y="625"/><mxPoint x="1830" y="555"/></Array></mxGeometry></mxCell><mxCell id="400" value="" style="curved=1;endArrow=classic;html=1;strokeWidth=2;fontSize=50;fontColor=#000000;endSize=6;entryX=0.5;entryY=0;entryDx=0;entryDy=0;exitX=0.688;exitY=1.05;exitDx=0;exitDy=0;exitPerimeter=0;" parent="1" source="388" target="308" edge="1"><mxGeometry width="50" height="50" relative="1" as="geometry"><mxPoint x="1750" y="515" as="sourcePoint"/><mxPoint x="1720" y="615" as="targetPoint"/><Array as="points"><mxPoint x="1880" y="515"/><mxPoint x="1720" y="465"/></Array></mxGeometry></mxCell><mxCell id="401" value="" style="curved=1;endArrow=classic;html=1;strokeWidth=2;fontSize=50;fontColor=#000000;endSize=6;entryX=0.5;entryY=0;entryDx=0;entryDy=0;exitX=0.75;exitY=1;exitDx=0;exitDy=0;" parent="1" source="392" edge="1"><mxGeometry width="50" height="50" relative="1" as="geometry"><mxPoint x="1959.4399999999996" y="250.43000000000023" as="sourcePoint"/><mxPoint x="1625" y="721.4300000000001" as="targetPoint"/><Array as="points"><mxPoint x="2020" y="275"/><mxPoint x="1880" y="511.43000000000006"/><mxPoint x="1730" y="465"/></Array></mxGeometry></mxCell><mxCell id="402" value="&lt;div style=&quot;color: rgb(204, 204, 204); background-color: rgb(31, 31, 31); font-family: Consolas, 微软雅黑, monospace, Consolas, &amp;quot;Courier New&amp;quot;, monospace; font-size: 14px; line-height: 19px;&quot;&gt;&lt;div&gt;&lt;span style=&quot;color: #6a9955;&quot;&gt;/**&lt;/span&gt;&lt;/div&gt;&lt;div&gt;&lt;span style=&quot;color: #6a9955;&quot;&gt;&amp;nbsp; * 创建两个迭代器 back_1 和 back_2，用于标记。&lt;/span&gt;&lt;/div&gt;&lt;div&gt;&lt;span style=&quot;color: #6a9955;&quot;&gt;*/&lt;/span&gt;&lt;/div&gt;&lt;div&gt;&lt;span style=&quot;color: #4ec9b0;&quot;&gt;iterator&lt;/span&gt; &lt;span style=&quot;color: #9cdcfe;&quot;&gt;back_1&lt;/span&gt; &lt;span style=&quot;color: #d4d4d4;&quot;&gt;=&lt;/span&gt; &lt;span style=&quot;color: #569cd6;&quot;&gt;this&lt;/span&gt;-&amp;gt;&lt;span style=&quot;color: #9cdcfe;&quot;&gt;finish&lt;/span&gt;; &lt;span style=&quot;color: #d4d4d4;&quot;&gt;--&lt;/span&gt;&lt;span style=&quot;color: #9cdcfe;&quot;&gt;back_1&lt;/span&gt;;&lt;/div&gt;&lt;div&gt;&lt;span style=&quot;color: #4ec9b0;&quot;&gt;iterator&lt;/span&gt; &lt;span style=&quot;color: #9cdcfe;&quot;&gt;back_2&lt;/span&gt; &lt;span style=&quot;color: #d4d4d4;&quot;&gt;=&lt;/span&gt; &lt;span style=&quot;color: #9cdcfe;&quot;&gt;back_1&lt;/span&gt;; &amp;nbsp; &amp;nbsp; &amp;nbsp; &lt;span style=&quot;color: #d4d4d4;&quot;&gt;--&lt;/span&gt;&lt;span style=&quot;color: #9cdcfe;&quot;&gt;back_2&lt;/span&gt;;&lt;/div&gt;&lt;/div&gt;" style="text;html=1;strokeColor=none;fillColor=none;align=left;verticalAlign=middle;whiteSpace=wrap;rounded=0;labelBackgroundColor=none;fontSize=50;fontColor=#000000;" parent="1" vertex="1"><mxGeometry x="1755" y="25" width="351" height="100" as="geometry"/></mxCell><mxCell id="403" value="&lt;b&gt;&lt;font style=&quot;font-size: 25px;&quot;&gt;2&lt;/font&gt;&lt;/b&gt;" style="rounded=0;whiteSpace=wrap;html=1;fontSize=18;" parent="1" vertex="1"><mxGeometry x="1755" y="-15" width="40" height="40" as="geometry"/></mxCell><mxCell id="406" value="" style="rounded=0;whiteSpace=wrap;html=1;" parent="1" vertex="1"><mxGeometry x="1490" y="1765" width="50" height="40" as="geometry"/></mxCell><mxCell id="407" value="" style="rounded=0;whiteSpace=wrap;html=1;" parent="1" vertex="1"><mxGeometry x="1540" y="1765" width="50" height="40" as="geometry"/></mxCell><mxCell id="408" value="" style="rounded=0;whiteSpace=wrap;html=1;strokeWidth=3;fillColor=#1ba1e2;fontColor=#ffffff;strokeColor=#006EAF;" parent="1" vertex="1"><mxGeometry x="1590" y="1765" width="50" height="40" as="geometry"/></mxCell><mxCell id="409" value="" style="rounded=0;whiteSpace=wrap;html=1;fillColor=#1ba1e2;fontColor=#ffffff;strokeColor=#006EAF;strokeWidth=3;" parent="1" vertex="1"><mxGeometry x="1640" y="1765" width="50" height="40" as="geometry"/></mxCell><mxCell id="410" value="" style="rounded=0;whiteSpace=wrap;html=1;strokeWidth=3;fillColor=#1ba1e2;fontColor=#ffffff;strokeColor=#006EAF;" parent="1" vertex="1"><mxGeometry x="1690" y="1765" width="50" height="40" as="geometry"/></mxCell><mxCell id="411" value="" style="rounded=0;whiteSpace=wrap;html=1;" parent="1" vertex="1"><mxGeometry x="1740" y="1765" width="50" height="40" as="geometry"/></mxCell><mxCell id="412" value="" style="rounded=0;whiteSpace=wrap;html=1;" parent="1" vertex="1"><mxGeometry x="1790" y="1765" width="50" height="40" as="geometry"/></mxCell><mxCell id="413" value="" style="rounded=0;whiteSpace=wrap;html=1;" parent="1" vertex="1"><mxGeometry x="1840" y="1765" width="50" height="40" as="geometry"/></mxCell><mxCell id="414" value="&lt;div style=&quot;color: rgb(204, 204, 204); background-color: rgb(31, 31, 31); font-family: Consolas, 微软雅黑, monospace, Consolas, &amp;quot;Courier New&amp;quot;, monospace; font-size: 14px; line-height: 19px;&quot;&gt;&lt;span style=&quot;color: #4ec9b0;&quot;&gt;&lt;b&gt;map_pointer&lt;/b&gt;&lt;/span&gt; &lt;span style=&quot;color: #9cdcfe;&quot;&gt;map&lt;/span&gt;&lt;/div&gt;" style="text;html=1;strokeColor=default;fillColor=none;align=center;verticalAlign=middle;whiteSpace=wrap;rounded=0;dashed=1;dashPattern=1 4;" parent="1" vertex="1"><mxGeometry x="1375" y="1845" width="120" height="30" as="geometry"/></mxCell><mxCell id="415" value="" style="endArrow=classic;html=1;entryX=0;entryY=1;entryDx=0;entryDy=0;exitX=0.75;exitY=0;exitDx=0;exitDy=0;" parent="1" source="414" target="406" edge="1"><mxGeometry width="50" height="50" relative="1" as="geometry"><mxPoint x="1420" y="1835" as="sourcePoint"/><mxPoint x="1470" y="1785" as="targetPoint"/></mxGeometry></mxCell><mxCell id="416" value="" style="curved=1;endArrow=classic;html=1;entryX=0;entryY=1;entryDx=0;entryDy=0;strokeWidth=2;" parent="1" source="408" target="419" edge="1"><mxGeometry width="50" height="50" relative="1" as="geometry"><mxPoint x="1500" y="1675" as="sourcePoint"/><mxPoint x="1430" y="1545" as="targetPoint"/><Array as="points"><mxPoint x="1570" y="1695"/><mxPoint x="1410" y="1635"/></Array></mxGeometry></mxCell><mxCell id="417" value="&lt;div style=&quot;color: rgb(204, 204, 204); background-color: rgb(31, 31, 31); font-family: Consolas, 微软雅黑, monospace, Consolas, &amp;quot;Courier New&amp;quot;, monospace; font-size: 14px; line-height: 19px;&quot;&gt;&lt;span style=&quot;color: #4ec9b0;&quot;&gt;&lt;b&gt;iterator&lt;/b&gt;&lt;/span&gt; &lt;span style=&quot;color: #9cdcfe;&quot;&gt;start&lt;/span&gt;&lt;/div&gt;" style="text;html=1;strokeColor=default;fillColor=none;align=center;verticalAlign=middle;whiteSpace=wrap;rounded=0;dashed=1;dashPattern=1 4;strokeWidth=1;" parent="1" vertex="1"><mxGeometry x="860" y="1885" width="110" height="20" as="geometry"/></mxCell><mxCell id="418" value="&lt;div style=&quot;color: rgb(204, 204, 204); background-color: rgb(31, 31, 31); font-family: Consolas, 微软雅黑, monospace, Consolas, &amp;quot;Courier New&amp;quot;, monospace; font-size: 14px; line-height: 19px;&quot;&gt;&lt;span style=&quot;color: #4ec9b0;&quot;&gt;&lt;b&gt;iterator&lt;/b&gt;&lt;/span&gt; &lt;span style=&quot;color: #9cdcfe;&quot;&gt;finish&lt;/span&gt;&lt;/div&gt;" style="text;html=1;strokeColor=default;fillColor=none;align=center;verticalAlign=middle;whiteSpace=wrap;rounded=0;dashed=1;dashPattern=1 4;strokeWidth=1;" parent="1" vertex="1"><mxGeometry x="1810" y="1975" width="120" height="20" as="geometry"/></mxCell><mxCell id="419" value="" style="rounded=0;whiteSpace=wrap;html=1;strokeColor=default;strokeWidth=1;" parent="1" vertex="1"><mxGeometry x="1330" y="1515" width="320" height="30" as="geometry"/></mxCell><mxCell id="420" value="" style="rounded=0;whiteSpace=wrap;html=1;strokeColor=#2D7600;strokeWidth=1;fillColor=#60a917;fontColor=#ffffff;" parent="1" vertex="1"><mxGeometry x="1555" y="1389.72" width="320" height="30" as="geometry"/></mxCell><mxCell id="421" value="" style="curved=1;endArrow=classic;html=1;strokeWidth=2;entryX=0;entryY=1;entryDx=0;entryDy=0;" parent="1" target="507" edge="1"><mxGeometry width="50" height="50" relative="1" as="geometry"><mxPoint x="1660" y="1765" as="sourcePoint"/><mxPoint x="1560" y="1485" as="targetPoint"/><Array as="points"><mxPoint x="1640" y="1745"/><mxPoint x="1630" y="1705"/><mxPoint x="1790" y="1515"/></Array></mxGeometry></mxCell><mxCell id="422" value="" style="curved=1;endArrow=classic;html=1;entryX=0;entryY=0.75;entryDx=0;entryDy=0;strokeWidth=2;" parent="1" target="458" edge="1"><mxGeometry width="50" height="50" relative="1" as="geometry"><mxPoint x="1710" y="1765" as="sourcePoint"/><mxPoint x="1800" y="1575" as="targetPoint"/><Array as="points"><mxPoint x="1850" y="1735"/><mxPoint x="1890" y="1665"/><mxPoint x="1920" y="1595"/></Array></mxGeometry></mxCell><mxCell id="423" value="" style="rounded=0;whiteSpace=wrap;html=1;strokeColor=#2D7600;strokeWidth=1;fillColor=#60a917;fontColor=#ffffff;" parent="1" vertex="1"><mxGeometry x="1330" y="1515" width="40" height="30" as="geometry"/></mxCell><mxCell id="424" value="" style="rounded=0;whiteSpace=wrap;html=1;strokeColor=#2D7600;strokeWidth=1;fillColor=#60a917;fontColor=#ffffff;" parent="1" vertex="1"><mxGeometry x="1370" y="1515" width="40" height="30" as="geometry"/></mxCell><mxCell id="425" value="" style="rounded=0;whiteSpace=wrap;html=1;strokeColor=#2D7600;strokeWidth=1;fillColor=#60a917;fontColor=#ffffff;" parent="1" vertex="1"><mxGeometry x="1410" y="1515" width="40" height="30" as="geometry"/></mxCell><mxCell id="426" value="" style="rounded=0;whiteSpace=wrap;html=1;strokeColor=#2D7600;strokeWidth=1;fillColor=#60a917;fontColor=#ffffff;" parent="1" vertex="1"><mxGeometry x="1450" y="1515" width="40" height="30" as="geometry"/></mxCell><mxCell id="427" value="" style="rounded=0;whiteSpace=wrap;html=1;strokeColor=#2D7600;strokeWidth=1;fillColor=#60a917;fontColor=#ffffff;" parent="1" vertex="1"><mxGeometry x="1490" y="1515" width="40" height="30" as="geometry"/></mxCell><mxCell id="428" value="" style="rounded=0;whiteSpace=wrap;html=1;strokeColor=#2D7600;strokeWidth=1;fillColor=#60a917;fontColor=#ffffff;" parent="1" vertex="1"><mxGeometry x="1530" y="1515" width="40" height="30" as="geometry"/></mxCell><mxCell id="429" value="" style="rounded=0;whiteSpace=wrap;html=1;strokeColor=#2D7600;strokeWidth=1;fillColor=#60a917;fontColor=#ffffff;" parent="1" vertex="1"><mxGeometry x="1570" y="1515" width="40" height="30" as="geometry"/></mxCell><mxCell id="430" value="" style="rounded=0;whiteSpace=wrap;html=1;strokeColor=#2D7600;strokeWidth=1;fillColor=#60a917;fontColor=#ffffff;" parent="1" vertex="1"><mxGeometry x="1610" y="1515" width="40" height="30" as="geometry"/></mxCell><mxCell id="431" value="" style="rounded=0;whiteSpace=wrap;html=1;strokeColor=#2D7600;strokeWidth=1;fillColor=#60a917;fontColor=#ffffff;" parent="1" vertex="1"><mxGeometry x="1555" y="1389.72" width="320" height="30" as="geometry"/></mxCell><mxCell id="432" value="&lt;font color=&quot;#000000&quot;&gt;&lt;span style=&quot;font-size: 18px;&quot;&gt;9&lt;/span&gt;&lt;/font&gt;" style="rounded=0;whiteSpace=wrap;html=1;strokeColor=#2D7600;strokeWidth=1;fillColor=#60a917;fontColor=#ffffff;" parent="1" vertex="1"><mxGeometry x="1555" y="1389.72" width="40" height="30" as="geometry"/></mxCell><mxCell id="433" value="&lt;font color=&quot;#000000&quot;&gt;&lt;span style=&quot;font-size: 18px;&quot;&gt;10&lt;/span&gt;&lt;/font&gt;" style="rounded=0;whiteSpace=wrap;html=1;strokeColor=#2D7600;strokeWidth=1;fillColor=#60a917;fontColor=#ffffff;" parent="1" vertex="1"><mxGeometry x="1595" y="1389.72" width="40" height="30" as="geometry"/></mxCell><mxCell id="434" value="&lt;font color=&quot;#000000&quot;&gt;&lt;span style=&quot;font-size: 18px;&quot;&gt;11&lt;/span&gt;&lt;/font&gt;" style="rounded=0;whiteSpace=wrap;html=1;strokeColor=#2D7600;strokeWidth=1;fillColor=#60a917;fontColor=#ffffff;" parent="1" vertex="1"><mxGeometry x="1635" y="1389.72" width="40" height="30" as="geometry"/></mxCell><mxCell id="435" value="&lt;font color=&quot;#000000&quot;&gt;&lt;span style=&quot;font-size: 18px;&quot;&gt;12&lt;/span&gt;&lt;/font&gt;" style="rounded=0;whiteSpace=wrap;html=1;strokeColor=#2D7600;strokeWidth=1;fillColor=#60a917;fontColor=#ffffff;" parent="1" vertex="1"><mxGeometry x="1675" y="1389.72" width="40" height="30" as="geometry"/></mxCell><mxCell id="436" value="&lt;font color=&quot;#000000&quot;&gt;&lt;span style=&quot;font-size: 18px;&quot;&gt;13&lt;/span&gt;&lt;/font&gt;" style="rounded=0;whiteSpace=wrap;html=1;strokeColor=#2D7600;strokeWidth=1;fillColor=#60a917;fontColor=#ffffff;" parent="1" vertex="1"><mxGeometry x="1715" y="1389.72" width="40" height="30" as="geometry"/></mxCell><mxCell id="437" value="&lt;font color=&quot;#000000&quot;&gt;&lt;span style=&quot;font-size: 18px;&quot;&gt;14&lt;/span&gt;&lt;/font&gt;" style="rounded=0;whiteSpace=wrap;html=1;strokeColor=#C73500;strokeWidth=1;fillColor=#fa6800;fontColor=#000000;" parent="1" vertex="1"><mxGeometry x="1755" y="1389.72" width="40" height="30" as="geometry"/></mxCell><mxCell id="438" value="&lt;span style=&quot;font-size: 18px;&quot;&gt;15&lt;/span&gt;" style="rounded=0;whiteSpace=wrap;html=1;strokeColor=#C73500;strokeWidth=1;fillColor=#fa6800;fontColor=#000000;" parent="1" vertex="1"><mxGeometry x="1795" y="1389.72" width="40" height="30" as="geometry"/></mxCell><mxCell id="439" value="&lt;font color=&quot;#000000&quot;&gt;&lt;span style=&quot;font-size: 18px;&quot;&gt;16&lt;/span&gt;&lt;/font&gt;" style="rounded=0;whiteSpace=wrap;html=1;strokeColor=#C73500;strokeWidth=1;fillColor=#fa6800;fontColor=#000000;" parent="1" vertex="1"><mxGeometry x="1835" y="1389.72" width="40" height="30" as="geometry"/></mxCell><mxCell id="440" value="&lt;div style=&quot;color: rgb(204, 204, 204); background-color: rgb(31, 31, 31); font-family: Consolas, 微软雅黑, monospace, Consolas, &amp;quot;Courier New&amp;quot;, monospace; font-size: 14px; line-height: 19px;&quot;&gt;&lt;span style=&quot;color: #4ec9b0;&quot;&gt;Type&lt;/span&gt;&lt;span style=&quot;color: #d4d4d4;&quot;&gt;*&lt;/span&gt; &lt;span style=&quot;color: #9cdcfe;&quot;&gt;first&lt;/span&gt;&lt;/div&gt;" style="rounded=0;whiteSpace=wrap;html=1;strokeColor=default;strokeWidth=1;" parent="1" vertex="1"><mxGeometry x="860" y="1845" width="110" height="30" as="geometry"/></mxCell><mxCell id="441" value="&lt;div style=&quot;color: rgb(204, 204, 204); background-color: rgb(31, 31, 31); font-family: Consolas, 微软雅黑, monospace, Consolas, &amp;quot;Courier New&amp;quot;, monospace; font-size: 14px; line-height: 19px;&quot;&gt;&lt;span style=&quot;color: #4ec9b0;&quot;&gt;Type&lt;/span&gt;&lt;span style=&quot;color: #d4d4d4;&quot;&gt;*&lt;/span&gt; &lt;span style=&quot;color: #9cdcfe;&quot;&gt;last&lt;/span&gt;&lt;/div&gt;" style="rounded=0;whiteSpace=wrap;html=1;strokeColor=default;strokeWidth=1;" parent="1" vertex="1"><mxGeometry x="970" y="1845" width="110" height="30" as="geometry"/></mxCell><mxCell id="442" value="&lt;div style=&quot;color: rgb(204, 204, 204); background-color: rgb(31, 31, 31); font-family: Consolas, 微软雅黑, monospace, Consolas, &amp;quot;Courier New&amp;quot;, monospace; font-size: 14px; line-height: 19px;&quot;&gt;&lt;span style=&quot;color: #4ec9b0;&quot;&gt;Type&lt;/span&gt;&lt;span style=&quot;color: #d4d4d4;&quot;&gt;*&lt;/span&gt; &lt;span style=&quot;color: #9cdcfe;&quot;&gt;current&lt;/span&gt;&lt;/div&gt;" style="rounded=0;whiteSpace=wrap;html=1;strokeColor=default;strokeWidth=1;" parent="1" vertex="1"><mxGeometry x="1080" y="1845" width="120" height="30" as="geometry"/></mxCell><mxCell id="443" value="&lt;div style=&quot;color: rgb(204, 204, 204); background-color: rgb(31, 31, 31); font-family: Consolas, 微软雅黑, monospace, Consolas, &amp;quot;Courier New&amp;quot;, monospace; font-size: 14px; line-height: 19px;&quot;&gt;&lt;span style=&quot;color: #4ec9b0;&quot;&gt;map_pointer&lt;/span&gt; &lt;span style=&quot;color: #9cdcfe;&quot;&gt;node&lt;/span&gt;&lt;/div&gt;" style="rounded=0;whiteSpace=wrap;html=1;strokeColor=default;strokeWidth=1;" parent="1" vertex="1"><mxGeometry x="1200" y="1845" width="130" height="30" as="geometry"/></mxCell><mxCell id="444" value="" style="edgeStyle=elbowEdgeStyle;elbow=vertical;endArrow=classic;html=1;curved=0;rounded=0;endSize=8;startSize=8;exitX=0.75;exitY=1;exitDx=0;exitDy=0;entryX=0.5;entryY=1;entryDx=0;entryDy=0;strokeWidth=2;" parent="1" source="443" target="408" edge="1"><mxGeometry width="50" height="50" relative="1" as="geometry"><mxPoint x="1240" y="1955" as="sourcePoint"/><mxPoint x="1660" y="1955" as="targetPoint"/><Array as="points"><mxPoint x="1440" y="1925"/></Array></mxGeometry></mxCell><mxCell id="445" value="" style="curved=1;endArrow=classic;html=1;exitX=0.4;exitY=0.033;exitDx=0;exitDy=0;exitPerimeter=0;entryX=0.5;entryY=0;entryDx=0;entryDy=0;" parent="1" source="440" target="423" edge="1"><mxGeometry width="50" height="50" relative="1" as="geometry"><mxPoint x="1020" y="1825" as="sourcePoint"/><mxPoint x="1340" y="1475" as="targetPoint"/><Array as="points"><mxPoint x="1120" y="1755"/><mxPoint x="990" y="1565"/><mxPoint x="1210" y="1425"/></Array></mxGeometry></mxCell><mxCell id="446" value="" style="curved=1;endArrow=classic;html=1;entryX=1;entryY=1;entryDx=0;entryDy=0;exitX=0.25;exitY=0;exitDx=0;exitDy=0;" parent="1" source="441" target="430" edge="1"><mxGeometry width="50" height="50" relative="1" as="geometry"><mxPoint x="1040" y="1845" as="sourcePoint"/><mxPoint x="1090" y="1795" as="targetPoint"/><Array as="points"><mxPoint x="1150" y="1645"/><mxPoint x="1340" y="1635"/></Array></mxGeometry></mxCell><mxCell id="447" value="" style="curved=1;endArrow=classic;html=1;exitX=0.592;exitY=0.033;exitDx=0;exitDy=0;exitPerimeter=0;entryX=0;entryY=1;entryDx=0;entryDy=0;" parent="1" source="442" target="423" edge="1"><mxGeometry width="50" height="50" relative="1" as="geometry"><mxPoint x="1160" y="1835" as="sourcePoint"/><mxPoint x="1210" y="1785" as="targetPoint"/><Array as="points"><mxPoint x="1190" y="1695"/><mxPoint x="1310" y="1725"/></Array></mxGeometry></mxCell><mxCell id="448" value="&lt;div style=&quot;color: rgb(204, 204, 204); background-color: rgb(31, 31, 31); font-family: Consolas, 微软雅黑, monospace, Consolas, &amp;quot;Courier New&amp;quot;, monospace; font-size: 14px; line-height: 19px;&quot;&gt;&lt;span style=&quot;color: #4ec9b0;&quot;&gt;Type&lt;/span&gt;&lt;span style=&quot;color: #d4d4d4;&quot;&gt;*&lt;/span&gt; &lt;span style=&quot;color: #9cdcfe;&quot;&gt;first&lt;/span&gt;&lt;/div&gt;" style="rounded=0;whiteSpace=wrap;html=1;strokeColor=default;strokeWidth=1;" parent="1" vertex="1"><mxGeometry x="1810" y="1935" width="110" height="30" as="geometry"/></mxCell><mxCell id="449" value="&lt;div style=&quot;color: rgb(204, 204, 204); background-color: rgb(31, 31, 31); font-family: Consolas, 微软雅黑, monospace, Consolas, &amp;quot;Courier New&amp;quot;, monospace; font-size: 14px; line-height: 19px;&quot;&gt;&lt;span style=&quot;color: #4ec9b0;&quot;&gt;Type&lt;/span&gt;&lt;span style=&quot;color: #d4d4d4;&quot;&gt;*&lt;/span&gt; &lt;span style=&quot;color: #9cdcfe;&quot;&gt;last&lt;/span&gt;&lt;/div&gt;" style="rounded=0;whiteSpace=wrap;html=1;strokeColor=default;strokeWidth=1;" parent="1" vertex="1"><mxGeometry x="1920" y="1935" width="110" height="30" as="geometry"/></mxCell><mxCell id="450" value="&lt;div style=&quot;color: rgb(204, 204, 204); background-color: rgb(31, 31, 31); font-family: Consolas, 微软雅黑, monospace, Consolas, &amp;quot;Courier New&amp;quot;, monospace; font-size: 14px; line-height: 19px;&quot;&gt;&lt;span style=&quot;color: #4ec9b0;&quot;&gt;Type&lt;/span&gt;&lt;span style=&quot;color: #d4d4d4;&quot;&gt;*&lt;/span&gt; &lt;span style=&quot;color: #9cdcfe;&quot;&gt;current&lt;/span&gt;&lt;/div&gt;" style="rounded=0;whiteSpace=wrap;html=1;strokeColor=default;strokeWidth=1;" parent="1" vertex="1"><mxGeometry x="2030" y="1935" width="120" height="30" as="geometry"/></mxCell><mxCell id="451" value="&lt;div style=&quot;color: rgb(204, 204, 204); background-color: rgb(31, 31, 31); font-family: Consolas, 微软雅黑, monospace, Consolas, &amp;quot;Courier New&amp;quot;, monospace; font-size: 14px; line-height: 19px;&quot;&gt;&lt;span style=&quot;color: #4ec9b0;&quot;&gt;map_pointer&lt;/span&gt; &lt;span style=&quot;color: #9cdcfe;&quot;&gt;node&lt;/span&gt;&lt;/div&gt;" style="rounded=0;whiteSpace=wrap;html=1;strokeColor=default;strokeWidth=1;" parent="1" vertex="1"><mxGeometry x="2150" y="1935" width="130" height="30" as="geometry"/></mxCell><mxCell id="452" value="" style="edgeStyle=elbowEdgeStyle;elbow=vertical;endArrow=classic;html=1;curved=0;rounded=0;endSize=8;startSize=8;strokeWidth=2;exitX=0.25;exitY=0;exitDx=0;exitDy=0;entryX=0.5;entryY=1;entryDx=0;entryDy=0;" parent="1" target="410" edge="1"><mxGeometry width="50" height="50" relative="1" as="geometry"><mxPoint x="2182.5" y="1935" as="sourcePoint"/><mxPoint x="1715" y="1815" as="targetPoint"/><Array as="points"><mxPoint x="1970" y="1875"/></Array></mxGeometry></mxCell><mxCell id="453" value="" style="curved=1;endArrow=classic;html=1;strokeWidth=1;" parent="1" edge="1"><mxGeometry width="50" height="50" relative="1" as="geometry"><mxPoint x="1860" y="1935" as="sourcePoint"/><mxPoint x="1960" y="1645" as="targetPoint"/><Array as="points"><mxPoint x="1940" y="1825"/><mxPoint x="1960" y="1725"/><mxPoint x="1910" y="1705"/></Array></mxGeometry></mxCell><mxCell id="454" value="" style="curved=1;endArrow=classic;html=1;strokeWidth=1;" parent="1" edge="1"><mxGeometry width="50" height="50" relative="1" as="geometry"><mxPoint x="1970" y="1935" as="sourcePoint"/><mxPoint x="2290" y="1635" as="targetPoint"/><Array as="points"><mxPoint x="1990" y="1775"/><mxPoint x="2160" y="1775"/><mxPoint x="2300" y="1725"/></Array></mxGeometry></mxCell><mxCell id="455" value="" style="curved=1;endArrow=classic;html=1;strokeWidth=1;entryX=0.5;entryY=1;entryDx=0;entryDy=0;" parent="1" target="501" edge="1"><mxGeometry width="50" height="50" relative="1" as="geometry"><mxPoint x="2070" y="1935" as="sourcePoint"/><mxPoint x="2110" y="1645" as="targetPoint"/><Array as="points"><mxPoint x="2110" y="1765"/><mxPoint x="2060" y="1725"/></Array></mxGeometry></mxCell><mxCell id="456" value="" style="rounded=0;whiteSpace=wrap;html=1;strokeColor=default;strokeWidth=1;" parent="1" vertex="1"><mxGeometry x="1950" y="1575" width="320" height="30" as="geometry"/></mxCell><mxCell id="457" value="" style="rounded=0;whiteSpace=wrap;html=1;strokeColor=default;strokeWidth=1;" parent="1" vertex="1"><mxGeometry x="1950" y="1575" width="320" height="30" as="geometry"/></mxCell><mxCell id="458" value="&lt;font color=&quot;#000000&quot;&gt;&lt;span style=&quot;font-size: 18px;&quot;&gt;17&lt;/span&gt;&lt;/font&gt;" style="rounded=0;whiteSpace=wrap;html=1;strokeColor=#C73500;strokeWidth=1;fillColor=#fa6800;fontColor=#000000;" parent="1" vertex="1"><mxGeometry x="1950" y="1575" width="40" height="30" as="geometry"/></mxCell><mxCell id="459" value="&lt;span style=&quot;color: rgb(0, 0, 0); font-size: 18px;&quot;&gt;18&lt;/span&gt;" style="rounded=0;whiteSpace=wrap;html=1;strokeColor=#C73500;strokeWidth=1;fillColor=#fa6800;fontColor=#000000;" parent="1" vertex="1"><mxGeometry x="1990" y="1575" width="40" height="30" as="geometry"/></mxCell><mxCell id="460" value="&lt;font color=&quot;#000000&quot;&gt;&lt;span style=&quot;font-size: 18px;&quot;&gt;19&lt;/span&gt;&lt;/font&gt;" style="rounded=0;whiteSpace=wrap;html=1;strokeColor=#2D7600;strokeWidth=1;fillColor=#60a917;fontColor=#ffffff;" parent="1" vertex="1"><mxGeometry x="2030" y="1575" width="40" height="30" as="geometry"/></mxCell><mxCell id="461" value="&lt;span style=&quot;font-size: 18px;&quot;&gt;20&lt;/span&gt;" style="rounded=0;whiteSpace=wrap;html=1;strokeColor=#B09500;strokeWidth=1;fillColor=#e3c800;fontColor=#000000;" parent="1" vertex="1"><mxGeometry x="2070" y="1575" width="40" height="30" as="geometry"/></mxCell><mxCell id="462" value="&lt;span style=&quot;font-size: 18px;&quot;&gt;20&lt;/span&gt;" style="rounded=0;whiteSpace=wrap;html=1;strokeColor=#B09500;strokeWidth=1;fillColor=#e3c800;fontColor=#000000;" parent="1" vertex="1"><mxGeometry x="2110" y="1575" width="40" height="30" as="geometry"/></mxCell><mxCell id="463" value="" style="rounded=0;whiteSpace=wrap;html=1;strokeColor=default;strokeWidth=1;" parent="1" vertex="1"><mxGeometry x="2150" y="1575" width="40" height="30" as="geometry"/></mxCell><mxCell id="464" value="" style="rounded=0;whiteSpace=wrap;html=1;strokeColor=default;strokeWidth=1;" parent="1" vertex="1"><mxGeometry x="2190" y="1575" width="40" height="30" as="geometry"/></mxCell><mxCell id="465" value="" style="rounded=0;whiteSpace=wrap;html=1;strokeColor=default;strokeWidth=1;" parent="1" vertex="1"><mxGeometry x="2230" y="1575" width="40" height="30" as="geometry"/></mxCell><mxCell id="468" value="" style="curved=1;endArrow=classic;html=1;strokeWidth=1;fontSize=50;fontColor=#000000;endSize=6;entryX=0.75;entryY=0;entryDx=0;entryDy=0;exitX=0.25;exitY=0;exitDx=0;exitDy=0;" parent="1" source="461" target="462" edge="1"><mxGeometry width="50" height="50" relative="1" as="geometry"><mxPoint x="2090" y="1575" as="sourcePoint"/><mxPoint x="2140" y="1535" as="targetPoint"/><Array as="points"><mxPoint x="2070" y="1535"/><mxPoint x="2140" y="1505"/></Array></mxGeometry></mxCell><mxCell id="469" value="&lt;font style=&quot;font-size: 15px;&quot;&gt;&lt;b&gt;copy value to&lt;/b&gt;&lt;/font&gt;" style="text;html=1;strokeColor=none;fillColor=none;align=center;verticalAlign=middle;whiteSpace=wrap;rounded=0;fontSize=25;rotation=0;" parent="1" vertex="1"><mxGeometry x="2060.44" y="1494.72" width="99.12" height="20.14" as="geometry"/></mxCell><mxCell id="471" value="" style="endArrow=classic;html=1;strokeWidth=1;fontSize=50;fontColor=#000000;endSize=6;exitX=0.5;exitY=1;exitDx=0;exitDy=0;entryX=0.5;entryY=0;entryDx=0;entryDy=0;" parent="1" source="521" target="437" edge="1"><mxGeometry width="50" height="50" relative="1" as="geometry"><mxPoint x="1833.17" y="1318.2" as="sourcePoint"/><mxPoint x="1910" y="1294.72" as="targetPoint"/></mxGeometry></mxCell><mxCell id="477" value="&lt;div style=&quot;color: rgb(204, 204, 204); background-color: rgb(31, 31, 31); font-family: Consolas, 微软雅黑, monospace, Consolas, &amp;quot;Courier New&amp;quot;, monospace; font-size: 14px; line-height: 19px;&quot;&gt;&lt;span style=&quot;color: #4ec9b0;&quot;&gt;Type&lt;/span&gt;&lt;span style=&quot;color: #d4d4d4;&quot;&gt;*&lt;/span&gt; &lt;span style=&quot;color: #9cdcfe;&quot;&gt;first&lt;/span&gt;&lt;/div&gt;" style="rounded=0;whiteSpace=wrap;html=1;strokeColor=default;strokeWidth=1;" parent="1" vertex="1"><mxGeometry x="1678" y="1262.5" width="90" height="30" as="geometry"/></mxCell><mxCell id="478" value="&lt;div style=&quot;color: rgb(204, 204, 204); background-color: rgb(31, 31, 31); font-family: Consolas, 微软雅黑, monospace, Consolas, &amp;quot;Courier New&amp;quot;, monospace; font-size: 14px; line-height: 19px;&quot;&gt;&lt;span style=&quot;color: #4ec9b0;&quot;&gt;Type&lt;/span&gt;&lt;span style=&quot;color: #d4d4d4;&quot;&gt;*&lt;/span&gt; &lt;span style=&quot;color: #9cdcfe;&quot;&gt;last&lt;/span&gt;&lt;/div&gt;" style="rounded=0;whiteSpace=wrap;html=1;strokeColor=default;strokeWidth=1;" parent="1" vertex="1"><mxGeometry x="1769" y="1262.5" width="80" height="30" as="geometry"/></mxCell><mxCell id="479" value="&lt;div style=&quot;color: rgb(204, 204, 204); background-color: rgb(31, 31, 31); font-family: Consolas, 微软雅黑, monospace, Consolas, &amp;quot;Courier New&amp;quot;, monospace; font-size: 14px; line-height: 19px;&quot;&gt;&lt;span style=&quot;color: #4ec9b0;&quot;&gt;Type&lt;/span&gt;&lt;span style=&quot;color: #d4d4d4;&quot;&gt;*&lt;/span&gt; &lt;span style=&quot;color: #9cdcfe;&quot;&gt;current&lt;/span&gt;&lt;/div&gt;" style="rounded=0;whiteSpace=wrap;html=1;strokeColor=default;strokeWidth=1;" parent="1" vertex="1"><mxGeometry x="1850" y="1262.5" width="110" height="30" as="geometry"/></mxCell><mxCell id="480" value="&lt;div style=&quot;color: rgb(204, 204, 204); background-color: rgb(31, 31, 31); font-family: Consolas, 微软雅黑, monospace, Consolas, &amp;quot;Courier New&amp;quot;, monospace; font-size: 14px; line-height: 19px;&quot;&gt;&lt;span style=&quot;color: #4ec9b0;&quot;&gt;map_pointer&lt;/span&gt; &lt;span style=&quot;color: #9cdcfe;&quot;&gt;node&lt;/span&gt;&lt;/div&gt;" style="rounded=0;whiteSpace=wrap;html=1;strokeColor=default;strokeWidth=1;" parent="1" vertex="1"><mxGeometry x="1960" y="1262.5" width="130" height="30" as="geometry"/></mxCell><mxCell id="481" value="&lt;div style=&quot;color: rgb(204, 204, 204); background-color: rgb(31, 31, 31); font-family: Consolas, 微软雅黑, monospace, Consolas, &amp;quot;Courier New&amp;quot;, monospace; font-size: 14px; line-height: 19px;&quot;&gt;&lt;span style=&quot;color: #4ec9b0;&quot;&gt;Type&lt;/span&gt;&lt;span style=&quot;color: #d4d4d4;&quot;&gt;*&lt;/span&gt; &lt;span style=&quot;color: #9cdcfe;&quot;&gt;first&lt;/span&gt;&lt;/div&gt;" style="rounded=0;whiteSpace=wrap;html=1;strokeColor=default;strokeWidth=1;" parent="1" vertex="1"><mxGeometry x="1920" y="1230" width="90" height="30" as="geometry"/></mxCell><mxCell id="482" value="&lt;div style=&quot;color: rgb(204, 204, 204); background-color: rgb(31, 31, 31); font-family: Consolas, 微软雅黑, monospace, Consolas, &amp;quot;Courier New&amp;quot;, monospace; font-size: 14px; line-height: 19px;&quot;&gt;&lt;span style=&quot;color: #4ec9b0;&quot;&gt;Type&lt;/span&gt;&lt;span style=&quot;color: #d4d4d4;&quot;&gt;*&lt;/span&gt; &lt;span style=&quot;color: #9cdcfe;&quot;&gt;last&lt;/span&gt;&lt;/div&gt;" style="rounded=0;whiteSpace=wrap;html=1;strokeColor=default;strokeWidth=1;" parent="1" vertex="1"><mxGeometry x="2011" y="1230" width="80" height="30" as="geometry"/></mxCell><mxCell id="483" value="&lt;div style=&quot;color: rgb(204, 204, 204); background-color: rgb(31, 31, 31); font-family: Consolas, 微软雅黑, monospace, Consolas, &amp;quot;Courier New&amp;quot;, monospace; font-size: 14px; line-height: 19px;&quot;&gt;&lt;span style=&quot;color: #4ec9b0;&quot;&gt;Type&lt;/span&gt;&lt;span style=&quot;color: #d4d4d4;&quot;&gt;*&lt;/span&gt; &lt;span style=&quot;color: #9cdcfe;&quot;&gt;current&lt;/span&gt;&lt;/div&gt;" style="rounded=0;whiteSpace=wrap;html=1;strokeColor=default;strokeWidth=1;" parent="1" vertex="1"><mxGeometry x="2092" y="1230" width="110" height="30" as="geometry"/></mxCell><mxCell id="484" value="&lt;div style=&quot;color: rgb(204, 204, 204); background-color: rgb(31, 31, 31); font-family: Consolas, 微软雅黑, monospace, Consolas, &amp;quot;Courier New&amp;quot;, monospace; font-size: 14px; line-height: 19px;&quot;&gt;&lt;span style=&quot;color: #4ec9b0;&quot;&gt;map_pointer&lt;/span&gt; &lt;span style=&quot;color: #9cdcfe;&quot;&gt;node&lt;/span&gt;&lt;/div&gt;" style="rounded=0;whiteSpace=wrap;html=1;strokeColor=default;strokeWidth=1;" parent="1" vertex="1"><mxGeometry x="2202" y="1230" width="130" height="30" as="geometry"/></mxCell><mxCell id="485" value="&lt;div style=&quot;background-color: rgb(31, 31, 31); font-family: Consolas, 微软雅黑, monospace, Consolas, &amp;quot;Courier New&amp;quot;, monospace; font-size: 14px; line-height: 19px;&quot;&gt;&lt;span style=&quot;color: rgb(204, 204, 204);&quot;&gt;&lt;span style=&quot;color: #4ec9b0;&quot;&gt;&lt;b&gt;iterator&lt;/b&gt;&lt;/span&gt;&amp;nbsp;&lt;/span&gt;&lt;font color=&quot;#9cdcfe&quot;&gt;back_2&lt;/font&gt;&lt;/div&gt;" style="text;html=1;strokeColor=default;fillColor=none;align=center;verticalAlign=middle;whiteSpace=wrap;rounded=0;dashed=1;dashPattern=1 4;strokeWidth=1;" parent="1" vertex="1"><mxGeometry x="1678" y="1230" width="120" height="20" as="geometry"/></mxCell><mxCell id="486" value="&lt;div style=&quot;background-color: rgb(31, 31, 31); font-family: Consolas, 微软雅黑, monospace, Consolas, &amp;quot;Courier New&amp;quot;, monospace; font-size: 14px; line-height: 19px;&quot;&gt;&lt;span style=&quot;color: rgb(204, 204, 204);&quot;&gt;&lt;span style=&quot;color: #4ec9b0;&quot;&gt;&lt;b&gt;iterator&lt;/b&gt;&lt;/span&gt;&amp;nbsp;&lt;/span&gt;&lt;font color=&quot;#9cdcfe&quot;&gt;back_1&lt;/font&gt;&lt;/div&gt;" style="text;html=1;strokeColor=default;fillColor=none;align=center;verticalAlign=middle;whiteSpace=wrap;rounded=0;dashed=1;dashPattern=1 4;strokeWidth=1;" parent="1" vertex="1"><mxGeometry x="1920" y="1196" width="120" height="20" as="geometry"/></mxCell><mxCell id="487" value="" style="curved=1;endArrow=classic;html=1;strokeWidth=1;fontSize=50;fontColor=#000000;endSize=6;exitX=0.5;exitY=1;exitDx=0;exitDy=0;entryX=0.5;entryY=0;entryDx=0;entryDy=0;" parent="1" source="479" target="460" edge="1"><mxGeometry width="50" height="50" relative="1" as="geometry"><mxPoint x="1930" y="1405" as="sourcePoint"/><mxPoint x="1970" y="1505" as="targetPoint"/><Array as="points"><mxPoint x="1970" y="1355"/><mxPoint x="1890" y="1415"/></Array></mxGeometry></mxCell><mxCell id="488" value="" style="curved=1;endArrow=classic;html=1;strokeWidth=1;fontSize=50;fontColor=#000000;endSize=6;entryX=0.5;entryY=0;entryDx=0;entryDy=0;exitX=0.75;exitY=1;exitDx=0;exitDy=0;" parent="1" source="483" target="461" edge="1"><mxGeometry width="50" height="50" relative="1" as="geometry"><mxPoint x="2100" y="1405" as="sourcePoint"/><mxPoint x="2150" y="1355" as="targetPoint"/><Array as="points"><mxPoint x="2150" y="1405"/><mxPoint x="2080" y="1385"/></Array></mxGeometry></mxCell><mxCell id="489" value="" style="curved=1;endArrow=classic;html=1;entryX=0;entryY=0.75;entryDx=0;entryDy=0;strokeWidth=2;" parent="1" edge="1"><mxGeometry width="50" height="50" relative="1" as="geometry"><mxPoint x="1710" y="1765" as="sourcePoint"/><mxPoint x="1950" y="1597.5" as="targetPoint"/><Array as="points"><mxPoint x="1850" y="1735"/><mxPoint x="1890" y="1665"/><mxPoint x="1920" y="1595"/></Array></mxGeometry></mxCell><mxCell id="490" value="" style="curved=1;endArrow=classic;html=1;strokeWidth=2;fontSize=50;fontColor=#000000;endSize=6;entryX=0.5;entryY=0;entryDx=0;entryDy=0;exitX=0.688;exitY=1.05;exitDx=0;exitDy=0;exitPerimeter=0;" parent="1" source="480" target="410" edge="1"><mxGeometry width="50" height="50" relative="1" as="geometry"><mxPoint x="1840" y="1555" as="sourcePoint"/><mxPoint x="1810" y="1655" as="targetPoint"/><Array as="points"><mxPoint x="1970" y="1555"/><mxPoint x="1810" y="1505"/></Array></mxGeometry></mxCell><mxCell id="491" value="" style="curved=1;endArrow=classic;html=1;strokeWidth=2;fontSize=50;fontColor=#000000;endSize=6;entryX=0.5;entryY=0;entryDx=0;entryDy=0;exitX=0.75;exitY=1;exitDx=0;exitDy=0;" parent="1" source="484" edge="1"><mxGeometry width="50" height="50" relative="1" as="geometry"><mxPoint x="2049.4399999999996" y="1290.4300000000003" as="sourcePoint"/><mxPoint x="1715" y="1761.4299999999998" as="targetPoint"/><Array as="points"><mxPoint x="2110" y="1315"/><mxPoint x="1970" y="1551.43"/><mxPoint x="1820" y="1505"/></Array></mxGeometry></mxCell><mxCell id="495" value="" style="rounded=0;whiteSpace=wrap;html=1;strokeColor=default;strokeWidth=1;" parent="1" vertex="1"><mxGeometry x="1950" y="1615" width="320" height="30" as="geometry"/></mxCell><mxCell id="496" value="" style="rounded=0;whiteSpace=wrap;html=1;strokeColor=default;strokeWidth=1;" parent="1" vertex="1"><mxGeometry x="1950" y="1615" width="320" height="30" as="geometry"/></mxCell><mxCell id="497" value="&lt;font color=&quot;#000000&quot;&gt;&lt;span style=&quot;font-size: 18px;&quot;&gt;16&lt;/span&gt;&lt;/font&gt;" style="rounded=0;whiteSpace=wrap;html=1;strokeColor=#C73500;strokeWidth=1;fillColor=#fa6800;fontColor=#000000;" parent="1" vertex="1"><mxGeometry x="1950" y="1615" width="40" height="30" as="geometry"/></mxCell><mxCell id="498" value="&lt;span style=&quot;color: rgb(0, 0, 0); font-size: 18px;&quot;&gt;17&lt;/span&gt;" style="rounded=0;whiteSpace=wrap;html=1;strokeColor=#C73500;strokeWidth=1;fillColor=#fa6800;fontColor=#000000;" parent="1" vertex="1"><mxGeometry x="1990" y="1615" width="40" height="30" as="geometry"/></mxCell><mxCell id="499" value="&lt;font color=&quot;#000000&quot;&gt;&lt;span style=&quot;font-size: 18px;&quot;&gt;18&lt;/span&gt;&lt;/font&gt;" style="rounded=0;whiteSpace=wrap;html=1;strokeColor=#C73500;strokeWidth=1;fillColor=#fa6800;fontColor=#000000;" parent="1" vertex="1"><mxGeometry x="2030" y="1615" width="40" height="30" as="geometry"/></mxCell><mxCell id="500" value="&lt;span style=&quot;font-size: 18px;&quot;&gt;19&lt;/span&gt;" style="rounded=0;whiteSpace=wrap;html=1;strokeColor=#C73500;strokeWidth=1;fillColor=#fa6800;fontColor=#000000;" parent="1" vertex="1"><mxGeometry x="2070" y="1615" width="40" height="30" as="geometry"/></mxCell><mxCell id="501" value="&lt;span style=&quot;font-size: 18px;&quot;&gt;20&lt;/span&gt;" style="rounded=0;whiteSpace=wrap;html=1;strokeColor=#B09500;strokeWidth=1;fillColor=#e3c800;fontColor=#000000;" parent="1" vertex="1"><mxGeometry x="2110" y="1615" width="40" height="30" as="geometry"/></mxCell><mxCell id="502" value="" style="rounded=0;whiteSpace=wrap;html=1;strokeColor=default;strokeWidth=1;" parent="1" vertex="1"><mxGeometry x="2150" y="1615" width="40" height="30" as="geometry"/></mxCell><mxCell id="503" value="" style="rounded=0;whiteSpace=wrap;html=1;strokeColor=default;strokeWidth=1;" parent="1" vertex="1"><mxGeometry x="2190" y="1615" width="40" height="30" as="geometry"/></mxCell><mxCell id="504" value="" style="rounded=0;whiteSpace=wrap;html=1;strokeColor=default;strokeWidth=1;" parent="1" vertex="1"><mxGeometry x="2230" y="1615" width="40" height="30" as="geometry"/></mxCell><mxCell id="505" value="" style="rounded=0;whiteSpace=wrap;html=1;strokeColor=#2D7600;strokeWidth=1;fillColor=#60a917;fontColor=#ffffff;" parent="1" vertex="1"><mxGeometry x="1555" y="1424.72" width="320" height="30" as="geometry"/></mxCell><mxCell id="506" value="" style="rounded=0;whiteSpace=wrap;html=1;strokeColor=#2D7600;strokeWidth=1;fillColor=#60a917;fontColor=#ffffff;" parent="1" vertex="1"><mxGeometry x="1555" y="1424.72" width="320" height="30" as="geometry"/></mxCell><mxCell id="507" value="&lt;font color=&quot;#000000&quot;&gt;&lt;span style=&quot;font-size: 18px;&quot;&gt;9&lt;/span&gt;&lt;/font&gt;" style="rounded=0;whiteSpace=wrap;html=1;strokeColor=#2D7600;strokeWidth=1;fillColor=#60a917;fontColor=#ffffff;" parent="1" vertex="1"><mxGeometry x="1555" y="1424.72" width="40" height="30" as="geometry"/></mxCell><mxCell id="508" value="&lt;font color=&quot;#000000&quot;&gt;&lt;span style=&quot;font-size: 18px;&quot;&gt;10&lt;/span&gt;&lt;/font&gt;" style="rounded=0;whiteSpace=wrap;html=1;strokeColor=#2D7600;strokeWidth=1;fillColor=#60a917;fontColor=#ffffff;" parent="1" vertex="1"><mxGeometry x="1595" y="1424.72" width="40" height="30" as="geometry"/></mxCell><mxCell id="509" value="&lt;font color=&quot;#000000&quot;&gt;&lt;span style=&quot;font-size: 18px;&quot;&gt;11&lt;/span&gt;&lt;/font&gt;" style="rounded=0;whiteSpace=wrap;html=1;strokeColor=#2D7600;strokeWidth=1;fillColor=#60a917;fontColor=#ffffff;" parent="1" vertex="1"><mxGeometry x="1635" y="1424.72" width="40" height="30" as="geometry"/></mxCell><mxCell id="510" value="&lt;font color=&quot;#000000&quot;&gt;&lt;span style=&quot;font-size: 18px;&quot;&gt;12&lt;/span&gt;&lt;/font&gt;" style="rounded=0;whiteSpace=wrap;html=1;strokeColor=#2D7600;strokeWidth=1;fillColor=#60a917;fontColor=#ffffff;" parent="1" vertex="1"><mxGeometry x="1675" y="1424.72" width="40" height="30" as="geometry"/></mxCell><mxCell id="511" value="&lt;font color=&quot;#000000&quot;&gt;&lt;span style=&quot;font-size: 18px;&quot;&gt;13&lt;/span&gt;&lt;/font&gt;" style="rounded=0;whiteSpace=wrap;html=1;strokeColor=#2D7600;strokeWidth=1;fillColor=#60a917;fontColor=#ffffff;" parent="1" vertex="1"><mxGeometry x="1715" y="1424.72" width="40" height="30" as="geometry"/></mxCell><mxCell id="512" value="&lt;font color=&quot;#000000&quot;&gt;&lt;span style=&quot;font-size: 18px;&quot;&gt;123&lt;/span&gt;&lt;/font&gt;" style="rounded=0;whiteSpace=wrap;html=1;strokeColor=#B09500;strokeWidth=1;fillColor=#e3c800;fontColor=#000000;" parent="1" vertex="1"><mxGeometry x="1755" y="1424.72" width="40" height="30" as="geometry"/></mxCell><mxCell id="513" value="&lt;span style=&quot;font-size: 18px;&quot;&gt;14&lt;/span&gt;" style="rounded=0;whiteSpace=wrap;html=1;strokeColor=#C73500;strokeWidth=1;fillColor=#fa6800;fontColor=#000000;" parent="1" vertex="1"><mxGeometry x="1795" y="1424.72" width="40" height="30" as="geometry"/></mxCell><mxCell id="514" value="&lt;font color=&quot;#000000&quot;&gt;&lt;span style=&quot;font-size: 18px;&quot;&gt;15&lt;/span&gt;&lt;/font&gt;" style="rounded=0;whiteSpace=wrap;html=1;strokeColor=#C73500;strokeWidth=1;fillColor=#fa6800;fontColor=#000000;" parent="1" vertex="1"><mxGeometry x="1835" y="1424.72" width="40" height="30" as="geometry"/></mxCell><mxCell id="520" value="&lt;b&gt;&lt;font style=&quot;font-size: 25px;&quot;&gt;3&lt;/font&gt;&lt;/b&gt;" style="rounded=0;whiteSpace=wrap;html=1;fontSize=18;" parent="1" vertex="1"><mxGeometry x="1623" y="1314.72" width="40" height="40" as="geometry"/></mxCell><mxCell id="521" value="&lt;div style=&quot;color: rgb(204, 204, 204); background-color: rgb(31, 31, 31); font-family: Consolas, 微软雅黑, monospace, Consolas, &amp;quot;Courier New&amp;quot;, monospace; font-size: 14px; line-height: 19px;&quot;&gt;&lt;span style=&quot;color: #9cdcfe;&quot;&gt;__pos&lt;/span&gt; &lt;span style=&quot;color: #d4d4d4;&quot;&gt;=&lt;/span&gt; &lt;span style=&quot;color: #9cdcfe;&quot;&gt;start&lt;/span&gt; &lt;span style=&quot;color: #d4d4d4;&quot;&gt;+&lt;/span&gt; &lt;span style=&quot;color: #9cdcfe;&quot;&gt;index&lt;/span&gt;;&lt;/div&gt;" style="text;html=1;strokeColor=default;fillColor=none;align=center;verticalAlign=middle;whiteSpace=wrap;rounded=0;labelBackgroundColor=none;fontSize=50;fontColor=#000000;" parent="1" vertex="1"><mxGeometry x="1665" y="1324.72" width="195" height="30" as="geometry"/></mxCell><mxCell id="523" value="&lt;b&gt;&lt;font style=&quot;font-size: 25px;&quot;&gt;4&lt;/font&gt;&lt;/b&gt;" style="rounded=0;whiteSpace=wrap;html=1;fontSize=18;" parent="1" vertex="1"><mxGeometry x="2220" y="1454.72" width="40" height="40" as="geometry"/></mxCell><mxCell id="524" value="&lt;div style=&quot;color: rgb(204, 204, 204); background-color: rgb(31, 31, 31); font-family: Consolas, 微软雅黑, monospace, Consolas, &amp;quot;Courier New&amp;quot;, monospace; line-height: 19px;&quot;&gt;&lt;div style=&quot;text-align: left; line-height: 19px;&quot;&gt;&lt;span style=&quot;color: rgb(106, 153, 85);&quot;&gt;&lt;font style=&quot;font-size: 16px;&quot;&gt;// 执行反向拷贝操作。&lt;/font&gt;&lt;/span&gt;&lt;/div&gt;&lt;/div&gt;&lt;div style=&quot;color: rgb(204, 204, 204); background-color: rgb(31, 31, 31); font-family: Consolas, 微软雅黑, monospace, Consolas, &amp;quot;Courier New&amp;quot;, monospace; font-size: 19px; line-height: 19px;&quot;&gt;&lt;span style=&quot;color: #4ec9b0;&quot;&gt;std&lt;/span&gt;::&lt;span style=&quot;color: #dcdcaa;&quot;&gt;copy_backward&lt;/span&gt;(&lt;span style=&quot;color: #9cdcfe;&quot;&gt;__pos&lt;/span&gt;, &lt;span style=&quot;color: #9cdcfe;&quot;&gt;back_2&lt;/span&gt;, &lt;span style=&quot;color: #9cdcfe;&quot;&gt;back_1&lt;/span&gt;);&lt;/div&gt;" style="text;html=1;strokeColor=none;fillColor=none;align=center;verticalAlign=middle;whiteSpace=wrap;rounded=0;labelBackgroundColor=none;fontSize=50;fontColor=#000000;" parent="1" vertex="1"><mxGeometry x="2220" y="1494.72" width="442" height="49.72" as="geometry"/></mxCell><mxCell id="525" value="" style="endArrow=classic;html=1;strokeWidth=2;fontSize=16;fontColor=#000000;endSize=6;entryX=0.5;entryY=1;entryDx=0;entryDy=0;exitX=0.5;exitY=0;exitDx=0;exitDy=0;" parent="1" source="526" target="512" edge="1"><mxGeometry width="50" height="50" relative="1" as="geometry"><mxPoint x="1790" y="1495" as="sourcePoint"/><mxPoint x="1760" y="1535" as="targetPoint"/></mxGeometry></mxCell><mxCell id="526" value="&lt;span style=&quot;color: rgb(204, 204, 204); font-family: Consolas, 微软雅黑, monospace, Consolas, &amp;quot;Courier New&amp;quot;, monospace; font-size: 14px; text-align: left; background-color: rgb(31, 31, 31);&quot;&gt;&amp;nbsp;*__&lt;/span&gt;&lt;span style=&quot;font-family: Consolas, 微软雅黑, monospace, Consolas, &amp;quot;Courier New&amp;quot;, monospace; font-size: 14px; text-align: left; background-color: rgb(31, 31, 31); color: rgb(156, 220, 254);&quot;&gt;pos = valueCopy;&lt;/span&gt;" style="text;html=1;strokeColor=none;fillColor=none;align=center;verticalAlign=middle;whiteSpace=wrap;rounded=0;fontSize=15;" parent="1" vertex="1"><mxGeometry x="1710" y="1485" width="165" height="20" as="geometry"/></mxCell><mxCell id="530" value="&lt;b&gt;&lt;font style=&quot;font-size: 25px;&quot;&gt;5&lt;/font&gt;&lt;/b&gt;" style="rounded=0;whiteSpace=wrap;html=1;fontSize=18;" parent="1" vertex="1"><mxGeometry x="1870" y="1465" width="40" height="40" as="geometry"/></mxCell><mxCell id="531" value="&lt;span style=&quot;&quot;&gt;&lt;font color=&quot;#ffffff&quot; style=&quot;font-size: 37px;&quot; face=&quot;Lucida Console&quot;&gt;吐槽：说白了就是一个大号的数组插入操作（逃），&lt;br&gt;只不过为了维持该容器在逻辑上的连续性，多出了很多额外步骤罢了。。。。&lt;/font&gt;&lt;/span&gt;" style="text;html=1;strokeColor=#FFFFFF;fillColor=none;align=left;verticalAlign=middle;whiteSpace=wrap;rounded=1;strokeWidth=2;" parent="1" vertex="1"><mxGeometry x="10" y="-370" width="1280" height="180" as="geometry"/></mxCell></root></mxGraphModel></diagram></mxfile>